<?xml version="1.0" encoding="UTF-8" standalone="no"?>
<!-- Created with Inkscape (http://www.inkscape.org/) -->

<svg
   xmlns:dc="http://purl.org/dc/elements/1.1/"
   xmlns:cc="http://creativecommons.org/ns#"
   xmlns:rdf="http://www.w3.org/1999/02/22-rdf-syntax-ns#"
   xmlns:svg="http://www.w3.org/2000/svg"
   xmlns="http://www.w3.org/2000/svg"
   xmlns:sodipodi="http://sodipodi.sourceforge.net/DTD/sodipodi-0.dtd"
   xmlns:inkscape="http://www.inkscape.org/namespaces/inkscape"
   width="210mm"
   height="297mm"
   viewBox="0 0 210 297"
   version="1.1"
   id="svg8"
   sodipodi:docname="frictioncone.svg"
   inkscape:version="0.92.5 (2060ec1f9f, 2020-04-08)"
   inkscape:export-filename="/home/jlorenze/robotbook/tex/figs/ch26_figs/frictioncone.png"
   inkscape:export-xdpi="500"
   inkscape:export-ydpi="500">
  <defs
     id="defs2">
    <marker
       inkscape:stockid="Arrow1Mend"
       orient="auto"
       refY="0.0"
       refX="0.0"
       id="marker1878"
       style="overflow:visible;"
       inkscape:isstock="true">
      <path
         id="path1876"
         d="M 0.0,0.0 L 5.0,-5.0 L -12.5,0.0 L 5.0,5.0 L 0.0,0.0 z "
         style="fill-rule:evenodd;stroke:#000000;stroke-width:1pt;stroke-opacity:1;fill:#000000;fill-opacity:1"
         transform="scale(0.4) rotate(180) translate(10,0)" />
    </marker>
    <marker
       inkscape:isstock="true"
       style="overflow:visible"
       id="marker1724"
       refX="0.0"
       refY="0.0"
       orient="auto"
       inkscape:stockid="Arrow1Mstart">
      <path
         transform="scale(0.4) translate(10,0)"
         style="fill-rule:evenodd;stroke:#000000;stroke-width:1pt;stroke-opacity:1;fill:#000000;fill-opacity:1"
         d="M 0.0,0.0 L 5.0,-5.0 L -12.5,0.0 L 5.0,5.0 L 0.0,0.0 z "
         id="path1722" />
    </marker>
    <marker
       inkscape:stockid="Arrow1Mstart"
       orient="auto"
       refY="0.0"
       refX="0.0"
       id="Arrow1Mstart"
       style="overflow:visible"
       inkscape:isstock="true"
       inkscape:collect="always">
      <path
         id="path1308"
         d="M 0.0,0.0 L 5.0,-5.0 L -12.5,0.0 L 5.0,5.0 L 0.0,0.0 z "
         style="fill-rule:evenodd;stroke:#000000;stroke-width:1pt;stroke-opacity:1;fill:#000000;fill-opacity:1"
         transform="scale(0.4) translate(10,0)" />
    </marker>
    <inkscape:perspective
       sodipodi:type="inkscape:persp3d"
       inkscape:vp_x="71.437938 : 189.36407 : 1"
       inkscape:vp_y="-3.4906514 : 999.99394 : 0"
       inkscape:vp_z="-7.9476943 : 269.49763 : 1"
       inkscape:persp3d-origin="105 : 99 : 1"
       id="perspective1426" />
    <marker
       inkscape:isstock="true"
       style="overflow:visible;"
       id="marker2209"
       refX="0.0"
       refY="0.0"
       orient="auto"
       inkscape:stockid="Arrow1Mend"
       inkscape:collect="always">
      <path
         transform="scale(0.4) rotate(180) translate(10,0)"
         style="fill-rule:evenodd;stroke:#000000;stroke-width:1pt;stroke-opacity:1;fill:#000000;fill-opacity:1"
         d="M 0.0,0.0 L 5.0,-5.0 L -12.5,0.0 L 5.0,5.0 L 0.0,0.0 z "
         id="path2207" />
    </marker>
    <marker
       inkscape:isstock="true"
       style="overflow:visible;"
       id="marker2079"
       refX="0.0"
       refY="0.0"
       orient="auto"
       inkscape:stockid="Arrow1Mend">
      <path
         transform="scale(0.4) rotate(180) translate(10,0)"
         style="fill-rule:evenodd;stroke:#000000;stroke-width:1pt;stroke-opacity:1;fill:#000000;fill-opacity:1"
         d="M 0.0,0.0 L 5.0,-5.0 L -12.5,0.0 L 5.0,5.0 L 0.0,0.0 z "
         id="path2077" />
    </marker>
    <marker
       inkscape:isstock="true"
       style="overflow:visible;"
       id="marker1955"
       refX="0.0"
       refY="0.0"
       orient="auto"
       inkscape:stockid="Arrow1Mend">
      <path
         transform="scale(0.4) rotate(180) translate(10,0)"
         style="fill-rule:evenodd;stroke:#000000;stroke-width:1pt;stroke-opacity:1;fill:#000000;fill-opacity:1"
         d="M 0.0,0.0 L 5.0,-5.0 L -12.5,0.0 L 5.0,5.0 L 0.0,0.0 z "
         id="path1953" />
    </marker>
    <marker
       inkscape:stockid="Arrow1Mend"
       orient="auto"
       refY="0.0"
       refX="0.0"
       id="marker1815"
       style="overflow:visible;"
       inkscape:isstock="true">
      <path
         id="path1813"
         d="M 0.0,0.0 L 5.0,-5.0 L -12.5,0.0 L 5.0,5.0 L 0.0,0.0 z "
         style="fill-rule:evenodd;stroke:#000000;stroke-width:1pt;stroke-opacity:1;fill:#000000;fill-opacity:1"
         transform="scale(0.4) rotate(180) translate(10,0)" />
    </marker>
    <marker
       inkscape:stockid="Arrow1Send"
       orient="auto"
       refY="0.0"
       refX="0.0"
       id="marker1685"
       style="overflow:visible;"
       inkscape:isstock="true">
      <path
         id="path1683"
         d="M 0.0,0.0 L 5.0,-5.0 L -12.5,0.0 L 5.0,5.0 L 0.0,0.0 z "
         style="fill-rule:evenodd;stroke:#000000;stroke-width:1pt;stroke-opacity:1;fill:#000000;fill-opacity:1"
         transform="scale(0.2) rotate(180) translate(6,0)" />
    </marker>
    <marker
       inkscape:stockid="Arrow1Send"
       orient="auto"
       refY="0.0"
       refX="0.0"
       id="marker1579"
       style="overflow:visible;"
       inkscape:isstock="true">
      <path
         id="path1577"
         d="M 0.0,0.0 L 5.0,-5.0 L -12.5,0.0 L 5.0,5.0 L 0.0,0.0 z "
         style="fill-rule:evenodd;stroke:#000000;stroke-width:1pt;stroke-opacity:1;fill:#000000;fill-opacity:1"
         transform="scale(0.2) rotate(180) translate(6,0)" />
    </marker>
    <marker
       inkscape:stockid="Arrow1Send"
       orient="auto"
       refY="0.0"
       refX="0.0"
       id="marker2859"
       style="overflow:visible;"
       inkscape:isstock="true">
      <path
         id="path2857"
         d="M 0.0,0.0 L 5.0,-5.0 L -12.5,0.0 L 5.0,5.0 L 0.0,0.0 z "
         style="fill-rule:evenodd;stroke:#000000;stroke-width:1pt;stroke-opacity:1;fill:#000000;fill-opacity:1"
         transform="scale(0.2) rotate(180) translate(6,0)" />
    </marker>
    <marker
       inkscape:stockid="Arrow1Send"
       orient="auto"
       refY="0.0"
       refX="0.0"
       id="marker2759"
       style="overflow:visible;"
       inkscape:isstock="true">
      <path
         id="path2757"
         d="M 0.0,0.0 L 5.0,-5.0 L -12.5,0.0 L 5.0,5.0 L 0.0,0.0 z "
         style="fill-rule:evenodd;stroke:#000000;stroke-width:1pt;stroke-opacity:1;fill:#000000;fill-opacity:1"
         transform="scale(0.2) rotate(180) translate(6,0)" />
    </marker>
    <marker
       inkscape:stockid="Arrow1Send"
       orient="auto"
       refY="0.0"
       refX="0.0"
       id="marker2665"
       style="overflow:visible;"
       inkscape:isstock="true">
      <path
         id="path2663"
         d="M 0.0,0.0 L 5.0,-5.0 L -12.5,0.0 L 5.0,5.0 L 0.0,0.0 z "
         style="fill-rule:evenodd;stroke:#000000;stroke-width:1pt;stroke-opacity:1;fill:#000000;fill-opacity:1"
         transform="scale(0.2) rotate(180) translate(6,0)" />
    </marker>
    <marker
       inkscape:stockid="Arrow1Send"
       orient="auto"
       refY="0.0"
       refX="0.0"
       id="marker2577"
       style="overflow:visible;"
       inkscape:isstock="true">
      <path
         id="path2575"
         d="M 0.0,0.0 L 5.0,-5.0 L -12.5,0.0 L 5.0,5.0 L 0.0,0.0 z "
         style="fill-rule:evenodd;stroke:#000000;stroke-width:1pt;stroke-opacity:1;fill:#000000;fill-opacity:1"
         transform="scale(0.2) rotate(180) translate(6,0)" />
    </marker>
    <marker
       inkscape:stockid="Arrow1Send"
       orient="auto"
       refY="0.0"
       refX="0.0"
       id="marker2495"
       style="overflow:visible;"
       inkscape:isstock="true">
      <path
         id="path2493"
         d="M 0.0,0.0 L 5.0,-5.0 L -12.5,0.0 L 5.0,5.0 L 0.0,0.0 z "
         style="fill-rule:evenodd;stroke:#000000;stroke-width:1pt;stroke-opacity:1;fill:#000000;fill-opacity:1"
         transform="scale(0.2) rotate(180) translate(6,0)" />
    </marker>
    <marker
       inkscape:stockid="Arrow1Send"
       orient="auto"
       refY="0.0"
       refX="0.0"
       id="marker2419"
       style="overflow:visible;"
       inkscape:isstock="true">
      <path
         id="path2417"
         d="M 0.0,0.0 L 5.0,-5.0 L -12.5,0.0 L 5.0,5.0 L 0.0,0.0 z "
         style="fill-rule:evenodd;stroke:#000000;stroke-width:1pt;stroke-opacity:1;fill:#000000;fill-opacity:1"
         transform="scale(0.2) rotate(180) translate(6,0)" />
    </marker>
    <marker
       inkscape:stockid="Arrow1Send"
       orient="auto"
       refY="0.0"
       refX="0.0"
       id="marker2349"
       style="overflow:visible;"
       inkscape:isstock="true">
      <path
         id="path2347"
         d="M 0.0,0.0 L 5.0,-5.0 L -12.5,0.0 L 5.0,5.0 L 0.0,0.0 z "
         style="fill-rule:evenodd;stroke:#000000;stroke-width:1pt;stroke-opacity:1;fill:#000000;fill-opacity:1"
         transform="scale(0.2) rotate(180) translate(6,0)" />
    </marker>
    <marker
       inkscape:stockid="Arrow1Send"
       orient="auto"
       refY="0.0"
       refX="0.0"
       id="marker2285"
       style="overflow:visible;"
       inkscape:isstock="true">
      <path
         id="path2283"
         d="M 0.0,0.0 L 5.0,-5.0 L -12.5,0.0 L 5.0,5.0 L 0.0,0.0 z "
         style="fill-rule:evenodd;stroke:#000000;stroke-width:1pt;stroke-opacity:1;fill:#000000;fill-opacity:1"
         transform="scale(0.2) rotate(180) translate(6,0)" />
    </marker>
    <marker
       inkscape:stockid="Arrow1Send"
       orient="auto"
       refY="0.0"
       refX="0.0"
       id="marker2227"
       style="overflow:visible;"
       inkscape:isstock="true">
      <path
         id="path2225"
         d="M 0.0,0.0 L 5.0,-5.0 L -12.5,0.0 L 5.0,5.0 L 0.0,0.0 z "
         style="fill-rule:evenodd;stroke:#000000;stroke-width:1pt;stroke-opacity:1;fill:#000000;fill-opacity:1"
         transform="scale(0.2) rotate(180) translate(6,0)" />
    </marker>
    <marker
       inkscape:isstock="true"
       style="overflow:visible;"
       id="marker2065"
       refX="0.0"
       refY="0.0"
       orient="auto"
       inkscape:stockid="Arrow1Send">
      <path
         transform="scale(0.2) rotate(180) translate(6,0)"
         style="fill-rule:evenodd;stroke:#000000;stroke-width:1pt;stroke-opacity:1;fill:#000000;fill-opacity:1"
         d="M 0.0,0.0 L 5.0,-5.0 L -12.5,0.0 L 5.0,5.0 L 0.0,0.0 z "
         id="path2063" />
    </marker>
    <marker
       inkscape:isstock="true"
       style="overflow:visible;"
       id="marker1959"
       refX="0.0"
       refY="0.0"
       orient="auto"
       inkscape:stockid="Arrow1Mend">
      <path
         transform="scale(0.4) rotate(180) translate(10,0)"
         style="fill-rule:evenodd;stroke:#000000;stroke-width:1pt;stroke-opacity:1;fill:#000000;fill-opacity:1"
         d="M 0.0,0.0 L 5.0,-5.0 L -12.5,0.0 L 5.0,5.0 L 0.0,0.0 z "
         id="path1957" />
    </marker>
    <marker
       inkscape:isstock="true"
       style="overflow:visible;"
       id="marker1887"
       refX="0.0"
       refY="0.0"
       orient="auto"
       inkscape:stockid="Arrow1Lend">
      <path
         transform="scale(0.8) rotate(180) translate(12.5,0)"
         style="fill-rule:evenodd;stroke:#000000;stroke-width:1pt;stroke-opacity:1;fill:#000000;fill-opacity:1"
         d="M 0.0,0.0 L 5.0,-5.0 L -12.5,0.0 L 5.0,5.0 L 0.0,0.0 z "
         id="path1885" />
    </marker>
    <marker
       inkscape:isstock="true"
       style="overflow:visible;"
       id="marker1865"
       refX="0.0"
       refY="0.0"
       orient="auto"
       inkscape:stockid="Arrow1Lend">
      <path
         transform="scale(0.8) rotate(180) translate(12.5,0)"
         style="fill-rule:evenodd;stroke:#000000;stroke-width:1pt;stroke-opacity:1;fill:#000000;fill-opacity:1"
         d="M 0.0,0.0 L 5.0,-5.0 L -12.5,0.0 L 5.0,5.0 L 0.0,0.0 z "
         id="path1863" />
    </marker>
    <inkscape:path-effect
       effect="bspline"
       id="path-effect844"
       is_visible="true"
       weight="33.333333"
       steps="2"
       helper_size="0"
       apply_no_weight="true"
       apply_with_weight="true"
       only_selected="false" />
  </defs>
  <sodipodi:namedview
     id="base"
     pagecolor="#ffffff"
     bordercolor="#666666"
     borderopacity="1.0"
     inkscape:pageopacity="0.0"
     inkscape:pageshadow="2"
     inkscape:zoom="1.28"
     inkscape:cx="331.30817"
     inkscape:cy="924.95654"
     inkscape:document-units="mm"
     inkscape:current-layer="g2795"
     showgrid="false"
     inkscape:window-width="1848"
     inkscape:window-height="1043"
     inkscape:window-x="72"
     inkscape:window-y="0"
     inkscape:window-maximized="1"
     showguides="false" />
  <metadata
     id="metadata5">
    <rdf:RDF>
      <cc:Work
         rdf:about="">
        <dc:format>image/svg+xml</dc:format>
        <dc:type
           rdf:resource="http://purl.org/dc/dcmitype/StillImage" />
        <dc:title />
      </cc:Work>
    </rdf:RDF>
  </metadata>
  <g
     inkscape:label="Layer 1"
     inkscape:groupmode="layer"
     id="layer1" />
  <g
     inkscape:groupmode="layer"
     id="layer2"
     inkscape:label="Layer 2">
    <g
       id="g2795"
       transform="translate(23.771159,-7.2347005)">
      <g
         id="g1247"
         transform="translate(22.784221,8.9438479)">
        <path
           style="fill:#ffffff;fill-opacity:1;stroke:#000000;stroke-width:0.26499999;stroke-linecap:butt;stroke-linejoin:miter;stroke-miterlimit:4;stroke-dasharray:none;stroke-opacity:1"
           d="M 46.756774,39.070512 21.435314,64.7537 v 53.64013 L 46.756774,92.710655 V 39.070512"
           id="path1502"
           inkscape:connector-curvature="0"
           sodipodi:nodetypes="ccccc" />
        <ellipse
           ry="1.5348951"
           rx="0.67467922"
           cy="79.156548"
           cx="34.900684"
           id="path1177-8"
           style="opacity:1;fill:#8c1515;fill-opacity:1;stroke:none;stroke-width:0.02162373;stroke-linejoin:miter;stroke-miterlimit:4;stroke-dasharray:none;stroke-dashoffset:0;stroke-opacity:1;paint-order:normal" />
        <g
           id="g1219"
           transform="translate(1.6579496,0.12213884)">
          <path
             style="fill:#eaaeae;fill-opacity:1;stroke:#000000;stroke-width:0.26458332px;stroke-linecap:butt;stroke-linejoin:miter;stroke-opacity:1"
             d="M 65.493869,60.695944 33.524745,79.143645 65.461366,97.706348 Z"
             id="path1185"
             inkscape:connector-curvature="0"
             sodipodi:nodetypes="cccc" />
          <ellipse
             style="opacity:1;fill:#fbdede;fill-opacity:1;stroke:#000000;stroke-width:0.26499999;stroke-linejoin:miter;stroke-miterlimit:4;stroke-dasharray:none;stroke-dashoffset:0;stroke-opacity:1;paint-order:normal"
             id="path1177"
             cx="66.849915"
             cy="79.216728"
             rx="8.2682295"
             ry="18.810221" />
        </g>
      </g>
      <path
         style="fill:none;stroke:#000000;stroke-width:0.26458332px;stroke-linecap:butt;stroke-linejoin:miter;stroke-opacity:1"
         d="m 91.053873,66.807332 v 2.067057"
         id="path1251"
         inkscape:connector-curvature="0" />
      <path
         style="fill:none;stroke:#000000;stroke-width:0.26458332px;stroke-linecap:butt;stroke-linejoin:miter;stroke-opacity:1"
         d="m 57.716352,66.807332 v 2.067057"
         id="path1251-1"
         inkscape:connector-curvature="0" />
      <path
         style="fill:none;stroke:#000000;stroke-width:0.26458332px;stroke-linecap:butt;stroke-linejoin:miter;stroke-opacity:1"
         d="M 97.141017,69.580899 H 95.07396"
         id="path1251-8"
         inkscape:connector-curvature="0" />
      <path
         style="fill:none;stroke:#000000;stroke-width:0.26458332px;stroke-linecap:butt;stroke-linejoin:miter;stroke-opacity:1"
         d="M 97.141017,87.572577 H 95.07396"
         id="path1251-8-9"
         inkscape:connector-curvature="0" />
      <path
         style="fill:none;stroke:#000000;stroke-width:0.27000001;stroke-linecap:butt;stroke-linejoin:miter;stroke-miterlimit:4;stroke-dasharray:0.81, 0.81;stroke-dashoffset:0;stroke-opacity:1;marker-start:url(#Arrow1Mstart);marker-end:url(#marker2209)"
         d="M 58.158171,67.843913 H 90.588628"
         id="path1298"
         inkscape:connector-curvature="0"
         sodipodi:nodetypes="cc" />
      <path
         style="fill:none;stroke:#000000;stroke-width:0.27000001;stroke-linecap:butt;stroke-linejoin:miter;stroke-miterlimit:4;stroke-dasharray:0.81, 0.81;stroke-dashoffset:0;stroke-opacity:1;marker-start:url(#marker1724);marker-end:url(#marker1878)"
         d="M 96.083579,70.064793 V 87.090331"
         id="path1300"
         inkscape:connector-curvature="0"
         sodipodi:nodetypes="cc" />
      <g
         id="g2724"
         transform="matrix(0.28105539,0,0,0.28105539,48.493787,37.331013)">
        <g
           word-spacing="normal"
           letter-spacing="normal"
           font-size-adjust="none"
           font-stretch="normal"
           font-weight="normal"
           font-variant="normal"
           font-style="normal"
           stroke-miterlimit="10.433"
           xml:space="preserve"
           transform="matrix(0.3,0,0,-0.3,-52.5,222.75)"
           id="g2722"
           style="font-style:normal;font-variant:normal;font-weight:normal;font-stretch:normal;letter-spacing:normal;word-spacing:normal;text-anchor:start;fill:none;fill-opacity:1;fill-rule:evenodd;stroke:#000000;stroke-linecap:butt;stroke-linejoin:miter;stroke-miterlimit:10.43299961;stroke-dasharray:none;stroke-dashoffset:0;stroke-opacity:1"><path
             id="path2708"
             d="m 473.8,426.12 h 4.28 c 1,0 1.5,0 1.5,1 0,0.55 -0.5,0.55 -1.34,0.55 h -4.14 l 1.04,5.69 c 0.21,1.04 0.91,4.57 1.21,5.17 0.45,0.95 1.29,1.7 2.34,1.7 0.19,0 1.49,0 2.44,-0.91 -2.19,-0.18 -2.69,-1.93 -2.69,-2.68 0,-1.14 0.89,-1.74 1.85,-1.74 1.29,0 2.73,1.1 2.73,2.99 0,2.29 -2.3,3.43 -4.33,3.43 -1.7,0 -4.84,-0.89 -6.33,-5.82 -0.29,-1.05 -0.45,-1.55 -1.64,-7.83 h -3.43 c -0.96,0 -1.5,0 -1.5,-0.94 0,-0.61 0.45,-0.61 1.39,-0.61 h 3.29 l -3.75,-19.67 c -0.89,-4.83 -1.73,-9.38 -4.33,-9.38 -0.2,0 -1.43,0 -2.39,0.91 2.3,0.14 2.74,1.94 2.74,2.69 0,1.14 -0.89,1.75 -1.85,1.75 -1.29,0 -2.73,-1.1 -2.73,-3 0,-2.24 2.19,-3.44 4.23,-3.44 2.74,0 4.74,2.94 5.63,4.84 1.59,3.14 2.75,9.16 2.8,9.52 z"
             inkscape:connector-curvature="0"
             style="fill:#000000;stroke-width:0" /><path
             id="path2710"
             d="m 497.82,409.32 -0.01,0.28 -0.01,0.28 -0.02,0.26 -0.04,0.26 -0.04,0.25 -0.05,0.24 -0.06,0.24 -0.06,0.22 -0.08,0.22 -0.09,0.21 -0.1,0.2 -0.11,0.19 -0.12,0.19 -0.13,0.17 -0.14,0.17 -0.15,0.16 -0.17,0.15 -0.17,0.14 -0.18,0.13 -0.2,0.12 -0.21,0.12 -0.22,0.1 -0.23,0.09 -0.24,0.09 -0.26,0.07 -0.26,0.07 -0.28,0.05 -0.3,0.05 -0.3,0.03 -0.32,0.03 -0.33,0.02 h -0.34 c -2.86,0 -4.71,-1.56 -5.69,-3.37 h -0.03 v 3.37 l -5.13,-0.37 v -1.25 c 2.35,0 2.63,-0.25 2.63,-1.96 v -9.03 c 0,-1.5 -0.36,-1.5 -2.63,-1.5 v -1.25 c 0.08,0 2.52,0.14 3.99,0.14 1.28,0 3.69,-0.11 4,-0.14 v 1.25 c -2.27,0 -2.61,0 -2.61,1.5 v 6.28 c 0,3.66 2.89,5.36 5.19,5.36 2.43,0 2.75,-1.92 2.75,-3.69 v -7.95 c 0,-1.5 -0.35,-1.5 -2.61,-1.5 v -1.25 c 0.08,0 2.51,0.14 3.97,0.14 1.29,0 3.7,-0.11 4.01,-0.14 v 1.25 c -2.26,0 -2.62,0 -2.62,1.5 z"
             inkscape:connector-curvature="0"
             style="fill:#000000;stroke-width:0" /><path
             id="path2712"
             d="m 520.27,406.18 -0.01,0.41 -0.03,0.4 -0.05,0.4 -0.08,0.39 -0.09,0.39 -0.11,0.38 -0.14,0.38 -0.15,0.36 -0.16,0.36 -0.19,0.35 -0.2,0.34 -0.22,0.33 -0.24,0.32 -0.25,0.31 -0.26,0.3 -0.29,0.28 -0.29,0.27 -0.31,0.26 -0.32,0.25 -0.33,0.23 -0.35,0.21 -0.36,0.2 -0.37,0.19 -0.38,0.16 -0.39,0.15 -0.4,0.13 -0.41,0.12 -0.41,0.09 -0.43,0.07 -0.43,0.06 -0.45,0.03 -0.44,0.01 v -0.99 c 2.06,0 3.53,-0.96 4.29,-2.04 0.97,-1.36 1.08,-3.11 1.08,-4.78 0,-1.68 -0.11,-3.52 -1.12,-4.96 -0.94,-1.31 -2.53,-2.01 -4.25,-2.01 v 0 c -1.28,0 -3.18,0.42 -4.32,2.12 -0.93,1.44 -1.04,3.24 -1.04,4.85 0,1.5 0.03,3.56 1.25,5.04 0.87,1.02 2.34,1.78 4.11,1.78 v 0.99 c -4.8,0 -8.53,-3.77 -8.53,-8.13 0,-4.32 3.82,-7.76 8.53,-7.76 4.7,0 8.54,3.44 8.54,7.76 z"
             inkscape:connector-curvature="0"
             style="fill:#000000;stroke-width:0" /><path
             id="path2714"
             d="m 528.57,406.7 v 0.28 l 0.02,0.28 0.02,0.28 0.02,0.28 0.04,0.28 0.05,0.29 0.05,0.28 0.06,0.28 0.08,0.27 0.08,0.28 0.09,0.27 0.09,0.26 0.11,0.26 0.12,0.25 0.13,0.25 0.13,0.24 0.15,0.23 0.16,0.22 0.16,0.21 0.18,0.19 0.18,0.19 0.2,0.18 0.21,0.16 0.21,0.15 0.23,0.13 0.24,0.12 0.25,0.1 0.26,0.09 0.27,0.06 0.28,0.05 0.3,0.03 0.3,0.01 c -0.31,-0.25 -0.59,-0.7 -0.59,-1.25 0,-1.15 0.9,-1.61 1.56,-1.61 0.84,0 1.61,0.57 1.61,1.61 0,1.19 -1.12,2.22 -2.77,2.22 -1.73,0 -3.65,-1.08 -4.7,-3.72 h -0.03 v 3.72 l -4.98,-0.37 v -1.25 c 2.34,0 2.62,-0.25 2.62,-1.96 v -9.03 c 0,-1.5 -0.36,-1.5 -2.62,-1.5 v -1.25 c 0.17,0 2.54,0.14 3.96,0.14 1.5,0 3.05,-0.08 4.54,-0.14 v 1.25 h -0.69 c -2.58,0 -2.58,0.39 -2.58,1.58 z"
             inkscape:connector-curvature="0"
             style="fill:#000000;stroke-width:0" /><path
             id="path2716"
             d="m 565.87,409.32 v 0.28 l -0.02,0.28 -0.02,0.26 -0.03,0.26 -0.04,0.25 -0.05,0.24 -0.06,0.24 -0.07,0.22 -0.08,0.22 -0.09,0.21 -0.1,0.2 -0.11,0.19 -0.12,0.19 -0.13,0.17 -0.14,0.17 -0.15,0.16 -0.17,0.15 -0.17,0.14 -0.19,0.13 -0.19,0.12 -0.21,0.12 -0.22,0.1 -0.23,0.09 -0.24,0.09 -0.26,0.07 -0.27,0.07 -0.27,0.05 -0.3,0.05 -0.3,0.03 -0.32,0.03 -0.33,0.02 h -0.34 c -2.76,0 -4.64,-1.48 -5.58,-3.23 -0.7,2.47 -2.57,3.23 -5.12,3.23 -2.86,0 -4.7,-1.56 -5.69,-3.37 h -0.03 v 3.37 l -5.13,-0.37 v -1.25 c 2.35,0 2.63,-0.25 2.63,-1.96 v -9.03 c 0,-1.5 -0.36,-1.5 -2.63,-1.5 v -1.25 c 0.08,0 2.52,0.14 3.99,0.14 1.28,0 3.69,-0.11 4,-0.14 v 1.25 c -2.27,0 -2.61,0 -2.61,1.5 v 6.28 c 0,3.66 2.89,5.36 5.19,5.36 2.43,0 2.75,-1.92 2.75,-3.69 v -7.95 c 0,-1.5 -0.35,-1.5 -2.61,-1.5 v -1.25 c 0.08,0 2.51,0.14 3.97,0.14 1.29,0 3.7,-0.11 4.01,-0.14 v 1.25 c -2.26,0 -2.62,0 -2.62,1.5 v 6.28 c 0,3.66 2.9,5.36 5.2,5.36 2.44,0 2.75,-1.92 2.75,-3.69 v -7.95 c 0,-1.5 -0.34,-1.5 -2.61,-1.5 v -1.25 c 0.06,0 2.5,0.14 3.97,0.14 1.28,0 3.69,-0.11 4,-0.14 v 1.25 c -2.26,0 -2.61,0 -2.61,1.5 z"
             inkscape:connector-curvature="0"
             style="fill:#000000;stroke-width:0" /><path
             id="path2718"
             d="m 585.53,408.11 v 0.33 0.33 l -0.01,0.32 -0.01,0.31 -0.01,0.15 -0.01,0.15 -0.02,0.14 -0.02,0.15 -0.02,0.14 -0.03,0.14 -0.03,0.14 -0.04,0.13 -0.04,0.14 -0.04,0.13 -0.05,0.13 -0.06,0.13 -0.06,0.13 -0.07,0.13 -0.07,0.13 -0.08,0.12 -0.09,0.13 -0.1,0.12 -0.1,0.12 -0.11,0.13 -0.12,0.12 -0.13,0.12 -0.14,0.12 -0.14,0.12 c -1.43,1.19 -3.1,1.75 -5.16,1.75 -3.31,0 -5.64,-1.27 -5.64,-3.39 0,-1.11 0.77,-1.71 1.67,-1.71 0.94,0 1.64,0.71 1.64,1.65 0,0.59 -0.28,1.32 -1.22,1.59 1.25,0.87 3.27,0.87 3.49,0.87 1.94,0 4.06,-1.28 4.06,-4.21 v -1.08 -0.91 -3.45 c 0,-3.35 -2.92,-4.28 -4.49,-4.28 -1.78,0 -3.45,1.18 -3.45,2.89 0,1.92 1.67,4.61 7.94,4.84 v 0.91 c -1.91,-0.07 -4.2,-0.17 -6.75,-1.11 -3.14,-1.16 -4.11,-3.06 -4.11,-4.64 0,-3 3.62,-3.86 6.09,-3.86 2.78,0 4.43,1.56 5.16,2.92 0.14,-1.42 1.08,-2.75 2.69,-2.75 0.06,0 3.43,0 3.43,3.31 v 1.91 h -1.17 v -1.88 c 0,-0.34 0,-2.01 -1.29,-2.01 -1.29,0 -1.29,1.62 -1.29,2.08 z"
             inkscape:connector-curvature="0"
             style="fill:#000000;stroke-width:0" /><path
             id="path2720"
             d="m 596.96,422.95 -5.22,-0.39 v -1.25 c 2.33,0 2.61,-0.25 2.61,-1.95 v -17.85 c 0,-1.5 -0.35,-1.5 -2.61,-1.5 v -1.25 c 0.06,0 2.5,0.14 3.91,0.14 1.31,0 2.6,-0.03 3.93,-0.14 v 1.25 c -2.26,0 -2.62,0 -2.62,1.5 z"
             inkscape:connector-curvature="0"
             style="fill:#000000;stroke-width:0" /></g>      </g>
      <g
         id="g2838"
         transform="matrix(0.28105539,0,0,0.28105539,76.19414,51.214918)">
        <g
           word-spacing="normal"
           letter-spacing="normal"
           font-size-adjust="none"
           font-stretch="normal"
           font-weight="normal"
           font-variant="normal"
           font-style="normal"
           stroke-miterlimit="10.433"
           xml:space="preserve"
           transform="matrix(0.3,0,0,-0.3,-52.5,222.75)"
           id="g2836"
           style="font-style:normal;font-variant:normal;font-weight:normal;font-stretch:normal;letter-spacing:normal;word-spacing:normal;text-anchor:start;fill:none;fill-opacity:1;fill-rule:evenodd;stroke:#000000;stroke-linecap:butt;stroke-linejoin:miter;stroke-miterlimit:10.43299961;stroke-dasharray:none;stroke-dashoffset:0;stroke-opacity:1"><path
             id="path2818"
             d="m 467.04,423.68 0.02,0.1 0.02,0.11 0.03,0.11 0.03,0.11 0.03,0.12 0.03,0.12 0.06,0.24 0.06,0.25 0.06,0.25 0.06,0.24 0.06,0.25 0.02,0.11 0.03,0.12 0.03,0.11 0.02,0.11 0.03,0.1 0.02,0.1 0.02,0.1 0.02,0.08 0.02,0.09 0.01,0.07 0.02,0.07 0.01,0.07 0.01,0.05 v 0.05 l 0.01,0.03 v 0.02 0.01 c 0,0.84 -0.59,1.34 -1.44,1.34 -0.15,0 -1.54,-0.04 -2,-1.78 l -7.17,-28.86 c -0.14,-0.59 -0.14,-0.68 -0.14,-0.79 0,-0.74 0.55,-1.35 1.39,-1.35 1.05,0 1.64,0.91 1.75,1.05 0.19,0.45 0.84,3.05 2.73,10.72 1.6,-1.34 3.83,-1.55 4.83,-1.55 3.49,0 5.44,2.24 6.63,3.64 0.45,-2.25 2.29,-3.64 4.48,-3.64 1.75,0 2.89,1.14 3.69,2.74 0.84,1.79 1.5,4.84 1.5,4.93 0,0.5 -0.45,0.5 -0.59,0.5 -0.5,0 -0.55,-0.2 -0.71,-0.9 -0.84,-3.24 -1.75,-6.17 -3.78,-6.17 -1.34,0 -1.5,1.29 -1.5,2.29 0,1.1 0.6,3.44 1,5.17 l 1.39,5.4 c 0.16,0.75 0.64,2.64 0.85,3.39 0.25,1.14 0.75,3.03 0.75,3.32 0,0.91 -0.71,1.35 -1.44,1.35 -0.25,0 -1.55,-0.05 -1.95,-1.74 l -2.35,-9.32 c -0.59,-2.49 -1.14,-4.58 -1.3,-5.08 -0.04,-0.25 -2.43,-4.78 -6.46,-4.78 -2.49,0 -3.69,1.64 -3.69,4.32 0,1.46 0.34,2.85 0.7,4.25 z"
             inkscape:connector-curvature="0"
             style="fill:#000000;stroke-width:0" /><path
             id="path2820"
             d="m 500.54,411.86 -0.09,-0.03 -0.08,-0.02 -0.08,-0.03 -0.08,-0.02 -0.07,-0.04 -0.08,-0.03 -0.07,-0.04 -0.07,-0.04 -0.06,-0.04 -0.07,-0.04 -0.06,-0.05 -0.06,-0.05 -0.05,-0.05 -0.06,-0.05 -0.05,-0.05 -0.05,-0.06 -0.05,-0.05 -0.04,-0.06 -0.04,-0.06 -0.04,-0.06 -0.03,-0.06 -0.04,-0.06 -0.03,-0.06 -0.02,-0.06 -0.03,-0.07 -0.02,-0.06 -0.01,-0.07 -0.02,-0.06 -0.01,-0.07 -0.01,-0.06 v -0.07 -0.06 c 0,-0.81 0.7,-1.12 1.15,-1.12 0.35,0 1.67,0.21 1.67,1.98 0,2.27 -2.5,3.03 -4.62,3.03 -5.44,0 -6.42,-4 -6.42,-5.08 0,-1.29 0.73,-2.12 1.22,-2.54 0.9,-0.71 1.53,-0.83 3.93,-1.25 0.74,-0.14 2.97,-0.57 2.97,-2.3 0,-0.59 -0.39,-1.92 -1.84,-2.8 -1.36,-0.76 -3.08,-0.76 -3.49,-0.76 -1.4,0 -3.39,0.31 -4.18,1.47 1.15,0.14 1.92,1 1.92,1.98 0,0.87 -0.63,1.28 -1.36,1.28 -1.02,0 -2.03,-0.8 -2.03,-2.33 0,-2.09 2.23,-3.37 5.61,-3.37 6.42,0 7.61,4.39 7.61,5.75 0,3.2 -3.53,3.83 -4.82,4.08 -0.31,0.06 -1.18,0.2 -1.39,0.26 -1.29,0.25 -1.92,0.99 -1.92,1.75 0,0.8 0.63,1.74 1.39,2.24 0.94,0.59 2.16,0.65 2.75,0.65 0.74,0 2.55,-0.11 3.32,-1.29 z"
             inkscape:connector-curvature="0"
             style="fill:#000000;stroke-width:0" /><path
             id="path2822"
             d="m 525.16,426.12 h 4.28 c 1,0 1.5,0 1.5,1 0,0.55 -0.5,0.55 -1.34,0.55 h -4.14 l 1.04,5.69 c 0.21,1.04 0.91,4.57 1.21,5.17 0.45,0.95 1.29,1.7 2.34,1.7 0.19,0 1.48,0 2.44,-0.91 -2.19,-0.18 -2.69,-1.93 -2.69,-2.68 0,-1.14 0.89,-1.74 1.85,-1.74 1.29,0 2.73,1.1 2.73,2.99 0,2.29 -2.3,3.43 -4.33,3.43 -1.7,0 -4.84,-0.89 -6.33,-5.82 -0.29,-1.05 -0.45,-1.55 -1.64,-7.83 h -3.43 c -0.96,0 -1.5,0 -1.5,-0.94 0,-0.61 0.45,-0.61 1.38,-0.61 h 3.3 l -3.75,-19.67 c -0.89,-4.83 -1.73,-9.38 -4.33,-9.38 -0.2,0 -1.43,0 -2.39,0.91 2.3,0.14 2.74,1.94 2.74,2.69 0,1.14 -0.89,1.75 -1.85,1.75 -1.29,0 -2.73,-1.1 -2.73,-3 0,-2.24 2.19,-3.44 4.23,-3.44 2.74,0 4.74,2.94 5.63,4.84 1.59,3.14 2.75,9.16 2.8,9.52 z"
             inkscape:connector-curvature="0"
             style="fill:#000000;stroke-width:0" /><path
             id="path2824"
             d="m 549.18,409.32 -0.01,0.28 -0.01,0.28 -0.02,0.26 -0.04,0.26 -0.04,0.25 -0.05,0.24 -0.06,0.24 -0.06,0.22 -0.08,0.22 -0.09,0.21 -0.1,0.2 -0.11,0.19 -0.12,0.19 -0.13,0.17 -0.14,0.17 -0.15,0.16 -0.17,0.15 -0.17,0.14 -0.18,0.13 -0.2,0.12 -0.21,0.12 -0.22,0.1 -0.23,0.09 -0.24,0.09 -0.26,0.07 -0.26,0.07 -0.28,0.05 -0.3,0.05 -0.3,0.03 -0.32,0.03 -0.33,0.02 h -0.34 c -2.86,0 -4.71,-1.56 -5.69,-3.37 h -0.03 v 3.37 l -5.13,-0.37 v -1.25 c 2.35,0 2.63,-0.25 2.63,-1.96 v -9.03 c 0,-1.5 -0.36,-1.5 -2.63,-1.5 v -1.25 c 0.08,0 2.52,0.14 3.99,0.14 1.28,0 3.68,-0.11 4,-0.14 v 1.25 c -2.27,0 -2.61,0 -2.61,1.5 v 6.28 c 0,3.66 2.89,5.36 5.19,5.36 2.43,0 2.75,-1.92 2.75,-3.69 v -7.95 c 0,-1.5 -0.35,-1.5 -2.61,-1.5 v -1.25 c 0.08,0 2.51,0.14 3.96,0.14 1.3,0 3.71,-0.11 4.02,-0.14 v 1.25 c -2.27,0 -2.62,0 -2.62,1.5 z"
             inkscape:connector-curvature="0"
             style="fill:#000000;stroke-width:0" /><path
             id="path2826"
             d="m 571.63,406.18 -0.01,0.41 -0.03,0.4 -0.05,0.4 -0.08,0.39 -0.09,0.39 -0.11,0.38 -0.14,0.38 -0.15,0.36 -0.16,0.36 -0.19,0.35 -0.2,0.34 -0.22,0.33 -0.24,0.32 -0.25,0.31 -0.27,0.3 -0.28,0.28 -0.29,0.27 -0.31,0.26 -0.32,0.25 -0.34,0.23 -0.34,0.21 -0.36,0.2 -0.37,0.19 -0.38,0.16 -0.39,0.15 -0.4,0.13 -0.41,0.12 -0.42,0.09 -0.42,0.07 -0.44,0.06 -0.44,0.03 -0.44,0.01 v -0.99 c 2.06,0 3.53,-0.96 4.29,-2.04 0.97,-1.36 1.08,-3.11 1.08,-4.78 0,-1.68 -0.11,-3.52 -1.12,-4.96 -0.94,-1.31 -2.54,-2.01 -4.25,-2.01 v 0 c -1.29,0 -3.18,0.42 -4.32,2.12 -0.93,1.44 -1.04,3.24 -1.04,4.85 0,1.5 0.03,3.56 1.25,5.04 0.87,1.02 2.34,1.78 4.11,1.78 v 0.99 c -4.8,0 -8.54,-3.77 -8.54,-8.13 0,-4.32 3.83,-7.76 8.54,-7.76 4.7,0 8.54,3.44 8.54,7.76 z"
             inkscape:connector-curvature="0"
             style="fill:#000000;stroke-width:0" /><path
             id="path2828"
             d="m 579.93,406.7 v 0.28 l 0.02,0.28 0.02,0.28 0.02,0.28 0.04,0.28 0.05,0.29 0.05,0.28 0.06,0.28 0.08,0.27 0.08,0.28 0.09,0.27 0.09,0.26 0.11,0.26 0.12,0.25 0.13,0.25 0.13,0.24 0.15,0.23 0.16,0.22 0.16,0.21 0.18,0.19 0.18,0.19 0.2,0.18 0.21,0.16 0.21,0.15 0.23,0.13 0.24,0.12 0.25,0.1 0.26,0.09 0.27,0.06 0.28,0.05 0.3,0.03 0.3,0.01 c -0.31,-0.25 -0.59,-0.7 -0.59,-1.25 0,-1.15 0.9,-1.61 1.56,-1.61 0.84,0 1.61,0.57 1.61,1.61 0,1.19 -1.13,2.22 -2.77,2.22 -1.73,0 -3.65,-1.08 -4.7,-3.72 h -0.03 v 3.72 l -4.98,-0.37 v -1.25 c 2.34,0 2.62,-0.25 2.62,-1.96 v -9.03 c 0,-1.5 -0.36,-1.5 -2.62,-1.5 v -1.25 c 0.17,0 2.54,0.14 3.96,0.14 1.5,0 3.05,-0.08 4.54,-0.14 v 1.25 h -0.69 c -2.58,0 -2.58,0.39 -2.58,1.58 z"
             inkscape:connector-curvature="0"
             style="fill:#000000;stroke-width:0" /><path
             id="path2830"
             d="m 617.23,409.32 v 0.28 l -0.02,0.28 -0.02,0.26 -0.03,0.26 -0.04,0.25 -0.05,0.24 -0.06,0.24 -0.07,0.22 -0.08,0.22 -0.09,0.21 -0.1,0.2 -0.11,0.19 -0.12,0.19 -0.13,0.17 -0.14,0.17 -0.15,0.16 -0.17,0.15 -0.17,0.14 -0.19,0.13 -0.19,0.12 -0.21,0.12 -0.22,0.1 -0.23,0.09 -0.24,0.09 -0.26,0.07 -0.27,0.07 -0.27,0.05 -0.3,0.05 -0.3,0.03 -0.32,0.03 -0.33,0.02 h -0.34 c -2.76,0 -4.64,-1.48 -5.58,-3.23 -0.7,2.47 -2.58,3.23 -5.12,3.23 -2.86,0 -4.71,-1.56 -5.69,-3.37 h -0.03 v 3.37 l -5.12,-0.37 v -1.25 c 2.34,0 2.62,-0.25 2.62,-1.96 v -9.03 c 0,-1.5 -0.36,-1.5 -2.62,-1.5 v -1.25 c 0.07,0 2.51,0.14 3.98,0.14 1.28,0 3.69,-0.11 4,-0.14 v 1.25 c -2.27,0 -2.61,0 -2.61,1.5 v 6.28 c 0,3.66 2.89,5.36 5.19,5.36 2.44,0 2.75,-1.92 2.75,-3.69 v -7.95 c 0,-1.5 -0.35,-1.5 -2.61,-1.5 v -1.25 c 0.08,0 2.51,0.14 3.97,0.14 1.29,0 3.7,-0.11 4.01,-0.14 v 1.25 c -2.26,0 -2.62,0 -2.62,1.5 v 6.28 c 0,3.66 2.9,5.36 5.2,5.36 2.44,0 2.75,-1.92 2.75,-3.69 v -7.95 c 0,-1.5 -0.34,-1.5 -2.61,-1.5 v -1.25 c 0.06,0 2.5,0.14 3.97,0.14 1.28,0 3.69,-0.11 4,-0.14 v 1.25 c -2.27,0 -2.61,0 -2.61,1.5 z"
             inkscape:connector-curvature="0"
             style="fill:#000000;stroke-width:0" /><path
             id="path2832"
             d="m 636.9,408.11 -0.01,0.33 v 0.33 l -0.01,0.32 -0.01,0.31 -0.01,0.15 -0.01,0.15 -0.02,0.14 -0.02,0.15 -0.02,0.14 -0.03,0.14 -0.03,0.14 -0.04,0.13 -0.04,0.14 -0.04,0.13 -0.05,0.13 -0.06,0.13 -0.06,0.13 -0.07,0.13 -0.07,0.13 -0.08,0.12 -0.09,0.13 -0.1,0.12 -0.1,0.12 -0.11,0.13 -0.12,0.12 -0.13,0.12 -0.14,0.12 -0.15,0.12 c -1.42,1.19 -3.09,1.75 -5.15,1.75 -3.31,0 -5.64,-1.27 -5.64,-3.39 0,-1.11 0.76,-1.71 1.67,-1.71 0.94,0 1.64,0.71 1.64,1.65 0,0.59 -0.28,1.32 -1.22,1.59 1.25,0.87 3.27,0.87 3.49,0.87 1.93,0 4.06,-1.28 4.06,-4.21 v -1.08 -0.91 -3.45 c 0,-3.35 -2.92,-4.28 -4.48,-4.28 -1.79,0 -3.46,1.18 -3.46,2.89 0,1.92 1.67,4.61 7.94,4.84 v 0.91 c -1.91,-0.07 -4.2,-0.17 -6.75,-1.11 -3.14,-1.16 -4.11,-3.06 -4.11,-4.64 0,-3 3.63,-3.86 6.09,-3.86 2.79,0 4.42,1.56 5.16,2.92 0.14,-1.42 1.08,-2.75 2.69,-2.75 0.06,0 3.44,0 3.44,3.31 v 1.91 h -1.18 v -1.88 c 0,-0.34 0,-2.01 -1.29,-2.01 -1.28,0 -1.28,1.62 -1.28,2.08 z"
             inkscape:connector-curvature="0"
             style="fill:#000000;stroke-width:0" /><path
             id="path2834"
             d="m 648.32,422.95 -5.22,-0.39 v -1.25 c 2.33,0 2.61,-0.25 2.61,-1.95 v -17.85 c 0,-1.5 -0.35,-1.5 -2.61,-1.5 v -1.25 c 0.06,0 2.5,0.14 3.9,0.14 1.32,0 2.61,-0.03 3.94,-0.14 v 1.25 c -2.26,0 -2.62,0 -2.62,1.5 z"
             inkscape:connector-curvature="0"
             style="fill:#000000;stroke-width:0" /></g>      </g>
      <g
         id="g2975"
         transform="matrix(0.28105539,0,0,0.28105539,47.977202,84.258444)">
        <g
           word-spacing="normal"
           letter-spacing="normal"
           font-size-adjust="none"
           font-stretch="normal"
           font-weight="normal"
           font-variant="normal"
           font-style="normal"
           stroke-miterlimit="10.433"
           xml:space="preserve"
           transform="matrix(0.3,0,0,-0.3,-52.5,222.75)"
           id="g2973"
           style="font-style:normal;font-variant:normal;font-weight:normal;font-stretch:normal;letter-spacing:normal;word-spacing:normal;text-anchor:start;fill:none;fill-opacity:1;fill-rule:evenodd;stroke:#000000;stroke-linecap:butt;stroke-linejoin:miter;stroke-miterlimit:10.43299961;stroke-dasharray:none;stroke-dashoffset:0;stroke-opacity:1"><path
             id="path2945"
             d="m 484.52,440.07 h -27.36 v -1.54 h 1.2 c 3.83,0 3.94,-0.55 3.94,-2.33 v -26.11 c 0,-1.8 -0.11,-2.34 -3.94,-2.34 h -1.2 v -1.55 c 1.75,0.16 5.64,0.16 7.58,0.16 2.05,0 6.58,0 8.37,-0.16 v 1.55 h -1.65 c -4.74,0 -4.74,0.64 -4.74,2.39 v 12.25 h 4.3 c 4.78,0 5.28,-1.6 5.28,-5.83 h 1.24 v 13.2 h -1.24 c 0,-4.19 -0.5,-5.83 -5.28,-5.83 h -4.3 v 12.61 c 0,1.64 0.11,1.99 2.46,1.99 h 5.96 c 7.49,0 8.72,-2.78 9.52,-9.66 h 1.25 z"
             inkscape:connector-curvature="0"
             style="fill:#000000;stroke-width:0" /><path
             id="path2947"
             d="m 492.15,422.75 v 5.46 l -6.92,-0.54 v -1.55 c 3.48,0 3.89,-0.34 3.89,-2.78 v -13.36 c 0,-2.23 -0.55,-2.23 -3.89,-2.23 v -1.55 c 1.95,0.05 4.28,0.16 5.69,0.16 1.98,0 4.33,0 6.33,-0.16 v 1.55 h -1.05 c -3.69,0 -3.8,0.54 -3.8,2.34 v 7.67 c 0,4.92 2.1,9.36 5.89,9.36 0.35,0 0.44,0 0.55,-0.05 -0.16,-0.04 -1.16,-0.64 -1.16,-1.93 0,-1.41 1.05,-2.14 2.16,-2.14 0.89,0 2.14,0.59 2.14,2.18 0,1.6 -1.55,3.03 -3.69,3.03 -3.64,0 -5.43,-3.32 -6.14,-5.46 z"
             inkscape:connector-curvature="0"
             style="fill:#000000;stroke-width:0" /><path
             id="path2949"
             d="m 512.21,428.21 -6.97,-0.54 v -1.55 c 3.24,0 3.69,-0.3 3.69,-2.73 v -13.41 c 0,-2.23 -0.55,-2.23 -3.89,-2.23 v -1.55 c 1.59,0.05 4.28,0.16 5.48,0.16 1.75,0 3.49,-0.11 5.19,-0.16 v 1.55 c -3.3,0 -3.5,0.25 -3.5,2.18 z"
             inkscape:connector-curvature="0"
             style="fill:#000000;stroke-width:0" /><path
             id="path2951"
             d="m 512.41,436.89 v 0.14 l -0.01,0.15 -0.02,0.14 -0.02,0.14 -0.03,0.13 -0.04,0.13 -0.04,0.13 -0.05,0.12 -0.06,0.12 -0.06,0.12 -0.06,0.11 -0.07,0.1 -0.08,0.1 -0.08,0.1 -0.09,0.1 -0.08,0.08 -0.1,0.09 -0.1,0.08 -0.1,0.07 -0.1,0.07 -0.11,0.07 -0.11,0.06 -0.11,0.05 -0.12,0.05 -0.12,0.04 -0.12,0.04 -0.12,0.03 -0.12,0.03 -0.13,0.02 -0.13,0.01 -0.13,0.01 -0.13,0.01 c -1.54,0 -2.64,-1.35 -2.64,-2.64 0,-1.35 1.1,-2.64 2.64,-2.64 1.39,0 2.64,1.04 2.64,2.64 z"
             inkscape:connector-curvature="0"
             style="fill:#000000;stroke-width:0" /><path
             id="path2953"
             d="m 523.02,417.06 0.01,0.38 v 0.36 l 0.02,0.36 0.02,0.35 0.03,0.34 0.03,0.34 0.03,0.32 0.04,0.32 0.05,0.31 0.05,0.3 0.06,0.29 0.06,0.29 0.13,0.55 0.15,0.51 0.17,0.49 0.18,0.46 0.2,0.43 0.21,0.4 0.22,0.38 0.23,0.35 0.24,0.32 0.25,0.3 0.26,0.28 0.26,0.26 0.27,0.23 0.28,0.21 0.27,0.19 0.29,0.16 0.28,0.15 0.28,0.13 0.28,0.12 0.29,0.09 0.27,0.08 0.28,0.06 0.27,0.05 0.27,0.03 0.26,0.02 0.25,0.01 c 0.44,0 3.58,-0.05 5.33,-1.85 -2.05,-0.15 -2.35,-1.64 -2.35,-2.29 0,-1.3 0.89,-2.3 2.3,-2.3 1.28,0 2.28,0.86 2.28,2.34 0,3.39 -3.78,5.33 -7.62,5.33 -6.22,0 -10.82,-5.37 -10.82,-11.55 0,-6.37 4.94,-11.31 10.72,-11.31 6.67,0 8.27,5.99 8.27,6.47 0,0.5 -0.5,0.5 -0.64,0.5 -0.46,0 -0.55,-0.19 -0.66,-0.5 -1.44,-4.62 -4.67,-5.22 -6.52,-5.22 -2.64,0 -7.03,2.14 -7.03,10.16 z"
             inkscape:connector-curvature="0"
             style="fill:#000000;stroke-width:0" /><path
             id="path2955"
             d="m 547.9,426.12 h 7.12 v 1.55 h -7.12 v 9.17 h -1.25 c -0.05,-4.08 -1.55,-9.42 -6.42,-9.61 v -1.11 h 4.23 v -13.75 c 0,-6.12 4.63,-6.72 6.42,-6.72 3.53,0 4.94,3.53 4.94,6.72 v 2.84 h -1.25 v -2.73 c 0,-3.69 -1.5,-5.58 -3.34,-5.58 -3.33,0 -3.33,4.53 -3.33,5.38 z"
             inkscape:connector-curvature="0"
             style="fill:#000000;stroke-width:0" /><path
             id="path2957"
             d="m 567.4,428.21 -6.97,-0.54 v -1.55 c 3.24,0 3.69,-0.3 3.69,-2.73 v -13.41 c 0,-2.23 -0.55,-2.23 -3.89,-2.23 v -1.55 c 1.59,0.05 4.28,0.16 5.49,0.16 1.75,0 3.48,-0.11 5.18,-0.16 v 1.55 c -3.3,0 -3.5,0.25 -3.5,2.18 z"
             inkscape:connector-curvature="0"
             style="fill:#000000;stroke-width:0" /><path
             id="path2959"
             d="m 567.6,436.89 v 0.14 l -0.01,0.15 -0.02,0.14 -0.02,0.14 -0.03,0.13 -0.04,0.13 -0.04,0.13 -0.05,0.12 -0.06,0.12 -0.06,0.12 -0.06,0.11 -0.07,0.1 -0.08,0.1 -0.08,0.1 -0.08,0.1 -0.09,0.08 -0.1,0.09 -0.09,0.08 -0.1,0.07 -0.11,0.07 -0.11,0.07 -0.11,0.06 -0.11,0.05 -0.12,0.05 -0.11,0.04 -0.13,0.04 -0.12,0.03 -0.12,0.03 -0.13,0.02 -0.13,0.01 -0.13,0.01 -0.12,0.01 c -1.55,0 -2.65,-1.35 -2.65,-2.64 0,-1.35 1.1,-2.64 2.65,-2.64 1.38,0 2.63,1.04 2.63,2.64 z"
             inkscape:connector-curvature="0"
             style="fill:#000000;stroke-width:0" /><path
             id="path2961"
             d="m 595.85,416.86 -0.01,0.59 -0.04,0.59 -0.07,0.58 -0.1,0.57 -0.13,0.56 -0.14,0.55 -0.18,0.54 -0.2,0.53 -0.22,0.51 -0.25,0.5 -0.26,0.49 -0.29,0.47 -0.31,0.46 -0.33,0.44 -0.34,0.43 -0.37,0.4 -0.38,0.39 -0.41,0.37 -0.41,0.35 -0.43,0.32 -0.45,0.31 -0.46,0.28 -0.48,0.26 -0.48,0.24 -0.5,0.21 -0.51,0.18 -0.52,0.16 -0.54,0.13 -0.53,0.11 -0.55,0.07 -0.56,0.05 -0.56,0.01 -0.05,-1.09 c 2.19,0 4.33,-1.1 5.63,-3.24 1.3,-2.14 1.3,-5.03 1.3,-6.92 0,-1.8 0,-4.48 -1.1,-6.67 -1.09,-2.25 -3.28,-3.69 -5.78,-3.69 v 0 c -2.14,0 -4.33,1.05 -5.67,3.33 -1.25,2.2 -1.25,5.23 -1.25,7.03 0,1.94 0,4.63 1.18,6.83 1.37,2.28 3.69,3.33 5.69,3.33 l 0.05,1.09 c -6.22,0 -11.06,-5.42 -11.06,-11.65 0,-6.43 5.19,-11.21 11.01,-11.21 6.03,0 11.06,4.88 11.06,11.21 z"
             inkscape:connector-curvature="0"
             style="fill:#000000;stroke-width:0" /><path
             id="path2963"
             d="m 602.83,423.34 v -13.36 c 0,-2.23 -0.55,-2.23 -3.89,-2.23 v -1.55 c 1.75,0.05 4.28,0.16 5.62,0.16 1.3,0 3.89,-0.11 5.58,-0.16 v 1.55 c -3.33,0 -3.87,0 -3.87,2.23 v 9.17 c 0,5.19 3.53,7.97 6.71,7.97 3.14,0 3.69,-2.69 3.69,-5.53 v -11.61 c 0,-2.23 -0.55,-2.23 -3.89,-2.23 v -1.55 c 1.75,0.05 4.3,0.16 5.64,0.16 1.3,0 3.88,-0.11 5.58,-0.16 v 1.55 c -2.59,0 -3.84,0 -3.89,1.5 v 9.51 c 0,4.28 0,5.83 -1.55,7.61 -0.68,0.86 -2.34,1.84 -5.22,1.84 -3.64,0 -5.98,-2.14 -7.37,-5.21 v 5.21 l -7.03,-0.54 v -1.55 c 3.48,0 3.89,-0.34 3.89,-2.78 z"
             inkscape:connector-curvature="0"
             style="fill:#000000;stroke-width:0" /><path
             id="path2965"
             d="m 644.54,423.23 0.02,-0.96 0.07,-0.94 0.12,-0.93 0.15,-0.91 0.2,-0.89 0.24,-0.87 0.28,-0.85 0.32,-0.83 0.36,-0.81 0.39,-0.78 0.43,-0.76 0.46,-0.74 0.49,-0.7 0.52,-0.68 0.56,-0.66 0.58,-0.62 0.61,-0.59 0.63,-0.56 0.66,-0.53 0.68,-0.5 0.71,-0.46 0.72,-0.43 0.75,-0.39 0.76,-0.35 0.78,-0.32 0.8,-0.28 0.81,-0.23 0.82,-0.2 0.84,-0.15 0.85,-0.11 0.85,-0.07 0.87,-0.02 c 8.12,0 13,6.92 13,12.7 0,0.5 0,0.84 -0.64,0.84 -0.55,0 -0.55,-0.29 -0.6,-0.79 -0.4,-7.13 -5.73,-11.21 -11.17,-11.21 -3.03,0 -12.8,1.69 -12.8,16.53 0,14.91 9.72,16.6 12.75,16.6 5.44,0 9.88,-4.53 10.86,-11.82 0.11,-0.68 0.11,-0.84 0.8,-0.84 0.8,0 0.8,0.16 0.8,1.2 v 11.8 c 0,0.86 0,1.2 -0.55,1.2 -0.19,0 -0.39,0 -0.8,-0.59 l -2.48,-3.69 c -1.84,1.8 -4.39,4.28 -9.17,4.28 -9.32,0 -17.33,-7.92 -17.33,-18.09 z"
             inkscape:connector-curvature="0"
             style="fill:#000000;stroke-width:0" /><path
             id="path2967"
             d="m 701.21,416.86 -0.01,0.59 -0.05,0.59 -0.07,0.58 -0.09,0.57 -0.13,0.56 -0.15,0.55 -0.17,0.54 -0.2,0.53 -0.22,0.51 -0.25,0.5 -0.27,0.49 -0.28,0.47 -0.31,0.46 -0.33,0.44 -0.35,0.43 -0.37,0.4 -0.38,0.39 -0.4,0.37 -0.42,0.35 -0.43,0.32 -0.45,0.31 -0.46,0.28 -0.47,0.26 -0.49,0.24 -0.5,0.21 -0.51,0.18 -0.52,0.16 -0.53,0.13 -0.54,0.11 -0.55,0.07 -0.55,0.05 -0.56,0.01 -0.05,-1.09 c 2.19,0 4.33,-1.1 5.62,-3.24 1.3,-2.14 1.3,-5.03 1.3,-6.92 0,-1.8 0,-4.48 -1.09,-6.67 -1.1,-2.25 -3.28,-3.69 -5.78,-3.69 v 0 c -2.15,0 -4.33,1.05 -5.68,3.33 -1.25,2.2 -1.25,5.23 -1.25,7.03 0,1.94 0,4.63 1.19,6.83 1.36,2.28 3.69,3.33 5.69,3.33 l 0.05,1.09 c -6.22,0 -11.07,-5.42 -11.07,-11.65 0,-6.43 5.19,-11.21 11.02,-11.21 6.03,0 11.06,4.88 11.06,11.21 z"
             inkscape:connector-curvature="0"
             style="fill:#000000;stroke-width:0" /><path
             id="path2969"
             d="m 708.18,423.34 v -13.36 c 0,-2.23 -0.54,-2.23 -3.89,-2.23 v -1.55 c 1.75,0.05 4.28,0.16 5.63,0.16 1.3,0 3.89,-0.11 5.58,-0.16 v 1.55 c -3.33,0 -3.88,0 -3.88,2.23 v 9.17 c 0,5.19 3.53,7.97 6.72,7.97 3.14,0 3.69,-2.69 3.69,-5.53 v -11.61 c 0,-2.23 -0.55,-2.23 -3.89,-2.23 v -1.55 c 1.75,0.05 4.29,0.16 5.64,0.16 1.29,0 3.87,-0.11 5.57,-0.16 v 1.55 c -2.59,0 -3.84,0 -3.88,1.5 v 9.51 c 0,4.28 0,5.83 -1.55,7.61 -0.69,0.86 -2.35,1.84 -5.22,1.84 -3.64,0 -5.98,-2.14 -7.38,-5.21 v 5.21 l -7.03,-0.54 v -1.55 c 3.49,0 3.89,-0.34 3.89,-2.78 z"
             inkscape:connector-curvature="0"
             style="fill:#000000;stroke-width:0" /><path
             id="path2971"
             d="m 735.95,417.71 0.05,1.05 c 0.29,7.42 4.48,8.66 6.18,8.66 5.13,0 5.63,-6.72 5.63,-8.66 H 736 l -0.05,-1.05 h 13.9 c 1.1,0 1.24,0 1.24,1.05 0,4.92 -2.69,9.75 -8.91,9.75 -5.78,0 -10.37,-5.12 -10.37,-11.36 0,-6.67 5.23,-11.5 10.97,-11.5 6.07,0 8.31,5.53 8.31,6.47 0,0.5 -0.39,0.61 -0.64,0.61 -0.45,0 -0.55,-0.3 -0.66,-0.7 -1.73,-5.13 -6.22,-5.13 -6.72,-5.13 -2.5,0 -4.48,1.49 -5.62,3.33 -1.5,2.39 -1.5,5.69 -1.5,7.48 z"
             inkscape:connector-curvature="0"
             style="fill:#000000;stroke-width:0" /></g>      </g>
      <g
         id="g3133"
         transform="matrix(0.28105539,0,0,0.28105539,47.309403,24.838565)">
        <g
           word-spacing="normal"
           letter-spacing="normal"
           font-size-adjust="none"
           font-stretch="normal"
           font-weight="normal"
           font-variant="normal"
           font-style="normal"
           stroke-miterlimit="10.433"
           xml:space="preserve"
           transform="matrix(0.3,0,0,-0.3,-52.5,222.75)"
           id="g3131"
           style="font-style:normal;font-variant:normal;font-weight:normal;font-stretch:normal;letter-spacing:normal;word-spacing:normal;text-anchor:start;fill:none;fill-opacity:1;fill-rule:evenodd;stroke:#000000;stroke-linecap:butt;stroke-linejoin:miter;stroke-miterlimit:10.43299961;stroke-dasharray:none;stroke-dashoffset:0;stroke-opacity:1"><path
             id="path3103"
             d="m 491.44,423.09 -0.02,0.95 -0.07,0.93 -0.1,0.92 -0.15,0.9 -0.19,0.89 -0.22,0.86 -0.27,0.85 -0.3,0.83 -0.33,0.81 -0.37,0.79 -0.4,0.76 -0.44,0.74 -0.47,0.72 -0.49,0.68 -0.53,0.66 -0.55,0.64 -0.58,0.6 -0.6,0.57 -0.63,0.54 -0.65,0.5 -0.67,0.47 -0.7,0.44 -0.71,0.4 -0.74,0.36 -0.75,0.33 -0.77,0.28 -0.78,0.25 -0.8,0.2 -0.81,0.16 -0.82,0.11 -0.84,0.07 -0.84,0.02 v -1.25 c 4.34,0 11.47,-3.53 11.47,-16.28 0,-13.2 -6.83,-17.39 -11.43,-17.39 v 0 c -4.78,0 -11.45,4.38 -11.45,17.39 0,12.89 7.28,16.28 11.41,16.28 v 1.25 c -8.92,0 -16.53,-7.96 -16.53,-18.23 0,-10.22 7.67,-17.98 16.53,-17.98 9.06,0 16.59,7.92 16.59,17.98 z"
             inkscape:connector-curvature="0"
             style="fill:#000000;stroke-width:0" /><path
             id="path3105"
             d="m 502.84,424.98 v 15.8 l -7.17,-0.55 v -1.55 c 3.48,0 3.89,-0.34 3.89,-2.79 V 406.2 h 1.25 c 0.05,0.05 0.44,0.75 1.78,3.09 0.75,-1.15 2.84,-3.64 6.53,-3.64 l -0.2,1.1 c -2.24,0 -4.03,1.2 -5.22,3.04 -0.7,1.05 -0.7,1.19 -0.7,2.08 v 0 10.27 c 0,0.95 0,1 0.54,1.79 1.94,2.8 4.69,3.19 5.88,3.19 2.25,0 4.05,-1.3 5.23,-3.19 1.3,-2.04 1.45,-4.87 1.45,-6.92 0,-1.84 -0.1,-4.83 -1.54,-7.08 -1.05,-1.54 -2.94,-3.18 -5.64,-3.18 l 0.2,-1.1 c 5.94,0 11.11,4.88 11.11,11.31 0,6.33 -4.88,11.25 -10.56,11.25 -3.88,0 -6.03,-2.34 -6.83,-3.23 z"
             inkscape:connector-curvature="0"
             style="fill:#000000;stroke-width:0" /><path
             id="path3107"
             d="m 535.23,428.21 -7.58,-0.54 v -1.55 c 3.83,0 4.28,-0.34 4.28,-2.78 v -19.73 c 0,-2.24 -0.45,-6.54 -3.64,-6.54 -0.25,0 -1.39,0 -2.69,0.66 0.75,0.2 1.75,0.89 1.75,2.23 0,1.3 -0.9,2.3 -2.3,2.3 -1.39,0 -2.29,-1 -2.29,-2.3 0,-2.57 2.79,-3.98 5.64,-3.98 3.73,0 6.83,3.19 6.83,7.73 z"
             inkscape:connector-curvature="0"
             style="fill:#000000;stroke-width:0" /><path
             id="path3109"
             d="m 535.23,436.89 -0.01,0.13 -0.01,0.14 -0.01,0.13 -0.03,0.13 -0.03,0.13 -0.03,0.12 -0.05,0.12 -0.04,0.12 -0.06,0.12 -0.06,0.11 -0.06,0.11 -0.07,0.11 -0.07,0.1 -0.08,0.1 -0.09,0.1 -0.08,0.09 -0.1,0.09 -0.09,0.08 -0.1,0.08 -0.11,0.07 -0.1,0.07 -0.11,0.07 -0.12,0.06 -0.12,0.05 -0.11,0.05 -0.13,0.04 -0.12,0.03 -0.13,0.03 -0.13,0.03 -0.13,0.01 -0.13,0.01 -0.13,0.01 c -1.46,0 -2.64,-1.19 -2.64,-2.64 0,-1.44 1.18,-2.64 2.64,-2.64 1.43,0 2.64,1.2 2.64,2.64 z"
             inkscape:connector-curvature="0"
             style="fill:#000000;stroke-width:0" /><path
             id="path3111"
             d="m 545.53,417.71 0.04,1.05 c 0.3,7.42 4.49,8.66 6.19,8.66 5.13,0 5.63,-6.72 5.63,-8.66 h -11.82 l -0.04,-1.05 h 13.9 c 1.1,0 1.24,0 1.24,1.05 0,4.92 -2.69,9.75 -8.91,9.75 -5.78,0 -10.37,-5.12 -10.37,-11.36 0,-6.67 5.23,-11.5 10.96,-11.5 6.08,0 8.32,5.53 8.32,6.47 0,0.5 -0.39,0.61 -0.64,0.61 -0.46,0 -0.55,-0.3 -0.66,-0.7 -1.73,-5.13 -6.22,-5.13 -6.72,-5.13 -2.5,0 -4.48,1.49 -5.62,3.33 -1.5,2.39 -1.5,5.69 -1.5,7.48 z"
             inkscape:connector-curvature="0"
             style="fill:#000000;stroke-width:0" /><path
             id="path3113"
             d="m 567.9,417.06 v 0.38 l 0.01,0.36 0.02,0.36 0.02,0.35 0.02,0.34 0.04,0.34 0.03,0.32 0.04,0.32 0.05,0.31 0.05,0.3 0.06,0.29 0.06,0.29 0.13,0.55 0.15,0.51 0.17,0.49 0.18,0.46 0.2,0.43 0.21,0.4 0.22,0.38 0.23,0.35 0.24,0.32 0.25,0.3 0.26,0.28 0.26,0.26 0.27,0.23 0.28,0.21 0.27,0.19 0.28,0.16 0.29,0.15 0.28,0.13 0.28,0.12 0.28,0.09 0.28,0.08 0.28,0.06 0.27,0.05 0.27,0.03 0.26,0.02 0.25,0.01 c 0.43,0 3.58,-0.05 5.33,-1.85 -2.05,-0.15 -2.35,-1.64 -2.35,-2.29 0,-1.3 0.89,-2.3 2.3,-2.3 1.28,0 2.28,0.86 2.28,2.34 0,3.39 -3.78,5.33 -7.63,5.33 -6.22,0 -10.81,-5.37 -10.81,-11.55 0,-6.37 4.94,-11.31 10.72,-11.31 6.67,0 8.27,5.99 8.27,6.47 0,0.5 -0.5,0.5 -0.65,0.5 -0.45,0 -0.54,-0.19 -0.65,-0.5 -1.44,-4.62 -4.67,-5.22 -6.52,-5.22 -2.64,0 -7.03,2.14 -7.03,10.16 z"
             inkscape:connector-curvature="0"
             style="fill:#000000;stroke-width:0" /><path
             id="path3115"
             d="m 592.78,426.12 h 7.12 v 1.55 h -7.12 v 9.17 h -1.25 c -0.05,-4.08 -1.55,-9.42 -6.43,-9.61 v -1.11 h 4.24 v -13.75 c 0,-6.12 4.63,-6.72 6.42,-6.72 3.53,0 4.94,3.53 4.94,6.72 v 2.84 h -1.25 v -2.73 c 0,-3.69 -1.5,-5.58 -3.35,-5.58 -3.32,0 -3.32,4.53 -3.32,5.38 z"
             inkscape:connector-curvature="0"
             style="fill:#000000;stroke-width:0" /><path
             id="path3117"
             d="m 637.66,425.53 -6.38,1.54 c -3.09,0.75 -5.03,3.44 -5.03,6.33 0,3.49 2.69,6.53 6.58,6.53 8.31,0 9.4,-8.17 9.7,-10.42 0.05,-0.3 0.05,-0.59 0.61,-0.59 0.64,0 0.64,0.25 0.64,1.2 v 10 c 0,0.86 0,1.2 -0.55,1.2 -0.34,0 -0.4,-0.04 -0.75,-0.65 l -1.73,-2.83 c -1.5,1.44 -3.55,3.48 -7.98,3.48 -5.54,0 -9.71,-4.39 -9.71,-9.67 0,-4.12 2.64,-7.76 6.52,-9.11 0.54,-0.2 3.09,-0.79 6.58,-1.64 1.34,-0.36 2.84,-0.7 4.23,-2.54 1.05,-1.3 1.55,-2.94 1.55,-4.58 0,-3.55 -2.49,-7.13 -6.67,-7.13 -1.46,0 -5.24,0.25 -7.88,2.69 -2.89,2.69 -3.05,5.87 -3.09,7.67 -0.05,0.5 -0.44,0.5 -0.6,0.5 -0.64,0 -0.64,-0.36 -0.64,-1.25 v -9.97 c 0,-0.84 0,-1.18 0.55,-1.18 0.34,0 0.39,0.09 0.73,0.64 0,0.04 0.16,0.2 1.8,2.84 1.55,-1.69 4.74,-3.48 9.17,-3.48 5.83,0 9.81,4.87 9.81,10.35 0,4.99 -3.28,9.07 -7.46,10.07 z"
             inkscape:connector-curvature="0"
             style="fill:#000000;stroke-width:0" /><path
             id="path3119"
             d="m 667.47,410.14 v -4.49 l 7.17,0.55 v 1.55 c -3.48,0 -3.89,0.34 -3.89,2.78 v 17.68 l -7.33,-0.54 v -1.55 c 3.5,0 3.89,-0.34 3.89,-2.78 v -8.88 c 0,-4.32 -2.39,-7.71 -6.03,-7.71 -4.17,0 -4.37,2.34 -4.37,4.93 v 16.53 l -7.33,-0.54 v -1.55 c 3.89,0 3.89,-0.14 3.89,-4.58 v -7.47 c 0,-3.89 0,-8.42 7.56,-8.42 2.8,0 4.99,1.39 6.44,4.49 z"
             inkscape:connector-curvature="0"
             style="fill:#000000;stroke-width:0" /><path
             id="path3121"
             d="m 684.02,422.75 v 5.46 l -6.93,-0.54 v -1.55 c 3.49,0 3.89,-0.34 3.89,-2.78 v -13.36 c 0,-2.23 -0.54,-2.23 -3.89,-2.23 v -1.55 c 1.96,0.05 4.29,0.16 5.69,0.16 1.99,0 4.33,0 6.33,-0.16 v 1.55 h -1.05 c -3.68,0 -3.79,0.54 -3.79,2.34 v 7.67 c 0,4.92 2.09,9.36 5.89,9.36 0.34,0 0.43,0 0.54,-0.05 -0.15,-0.04 -1.15,-0.64 -1.15,-1.93 0,-1.41 1.04,-2.14 2.15,-2.14 0.89,0 2.14,0.59 2.14,2.18 0,1.6 -1.54,3.03 -3.68,3.03 -3.64,0 -5.44,-3.32 -6.14,-5.46 z"
             inkscape:connector-curvature="0"
             style="fill:#000000;stroke-width:0" /><path
             id="path3123"
             d="m 703.98,427.67 v 5.78 c 0,4.39 2.39,6.78 4.58,6.78 0.16,0 0.91,0 1.66,-0.36 -0.62,-0.19 -1.5,-0.84 -1.5,-2.08 0,-1.15 0.79,-2.15 2.13,-2.15 1.44,0 2.19,1 2.19,2.2 0,1.84 -1.84,3.48 -4.48,3.48 -3.49,0 -7.72,-2.64 -7.72,-7.92 v -5.73 h -3.94 v -1.55 h 3.94 v -16.14 c 0,-2.23 -0.55,-2.23 -3.89,-2.23 v -1.55 c 1.95,0.05 4.3,0.16 5.69,0.16 1.98,0 4.33,0 6.33,-0.16 v 1.55 h -1.05 c -3.69,0 -3.78,0.54 -3.78,2.34 v 16.03 h 5.67 v 1.55 z"
             inkscape:connector-curvature="0"
             style="fill:#000000;stroke-width:0" /><path
             id="path3125"
             d="m 727.09,409.98 0.03,-0.19 0.03,-0.18 0.03,-0.19 0.04,-0.18 0.05,-0.19 0.06,-0.18 0.06,-0.18 0.07,-0.18 0.07,-0.18 0.08,-0.17 0.09,-0.18 0.1,-0.16 0.1,-0.16 0.1,-0.16 0.12,-0.16 0.12,-0.14 0.12,-0.14 0.13,-0.14 0.14,-0.13 0.15,-0.12 0.15,-0.12 0.15,-0.1 0.17,-0.1 0.17,-0.09 0.17,-0.08 0.18,-0.07 0.19,-0.06 0.19,-0.05 0.2,-0.04 0.21,-0.03 0.21,-0.02 0.21,-0.01 c 1.04,0 4.08,0.71 4.08,4.74 v 2.78 h -1.25 v -2.78 c 0,-2.89 -1.23,-3.19 -1.79,-3.19 -1.64,0 -1.85,2.23 -1.85,2.48 v 9.97 c 0,2.1 0,4.03 -1.78,5.88 -1.95,1.93 -4.44,2.73 -6.83,2.73 -4.09,0 -7.53,-2.33 -7.53,-5.62 0,-1.49 1,-2.35 2.3,-2.35 1.39,0 2.29,1 2.29,2.3 0,0.59 -0.24,2.23 -2.54,2.3 1.34,1.73 3.78,2.28 5.37,2.28 2.46,0 5.28,-1.94 5.28,-6.38 v -1.84 -1.05 -4.98 c 0,-4.74 -3.57,-6.42 -5.82,-6.42 -2.44,0 -4.49,1.75 -4.49,4.23 0,2.73 2.1,6.88 10.31,7.17 v 0 1.05 c -2.53,-0.14 -6.01,-0.3 -9.15,-1.8 -3.74,-1.69 -4.99,-4.28 -4.99,-6.47 0,-4.03 4.83,-5.28 7.97,-5.28 3.3,0 5.58,1.99 6.53,4.33 z"
             inkscape:connector-curvature="0"
             style="fill:#000000;stroke-width:0" /><path
             id="path3127"
             d="m 741.28,417.06 0.01,0.38 0.01,0.36 0.01,0.36 0.02,0.35 0.03,0.34 0.03,0.34 0.03,0.32 0.05,0.32 0.04,0.31 0.05,0.3 0.06,0.29 0.06,0.29 0.13,0.55 0.16,0.51 0.16,0.49 0.19,0.46 0.19,0.43 0.21,0.4 0.22,0.38 0.23,0.35 0.24,0.32 0.25,0.3 0.26,0.28 0.26,0.26 0.27,0.23 0.28,0.21 0.28,0.19 0.28,0.16 0.28,0.15 0.28,0.13 0.29,0.12 0.28,0.09 0.28,0.08 0.27,0.06 0.27,0.05 0.27,0.03 0.26,0.02 0.25,0.01 c 0.44,0 3.58,-0.05 5.33,-1.85 -2.05,-0.15 -2.35,-1.64 -2.35,-2.29 0,-1.3 0.9,-2.3 2.3,-2.3 1.28,0 2.28,0.86 2.28,2.34 0,3.39 -3.78,5.33 -7.62,5.33 -6.22,0 -10.81,-5.37 -10.81,-11.55 0,-6.37 4.93,-11.31 10.71,-11.31 6.67,0 8.27,5.99 8.27,6.47 0,0.5 -0.5,0.5 -0.64,0.5 -0.46,0 -0.55,-0.19 -0.66,-0.5 -1.43,-4.62 -4.67,-5.22 -6.51,-5.22 -2.64,0 -7.04,2.14 -7.04,10.16 z"
             inkscape:connector-curvature="0"
             style="fill:#000000;stroke-width:0" /><path
             id="path3129"
             d="m 763.07,417.71 0.04,1.05 c 0.3,7.42 4.49,8.66 6.19,8.66 5.13,0 5.63,-6.72 5.63,-8.66 h -11.82 l -0.04,-1.05 h 13.9 c 1.1,0 1.24,0 1.24,1.05 0,4.92 -2.69,9.75 -8.91,9.75 -5.78,0 -10.37,-5.12 -10.37,-11.36 0,-6.67 5.23,-11.5 10.97,-11.5 6.07,0 8.31,5.53 8.31,6.47 0,0.5 -0.39,0.61 -0.64,0.61 -0.46,0 -0.55,-0.3 -0.66,-0.7 -1.73,-5.13 -6.22,-5.13 -6.72,-5.13 -2.5,0 -4.48,1.49 -5.62,3.33 -1.5,2.39 -1.5,5.69 -1.5,7.48 z"
             inkscape:connector-curvature="0"
             style="fill:#000000;stroke-width:0" /></g>      </g>
    </g>
  </g>
</svg>
