<?xml version="1.0" encoding="UTF-8" standalone="no"?>
<!-- Created with Inkscape (http://www.inkscape.org/) -->

<svg
   xmlns:dc="http://purl.org/dc/elements/1.1/"
   xmlns:cc="http://creativecommons.org/ns#"
   xmlns:rdf="http://www.w3.org/1999/02/22-rdf-syntax-ns#"
   xmlns:svg="http://www.w3.org/2000/svg"
   xmlns="http://www.w3.org/2000/svg"
   xmlns:sodipodi="http://sodipodi.sourceforge.net/DTD/sodipodi-0.dtd"
   xmlns:inkscape="http://www.inkscape.org/namespaces/inkscape"
   width="210mm"
   height="297mm"
   viewBox="0 0 210 297"
   version="1.1"
   id="svg8"
   sodipodi:docname="principleoptimality.svg"
   inkscape:version="0.92.5 (2060ec1f9f, 2020-04-08)"
   inkscape:export-filename="/home/jlorenze/lab/labwork/aa274/lecture_notes/figs/princopt1.png"
   inkscape:export-xdpi="500"
   inkscape:export-ydpi="500">
  <defs
     id="defs2">
    <marker
       inkscape:isstock="true"
       style="overflow:visible;"
       id="marker3169"
       refX="0.0"
       refY="0.0"
       orient="auto"
       inkscape:stockid="Arrow1Send">
      <path
         transform="scale(0.2) rotate(180) translate(6,0)"
         style="fill-rule:evenodd;stroke:#000000;stroke-width:1pt;stroke-opacity:1;fill:#000000;fill-opacity:1"
         d="M 0.0,0.0 L 5.0,-5.0 L -12.5,0.0 L 5.0,5.0 L 0.0,0.0 z "
         id="path3167" />
    </marker>
    <marker
       inkscape:stockid="Arrow1Send"
       orient="auto"
       refY="0.0"
       refX="0.0"
       id="marker2965"
       style="overflow:visible;"
       inkscape:isstock="true"
       inkscape:collect="always">
      <path
         id="path2963"
         d="M 0.0,0.0 L 5.0,-5.0 L -12.5,0.0 L 5.0,5.0 L 0.0,0.0 z "
         style="fill-rule:evenodd;stroke:#000000;stroke-width:1pt;stroke-opacity:1;fill:#000000;fill-opacity:1"
         transform="scale(0.2) rotate(180) translate(6,0)" />
    </marker>
    <marker
       inkscape:stockid="Arrow1Send"
       orient="auto"
       refY="0.0"
       refX="0.0"
       id="marker2859"
       style="overflow:visible;"
       inkscape:isstock="true">
      <path
         id="path2857"
         d="M 0.0,0.0 L 5.0,-5.0 L -12.5,0.0 L 5.0,5.0 L 0.0,0.0 z "
         style="fill-rule:evenodd;stroke:#000000;stroke-width:1pt;stroke-opacity:1;fill:#000000;fill-opacity:1"
         transform="scale(0.2) rotate(180) translate(6,0)" />
    </marker>
    <marker
       inkscape:stockid="Arrow1Send"
       orient="auto"
       refY="0.0"
       refX="0.0"
       id="marker2759"
       style="overflow:visible;"
       inkscape:isstock="true">
      <path
         id="path2757"
         d="M 0.0,0.0 L 5.0,-5.0 L -12.5,0.0 L 5.0,5.0 L 0.0,0.0 z "
         style="fill-rule:evenodd;stroke:#000000;stroke-width:1pt;stroke-opacity:1;fill:#000000;fill-opacity:1"
         transform="scale(0.2) rotate(180) translate(6,0)" />
    </marker>
    <marker
       inkscape:stockid="Arrow1Send"
       orient="auto"
       refY="0.0"
       refX="0.0"
       id="marker2665"
       style="overflow:visible;"
       inkscape:isstock="true">
      <path
         id="path2663"
         d="M 0.0,0.0 L 5.0,-5.0 L -12.5,0.0 L 5.0,5.0 L 0.0,0.0 z "
         style="fill-rule:evenodd;stroke:#000000;stroke-width:1pt;stroke-opacity:1;fill:#000000;fill-opacity:1"
         transform="scale(0.2) rotate(180) translate(6,0)" />
    </marker>
    <marker
       inkscape:stockid="Arrow1Send"
       orient="auto"
       refY="0.0"
       refX="0.0"
       id="marker2577"
       style="overflow:visible;"
       inkscape:isstock="true">
      <path
         id="path2575"
         d="M 0.0,0.0 L 5.0,-5.0 L -12.5,0.0 L 5.0,5.0 L 0.0,0.0 z "
         style="fill-rule:evenodd;stroke:#000000;stroke-width:1pt;stroke-opacity:1;fill:#000000;fill-opacity:1"
         transform="scale(0.2) rotate(180) translate(6,0)" />
    </marker>
    <marker
       inkscape:stockid="Arrow1Send"
       orient="auto"
       refY="0.0"
       refX="0.0"
       id="marker2495"
       style="overflow:visible;"
       inkscape:isstock="true">
      <path
         id="path2493"
         d="M 0.0,0.0 L 5.0,-5.0 L -12.5,0.0 L 5.0,5.0 L 0.0,0.0 z "
         style="fill-rule:evenodd;stroke:#000000;stroke-width:1pt;stroke-opacity:1;fill:#000000;fill-opacity:1"
         transform="scale(0.2) rotate(180) translate(6,0)" />
    </marker>
    <marker
       inkscape:stockid="Arrow1Send"
       orient="auto"
       refY="0.0"
       refX="0.0"
       id="marker2419"
       style="overflow:visible;"
       inkscape:isstock="true">
      <path
         id="path2417"
         d="M 0.0,0.0 L 5.0,-5.0 L -12.5,0.0 L 5.0,5.0 L 0.0,0.0 z "
         style="fill-rule:evenodd;stroke:#000000;stroke-width:1pt;stroke-opacity:1;fill:#000000;fill-opacity:1"
         transform="scale(0.2) rotate(180) translate(6,0)" />
    </marker>
    <marker
       inkscape:stockid="Arrow1Send"
       orient="auto"
       refY="0.0"
       refX="0.0"
       id="marker2349"
       style="overflow:visible;"
       inkscape:isstock="true">
      <path
         id="path2347"
         d="M 0.0,0.0 L 5.0,-5.0 L -12.5,0.0 L 5.0,5.0 L 0.0,0.0 z "
         style="fill-rule:evenodd;stroke:#000000;stroke-width:1pt;stroke-opacity:1;fill:#000000;fill-opacity:1"
         transform="scale(0.2) rotate(180) translate(6,0)" />
    </marker>
    <marker
       inkscape:stockid="Arrow1Send"
       orient="auto"
       refY="0.0"
       refX="0.0"
       id="marker2285"
       style="overflow:visible;"
       inkscape:isstock="true">
      <path
         id="path2283"
         d="M 0.0,0.0 L 5.0,-5.0 L -12.5,0.0 L 5.0,5.0 L 0.0,0.0 z "
         style="fill-rule:evenodd;stroke:#000000;stroke-width:1pt;stroke-opacity:1;fill:#000000;fill-opacity:1"
         transform="scale(0.2) rotate(180) translate(6,0)" />
    </marker>
    <marker
       inkscape:stockid="Arrow1Send"
       orient="auto"
       refY="0.0"
       refX="0.0"
       id="marker2227"
       style="overflow:visible;"
       inkscape:isstock="true">
      <path
         id="path2225"
         d="M 0.0,0.0 L 5.0,-5.0 L -12.5,0.0 L 5.0,5.0 L 0.0,0.0 z "
         style="fill-rule:evenodd;stroke:#000000;stroke-width:1pt;stroke-opacity:1;fill:#000000;fill-opacity:1"
         transform="scale(0.2) rotate(180) translate(6,0)" />
    </marker>
    <marker
       inkscape:isstock="true"
       style="overflow:visible;"
       id="marker2075"
       refX="0.0"
       refY="0.0"
       orient="auto"
       inkscape:stockid="Arrow1Send"
       inkscape:collect="always">
      <path
         transform="scale(0.2) rotate(180) translate(6,0)"
         style="fill-rule:evenodd;stroke:#000000;stroke-width:1pt;stroke-opacity:1;fill:#000000;fill-opacity:1"
         d="M 0.0,0.0 L 5.0,-5.0 L -12.5,0.0 L 5.0,5.0 L 0.0,0.0 z "
         id="path2073" />
    </marker>
    <marker
       inkscape:isstock="true"
       style="overflow:visible;"
       id="marker2065"
       refX="0.0"
       refY="0.0"
       orient="auto"
       inkscape:stockid="Arrow1Send">
      <path
         transform="scale(0.2) rotate(180) translate(6,0)"
         style="fill-rule:evenodd;stroke:#000000;stroke-width:1pt;stroke-opacity:1;fill:#000000;fill-opacity:1"
         d="M 0.0,0.0 L 5.0,-5.0 L -12.5,0.0 L 5.0,5.0 L 0.0,0.0 z "
         id="path2063" />
    </marker>
    <marker
       inkscape:stockid="Arrow1Send"
       orient="auto"
       refY="0.0"
       refX="0.0"
       id="Arrow1Send"
       style="overflow:visible;"
       inkscape:isstock="true"
       inkscape:collect="always">
      <path
         id="path1322"
         d="M 0.0,0.0 L 5.0,-5.0 L -12.5,0.0 L 5.0,5.0 L 0.0,0.0 z "
         style="fill-rule:evenodd;stroke:#000000;stroke-width:1pt;stroke-opacity:1;fill:#000000;fill-opacity:1"
         transform="scale(0.2) rotate(180) translate(6,0)" />
    </marker>
    <marker
       inkscape:isstock="true"
       style="overflow:visible;"
       id="marker1969"
       refX="0.0"
       refY="0.0"
       orient="auto"
       inkscape:stockid="Arrow1Mend">
      <path
         transform="scale(0.4) rotate(180) translate(10,0)"
         style="fill-rule:evenodd;stroke:#000000;stroke-width:1pt;stroke-opacity:1;fill:#000000;fill-opacity:1"
         d="M 0.0,0.0 L 5.0,-5.0 L -12.5,0.0 L 5.0,5.0 L 0.0,0.0 z "
         id="path1967" />
    </marker>
    <marker
       inkscape:isstock="true"
       style="overflow:visible;"
       id="marker1959"
       refX="0.0"
       refY="0.0"
       orient="auto"
       inkscape:stockid="Arrow1Mend">
      <path
         transform="scale(0.4) rotate(180) translate(10,0)"
         style="fill-rule:evenodd;stroke:#000000;stroke-width:1pt;stroke-opacity:1;fill:#000000;fill-opacity:1"
         d="M 0.0,0.0 L 5.0,-5.0 L -12.5,0.0 L 5.0,5.0 L 0.0,0.0 z "
         id="path1957" />
    </marker>
    <marker
       inkscape:isstock="true"
       style="overflow:visible;"
       id="marker1887"
       refX="0.0"
       refY="0.0"
       orient="auto"
       inkscape:stockid="Arrow1Lend">
      <path
         transform="scale(0.8) rotate(180) translate(12.5,0)"
         style="fill-rule:evenodd;stroke:#000000;stroke-width:1pt;stroke-opacity:1;fill:#000000;fill-opacity:1"
         d="M 0.0,0.0 L 5.0,-5.0 L -12.5,0.0 L 5.0,5.0 L 0.0,0.0 z "
         id="path1885" />
    </marker>
    <marker
       inkscape:isstock="true"
       style="overflow:visible;"
       id="marker1865"
       refX="0.0"
       refY="0.0"
       orient="auto"
       inkscape:stockid="Arrow1Lend">
      <path
         transform="scale(0.8) rotate(180) translate(12.5,0)"
         style="fill-rule:evenodd;stroke:#000000;stroke-width:1pt;stroke-opacity:1;fill:#000000;fill-opacity:1"
         d="M 0.0,0.0 L 5.0,-5.0 L -12.5,0.0 L 5.0,5.0 L 0.0,0.0 z "
         id="path1863" />
    </marker>
    <inkscape:path-effect
       effect="bspline"
       id="path-effect844"
       is_visible="true"
       weight="33.333333"
       steps="2"
       helper_size="0"
       apply_no_weight="true"
       apply_with_weight="true"
       only_selected="false" />
  </defs>
  <sodipodi:namedview
     id="base"
     pagecolor="#ffffff"
     bordercolor="#666666"
     borderopacity="1.0"
     inkscape:pageopacity="0.0"
     inkscape:pageshadow="2"
     inkscape:zoom="0.7887103"
     inkscape:cx="321.25633"
     inkscape:cy="667.83423"
     inkscape:document-units="mm"
     inkscape:current-layer="layer2"
     showgrid="false"
     inkscape:window-width="1848"
     inkscape:window-height="1016"
     inkscape:window-x="72"
     inkscape:window-y="927"
     inkscape:window-maximized="1" />
  <metadata
     id="metadata5">
    <rdf:RDF>
      <cc:Work
         rdf:about="">
        <dc:format>image/svg+xml</dc:format>
        <dc:type
           rdf:resource="http://purl.org/dc/dcmitype/StillImage" />
      </cc:Work>
    </rdf:RDF>
  </metadata>
  <g
     inkscape:label="Layer 1"
     inkscape:groupmode="layer"
     id="layer1" />
  <g
     inkscape:groupmode="layer"
     id="layer2"
     inkscape:label="Layer 2">
    <g
       id="g1409"
       inkscape:export-xdpi="500"
       inkscape:export-ydpi="500">
      <path
         inkscape:connector-curvature="0"
         id="path2201"
         d="m 102.48402,144.02874 c 0,0 1.17412,1.50959 0.67093,4.19329 -0.50319,2.68371 -1.17412,3.85783 -1.17412,3.85783"
         style="fill:none;stroke:#000000;stroke-width:0.465;stroke-linecap:butt;stroke-linejoin:miter;stroke-opacity:1;stroke-miterlimit:4;stroke-dasharray:none;marker-end:url(#marker2419)" />
      <path
         inkscape:connector-curvature="0"
         id="path2211"
         d="m 105,154.76357 c 0,0 0.50319,-1.67732 0.83866,-4.86422 0.33546,-3.1869 0.33546,-4.02556 0.33546,-4.02556"
         style="fill:none;stroke:#000000;stroke-width:0.465;stroke-linecap:butt;stroke-linejoin:miter;stroke-opacity:1;stroke-miterlimit:4;stroke-dasharray:none;marker-end:url(#marker2349)" />
      <path
         inkscape:connector-curvature="0"
         id="path2213"
         d="M 127.65787,164.80149 140.07,163.7951"
         style="fill:none;stroke:#000000;stroke-width:0.465;stroke-linecap:butt;stroke-linejoin:miter;stroke-miterlimit:4;stroke-dasharray:none;stroke-opacity:1;marker-end:url(#marker2227)" />
      <path
         inkscape:connector-curvature="0"
         id="path2215"
         d="m 136.03035,127.92651 c 0,0 2.34824,0.33546 7.21246,2.01278 4.86422,1.67731 7.71565,3.1869 7.71565,3.1869"
         style="fill:none;stroke:#000000;stroke-width:0.465;stroke-linecap:butt;stroke-linejoin:miter;stroke-opacity:1;stroke-miterlimit:4;stroke-dasharray:none;marker-end:url(#marker2285)" />
      <path
         inkscape:connector-curvature="0"
         id="path2179"
         d="m 96.61342,129.77156 c 0,0 13.08306,-3.85783 26.83706,-2.01278 13.75399,1.84504 21.30191,3.69009 31.86901,9.39297 10.56709,5.70287 33.71405,28.6821 33.71405,28.6821"
         style="fill:none;stroke:#000000;stroke-width:0.76499999;stroke-linecap:butt;stroke-linejoin:miter;stroke-miterlimit:4;stroke-dasharray:2.295, 0.76500000000000001;stroke-dashoffset:0;stroke-opacity:1" />
      <path
         inkscape:connector-curvature="0"
         id="path2179-6"
         d="m 96.613419,129.77156 c 0,0 13.083061,-3.85783 26.837061,-2.01278 13.75399,1.84504 21.30191,3.69009 31.86901,9.39297 10.56709,5.70287 33.71405,28.6821 33.71405,28.6821"
         style="fill:none;stroke:#8c1515;stroke-width:1.565;stroke-linecap:butt;stroke-linejoin:miter;stroke-miterlimit:4;stroke-dasharray:none;stroke-dashoffset:0;stroke-opacity:0.98431373;opacity:0.75" />
      <path
         inkscape:connector-curvature="0"
         id="path2181"
         d="m 97.787538,173.38178 c 0,0 16.437702,-6.03834 37.907352,-7.71566 21.46965,-1.67731 53.33865,0.16773 53.33865,0.16773"
         style="fill:none;stroke:#000000;stroke-width:0.765;stroke-linecap:butt;stroke-linejoin:miter;stroke-opacity:1;stroke-miterlimit:4;stroke-dasharray:2.295, 0.76500000000000001;stroke-dashoffset:0" />
      <path
         inkscape:connector-curvature="0"
         id="path2183"
         d="m 94.76837,216.15334 c 0,0 32.70767,-1.17412 50.15176,-9.0575 17.44408,-7.88339 44.11341,-41.26199 44.11341,-41.26199"
         style="fill:none;stroke:#000000;stroke-width:0.765;stroke-linecap:butt;stroke-linejoin:miter;stroke-opacity:1;stroke-miterlimit:4;stroke-dasharray:2.295, 0.76500000000000001;stroke-dashoffset:0" />
      <path
         inkscape:connector-curvature="0"
         id="path2185"
         d="m 96.613418,129.77156 c 0,0 -9.728435,-0.67093 -22.476039,3.1869 -12.747604,3.85782 -22.476037,13.75399 -30.359424,21.80511 -7.883387,8.05112 -4.864216,18.61821 -4.864216,18.61821 1.006389,1.17412 13.250798,4.02556 27.004791,4.02556 13.753994,0 31.869008,-4.02556 31.869008,-4.02556"
         style="fill:none;stroke:#000000;stroke-width:0.765;stroke-linecap:butt;stroke-linejoin:miter;stroke-opacity:1;stroke-miterlimit:4;stroke-dasharray:2.295, 0.76500000000000001;stroke-dashoffset:0" />
      <path
         inkscape:connector-curvature="0"
         id="path2187"
         d="m 38.913739,173.38178 c -1.174123,21.80511 2.851435,27.84345 8.218847,34.55271 5.367414,6.70927 13.083069,8.88978 24.824282,9.05751 11.741214,0.16773 22.811502,-0.83866 22.811502,-0.83866"
         style="fill:none;stroke:#000000;stroke-width:0.765;stroke-linecap:butt;stroke-linejoin:miter;stroke-opacity:1;stroke-miterlimit:4;stroke-dasharray:2.295, 0.76500000000000001;stroke-dashoffset:0" />
      <path
         inkscape:connector-curvature="0"
         id="path2189"
         d="m 97.787535,173.38178 c 0,0 -7.380189,9.05751 -7.883382,20.12779 -0.503195,11.07029 4.864217,22.64377 4.864217,22.64377"
         style="fill:none;stroke:#000000;stroke-width:0.765;stroke-linecap:butt;stroke-linejoin:miter;stroke-opacity:1;stroke-miterlimit:4;stroke-dasharray:2.295, 0.76500000000000001;stroke-dashoffset:0" />
      <path
         inkscape:connector-curvature="0"
         id="path2191"
         d="m 96.613418,129.77156 c 0,0 7.883382,9.22523 7.883382,17.27635 0,8.05112 -6.709265,26.33387 -6.709265,26.33387"
         style="fill:none;stroke:#000000;stroke-width:0.765;stroke-linecap:butt;stroke-linejoin:miter;stroke-opacity:1;stroke-miterlimit:4;stroke-dasharray:2.295, 0.76500000000000001;stroke-dashoffset:0" />
      <path
         inkscape:connector-curvature="0"
         id="path2195"
         d="m 49.648562,146.37699 c 0,0 2.851438,-2.85144 6.373802,-5.53515 3.522363,-2.6837 4.193291,-3.01917 4.193291,-3.01917"
         style="fill:none;stroke:#000000;stroke-width:0.465;stroke-linecap:butt;stroke-linejoin:miter;stroke-opacity:1;stroke-miterlimit:4;stroke-dasharray:none;marker-end:url(#marker2859)" />
      <path
         inkscape:connector-curvature="0"
         id="path2197"
         d="m 40.255592,201.72842 c 4.361021,6.03834 8.051117,9.89617 8.051117,9.89617"
         style="fill:none;stroke:#000000;stroke-width:0.465;stroke-linecap:butt;stroke-linejoin:miter;stroke-opacity:1;stroke-miterlimit:4;stroke-dasharray:none;marker-end:url(#marker2665)" />
      <path
         inkscape:connector-curvature="0"
         id="path2199"
         d="m 61.725238,175.22683 c 5.199681,0.33546 11.070288,0 11.070288,0"
         style="fill:none;stroke:#000000;stroke-width:0.465;stroke-linecap:butt;stroke-linejoin:miter;stroke-opacity:1;stroke-miterlimit:4;stroke-dasharray:none;marker-end:url(#marker2759)" />
      <path
         inkscape:connector-curvature="0"
         id="path2203"
         d="m 92.420127,202.73481 c 0,0 -1.174121,-4.19329 -0.838658,-7.38019 0.335462,-3.1869 0.335462,-3.1869 0.335462,-3.1869"
         style="fill:none;stroke:#000000;stroke-width:0.465;stroke-linecap:butt;stroke-linejoin:miter;stroke-opacity:1;stroke-miterlimit:4;stroke-dasharray:none;marker-end:url(#marker2495)" />
      <path
         inkscape:connector-curvature="0"
         id="path2217"
         d="m 141.39776,210.45047 c 0,0 4.19329,-1.34186 7.71566,-3.52237 3.52236,-2.18051 5.53514,-3.69009 5.53514,-3.69009"
         style="fill:none;stroke:#000000;stroke-width:0.465;stroke-linecap:butt;stroke-linejoin:miter;stroke-opacity:1;stroke-miterlimit:4;stroke-dasharray:none;marker-end:url(#marker2965)" />
      <path
         inkscape:connector-curvature="0"
         id="path3159"
         d="m 88.394568,190.4904 c 0,0 -0.670928,1.67732 -0.167733,6.03834 0.503196,4.36102 0.670928,5.70288 0.670928,5.70288"
         style="fill:none;stroke:#000000;stroke-width:0.465;stroke-linecap:butt;stroke-linejoin:miter;stroke-opacity:1;stroke-miterlimit:4;stroke-dasharray:none;marker-end:url(#marker3169)" />
      <path
         inkscape:connector-curvature="0"
         id="path2181-0"
         d="m 97.787538,173.38178 c 0,0 16.437702,-6.03834 37.907352,-7.71566 21.46965,-1.67731 53.33865,0.16773 53.33865,0.16773"
         style="fill:none;stroke:#8c1515;stroke-width:1.565;stroke-linecap:butt;stroke-linejoin:miter;stroke-miterlimit:4;stroke-dasharray:none;stroke-dashoffset:0;stroke-opacity:0.98431373;opacity:0.75" />
      <path
         inkscape:connector-curvature="0"
         id="path2183-4"
         d="m 94.768372,216.15334 c 0,0 32.707668,-1.17412 50.151758,-9.0575 17.44408,-7.88339 44.11341,-41.26199 44.11341,-41.26199"
         style="fill:none;stroke:#8c1515;stroke-width:1.565;stroke-linecap:butt;stroke-linejoin:miter;stroke-miterlimit:4;stroke-dasharray:none;stroke-dashoffset:0;stroke-opacity:0.98431373;opacity:0.75" />
      <circle
         r="4.7803516"
         cy="130.10703"
         cx="96.613419"
         id="path815-8-6"
         style="opacity:1;fill:#eaaeae;fill-opacity:1;stroke:none;stroke-width:1.2954545;stroke-linejoin:round;stroke-miterlimit:4;stroke-dasharray:none;stroke-dashoffset:0;stroke-opacity:1;paint-order:stroke markers fill" />
      <circle
         r="4.7803516"
         cy="173.38179"
         cx="97.787544"
         id="path815-8-6-4"
         style="opacity:1;fill:#eaaeae;fill-opacity:1;stroke:none;stroke-width:1.2954545;stroke-linejoin:round;stroke-miterlimit:4;stroke-dasharray:none;stroke-dashoffset:0;stroke-opacity:1;paint-order:stroke markers fill" />
      <circle
         r="4.7803516"
         cy="216.15335"
         cx="94.936111"
         id="path815-8-6-3"
         style="opacity:1;fill:#eaaeae;fill-opacity:1;stroke:none;stroke-width:1.2954545;stroke-linejoin:round;stroke-miterlimit:4;stroke-dasharray:none;stroke-dashoffset:0;stroke-opacity:1;paint-order:stroke markers fill" />
      <circle
         r="4.7803516"
         cy="165.4984"
         cx="188.1949"
         id="path815-8-6-33"
         style="opacity:1;fill:#eaaeae;fill-opacity:1;stroke:none;stroke-width:1.2954545;stroke-linejoin:round;stroke-miterlimit:4;stroke-dasharray:none;stroke-dashoffset:0;stroke-opacity:1;paint-order:stroke markers fill" />
      <circle
         r="4.7803516"
         cy="173.38179"
         cx="38.410545"
         id="path815-8-6-8"
         style="opacity:1;fill:#eaaeae;fill-opacity:1;stroke:none;stroke-width:1.2954545;stroke-linejoin:round;stroke-miterlimit:4;stroke-dasharray:none;stroke-dashoffset:0;stroke-opacity:1;paint-order:stroke markers fill" />
      <g
         transform="matrix(0.65108559,0,0,0.65108559,-27.384483,109.68875)"
         id="g3508">
        <g
           style="font-style:normal;font-variant:normal;font-weight:normal;font-stretch:normal;letter-spacing:normal;word-spacing:normal;text-anchor:start;fill:none;fill-opacity:1;fill-rule:evenodd;stroke:#000000;stroke-linecap:butt;stroke-linejoin:miter;stroke-miterlimit:10.43299961;stroke-dasharray:none;stroke-dashoffset:0;stroke-opacity:1"
           id="g3506"
           transform="matrix(0.3,0,0,-0.3,-52.5,222.75)"
           xml:space="preserve"
           stroke-miterlimit="10.433"
           font-style="normal"
           font-variant="normal"
           font-weight="normal"
           font-stretch="normal"
           font-size-adjust="none"
           letter-spacing="normal"
           word-spacing="normal"><path
             style="fill:#000000;stroke-width:0"
             inkscape:connector-curvature="0"
             d="m 467.43,440.23 v 0 0.01 0 0.01 l -0.01,0.02 v 0.01 0.02 0.02 0.02 l -0.01,0.02 v 0.02 l -0.01,0.02 -0.01,0.02 -0.01,0.03 -0.01,0.02 -0.01,0.03 -0.01,0.02 -0.02,0.03 -0.02,0.02 -0.02,0.02 -0.02,0.03 -0.01,0.01 -0.02,0.01 -0.01,0.01 -0.01,0.01 -0.02,0.01 -0.01,0.01 -0.02,0.01 -0.01,0.01 -0.02,0.01 -0.02,0.01 h -0.02 l -0.02,0.01 -0.02,0.01 h -0.02 l -0.02,0.01 -0.02,0.01 h -0.03 -0.02 l -0.03,0.01 h -0.02 -0.03 l -0.03,0.01 h -0.03 -0.02 c -1.16,0 -4.79,-0.41 -6.08,-0.5 -0.41,-0.05 -0.96,-0.1 -0.96,-1 0,-0.6 0.46,-0.6 1.21,-0.6 2.39,0 2.48,-0.34 2.48,-0.84 0,-0.36 -0.45,-2.05 -0.7,-3.09 l -4.08,-16.24 c -0.59,-2.5 -0.8,-3.3 -0.8,-5.03 0,-4.73 2.64,-7.83 6.33,-7.83 v 1.1 c -1.7,0 -3.34,1.34 -3.34,5.03 0,0.95 0,1.89 0.79,5.03 l 1.1,4.59 c 0.3,1.1 0.3,1.19 0.75,1.74 2.44,3.23 4.69,3.98 5.98,3.98 1.8,0 3.14,-1.48 3.14,-4.69 0,-2.93 -1.65,-8.65 -2.54,-10.56 -1.64,-3.33 -3.94,-5.12 -5.88,-5.12 v -1.1 c 5.88,0 12,7.42 12,14.6 0,4.53 -2.64,7.96 -6.62,7.96 -2.28,0 -4.33,-1.43 -5.83,-2.98 z"
             id="path3504" /></g>      </g>
      <g
         transform="matrix(0.65108559,0,0,0.65108559,32.831172,60.207918)"
         id="g3626">
        <g
           style="font-style:normal;font-variant:normal;font-weight:normal;font-stretch:normal;letter-spacing:normal;word-spacing:normal;text-anchor:start;fill:none;fill-opacity:1;fill-rule:evenodd;stroke:#000000;stroke-linecap:butt;stroke-linejoin:miter;stroke-miterlimit:10.43299961;stroke-dasharray:none;stroke-dashoffset:0;stroke-opacity:1"
           id="g3624"
           transform="matrix(0.3,0,0,-0.3,-52.5,222.75)"
           xml:space="preserve"
           stroke-miterlimit="10.433"
           font-style="normal"
           font-variant="normal"
           font-weight="normal"
           font-stretch="normal"
           font-size-adjust="none"
           letter-spacing="normal"
           word-spacing="normal"><path
             style="fill:#000000;stroke-width:0"
             inkscape:connector-curvature="0"
             d="m 475.25,425.14 h -0.14 -0.15 l -0.15,-0.01 h -0.14 l -0.14,-0.01 -0.14,-0.02 -0.07,-0.01 -0.07,-0.01 -0.06,-0.02 -0.07,-0.01 -0.07,-0.02 -0.07,-0.02 -0.07,-0.02 -0.06,-0.02 -0.07,-0.03 -0.07,-0.03 -0.06,-0.03 -0.07,-0.04 -0.07,-0.04 -0.06,-0.04 -0.07,-0.05 -0.07,-0.04 -0.06,-0.06 -0.07,-0.05 -0.06,-0.06 -0.07,-0.07 c -0.8,-0.75 -0.89,-1.59 -0.89,-1.93 0,-1.21 0.89,-1.75 1.84,-1.75 1.44,0 2.8,1.2 2.8,3.18 0,2.44 -2.34,4.28 -5.89,4.28 -6.72,0 -13.34,-7.12 -13.34,-14.14 0,-4.48 2.89,-8.42 8.06,-8.42 7.12,0 11.31,5.28 11.31,5.88 0,0.29 -0.3,0.65 -0.59,0.65 -0.25,0 -0.35,-0.11 -0.66,-0.5 -3.94,-4.93 -9.36,-4.93 -9.95,-4.93 -3.14,0 -4.49,2.43 -4.49,5.43 0,2.03 0.99,6.88 2.69,9.96 1.55,2.84 4.28,4.98 7.02,4.98 1.7,0 3.59,-0.64 4.29,-1.98 z"
             id="path3622" /></g>      </g>
      <g
         transform="matrix(0.65108559,0,0,0.65108559,34.340756,103.98587)"
         id="g3747">
        <g
           style="font-style:normal;font-variant:normal;font-weight:normal;font-stretch:normal;letter-spacing:normal;word-spacing:normal;text-anchor:start;fill:none;fill-opacity:1;fill-rule:evenodd;stroke:#000000;stroke-linecap:butt;stroke-linejoin:miter;stroke-miterlimit:10.43299961;stroke-dasharray:none;stroke-dashoffset:0;stroke-opacity:1"
           id="g3745"
           transform="matrix(0.3,0,0,-0.3,-52.5,222.75)"
           xml:space="preserve"
           stroke-miterlimit="10.433"
           font-style="normal"
           font-variant="normal"
           font-weight="normal"
           font-stretch="normal"
           font-size-adjust="none"
           letter-spacing="normal"
           word-spacing="normal"><path
             style="fill:#000000;stroke-width:0"
             inkscape:connector-curvature="0"
             d="m 481.22,440.23 v 0 0.01 0 0.01 0.02 0.01 0.02 0.02 l -0.01,0.02 v 0.02 l -0.01,0.02 v 0.02 l -0.01,0.02 -0.01,0.03 -0.01,0.02 -0.01,0.03 -0.02,0.02 -0.01,0.03 -0.02,0.02 -0.02,0.02 -0.02,0.03 -0.02,0.01 -0.01,0.01 -0.01,0.01 -0.02,0.01 -0.01,0.01 -0.02,0.01 -0.01,0.01 -0.02,0.01 -0.01,0.01 -0.02,0.01 h -0.02 l -0.02,0.01 -0.02,0.01 h -0.02 l -0.02,0.01 -0.03,0.01 h -0.02 -0.02 l -0.03,0.01 h -0.03 -0.02 l -0.03,0.01 h -0.03 -0.03 c -0.75,0 -5.48,-0.46 -6.33,-0.55 -0.4,-0.05 -0.7,-0.3 -0.7,-0.95 0,-0.6 0.45,-0.6 1.2,-0.6 2.39,0 2.49,-0.34 2.49,-0.84 l -0.14,-1 -3,-11.81 c -0.89,1.84 -2.35,3.18 -4.58,3.18 l 0.05,-1.09 c 3.23,0 3.93,-4.08 3.93,-4.37 0,-0.32 -0.09,-0.61 -0.14,-0.86 l -2.5,-9.77 c -0.25,-0.89 -0.25,-0.98 -1,-1.84 -2.18,-2.74 -4.23,-3.53 -5.62,-3.53 -2.49,0 -3.19,2.73 -3.19,4.68 0,2.49 1.59,8.61 2.74,10.91 1.54,2.94 3.79,4.78 5.78,4.78 l -0.05,1.09 c -5.83,0 -12,-7.31 -12,-14.59 0,-4.69 2.73,-7.97 6.62,-7.97 0.99,0 3.49,0.21 6.47,3.74 0.41,-2.1 2.14,-3.74 4.53,-3.74 1.75,0 2.9,1.14 3.69,2.74 0.85,1.79 1.5,4.84 1.5,4.93 0,0.5 -0.45,0.5 -0.59,0.5 -0.5,0 -0.55,-0.2 -0.7,-0.9 -0.85,-3.24 -1.75,-6.17 -3.79,-6.17 -1.34,0 -1.5,1.29 -1.5,2.29 0,1.19 0.1,1.55 0.3,2.39 z"
             id="path3743" /></g>      </g>
      <g
         transform="matrix(0.65108559,0,0,0.65108559,32.327977,158.83412)"
         id="g3871">
        <g
           style="font-style:normal;font-variant:normal;font-weight:normal;font-stretch:normal;letter-spacing:normal;word-spacing:normal;text-anchor:start;fill:none;fill-opacity:1;fill-rule:evenodd;stroke:#000000;stroke-linecap:butt;stroke-linejoin:miter;stroke-miterlimit:10.43299961;stroke-dasharray:none;stroke-dashoffset:0;stroke-opacity:1"
           id="g3869"
           transform="matrix(0.3,0,0,-0.3,-52.5,222.75)"
           xml:space="preserve"
           stroke-miterlimit="10.433"
           font-style="normal"
           font-variant="normal"
           font-weight="normal"
           font-stretch="normal"
           font-size-adjust="none"
           letter-spacing="normal"
           word-spacing="normal"><path
             style="fill:#000000;stroke-width:0"
             inkscape:connector-curvature="0"
             d="m 464.83,417.71 0.14,0.01 h 0.16 0.17 0.17 l 0.19,0.01 h 0.2 l 0.21,0.01 0.22,0.01 0.22,0.01 0.23,0.01 0.24,0.01 0.25,0.02 0.25,0.02 0.25,0.02 0.53,0.05 0.53,0.07 0.55,0.07 0.54,0.1 0.54,0.11 0.54,0.12 0.26,0.07 0.26,0.08 0.25,0.08 0.25,0.08 0.24,0.09 0.24,0.1 c 3.48,1.5 3.73,4.43 3.73,5.12 0,2.2 -1.89,4.23 -5.33,4.23 v -1.09 c 2.35,0 3.69,-1.44 3.69,-3.14 0,-5.17 -7.97,-5.17 -10.01,-5.17 h -2.05 c 1.95,7.56 7.08,8.31 8.37,8.31 v 1.09 c -5.53,0 -13.04,-4.82 -13.04,-13.54 0,-5.08 2.93,-9.02 7.81,-9.02 7.12,0 11.31,5.28 11.31,5.88 0,0.29 -0.3,0.65 -0.59,0.65 -0.25,0 -0.35,-0.11 -0.66,-0.5 -3.94,-4.93 -9.36,-4.93 -9.95,-4.93 -3.89,0 -4.35,4.18 -4.35,5.78 0,0.59 0.05,2.14 0.8,5.18 z"
             id="path3867" /></g>      </g>
      <g
         transform="matrix(0.65108559,0,0,0.65108559,138.5021,103.14722)"
         id="g3998">
        <g
           style="font-style:normal;font-variant:normal;font-weight:normal;font-stretch:normal;letter-spacing:normal;word-spacing:normal;text-anchor:start;fill:none;fill-opacity:1;fill-rule:evenodd;stroke:#000000;stroke-linecap:butt;stroke-linejoin:miter;stroke-miterlimit:10.43299961;stroke-dasharray:none;stroke-dashoffset:0;stroke-opacity:1"
           id="g3996"
           transform="matrix(0.3,0,0,-0.3,-52.5,222.75)"
           xml:space="preserve"
           stroke-miterlimit="10.433"
           font-style="normal"
           font-variant="normal"
           font-weight="normal"
           font-stretch="normal"
           font-size-adjust="none"
           letter-spacing="normal"
           word-spacing="normal"><path
             style="fill:#000000;stroke-width:0"
             inkscape:connector-curvature="0"
             d="m 473.8,426.12 h 4.28 c 1,0 1.5,0 1.5,1 0,0.55 -0.5,0.55 -1.34,0.55 h -4.14 l 1.04,5.69 c 0.21,1.04 0.91,4.57 1.21,5.17 0.45,0.95 1.29,1.7 2.34,1.7 0.19,0 1.49,0 2.44,-0.91 -2.19,-0.18 -2.69,-1.93 -2.69,-2.68 0,-1.14 0.89,-1.74 1.85,-1.74 1.29,0 2.73,1.1 2.73,2.99 0,2.29 -2.3,3.43 -4.33,3.43 -1.7,0 -4.84,-0.89 -6.33,-5.82 -0.29,-1.05 -0.45,-1.55 -1.64,-7.83 h -3.43 c -0.96,0 -1.5,0 -1.5,-0.94 0,-0.61 0.45,-0.61 1.39,-0.61 h 3.29 l -3.75,-19.67 c -0.89,-4.83 -1.73,-9.38 -4.33,-9.38 -0.2,0 -1.43,0 -2.39,0.91 2.3,0.14 2.74,1.94 2.74,2.69 0,1.14 -0.89,1.75 -1.85,1.75 -1.29,0 -2.73,-1.1 -2.73,-3 0,-2.24 2.19,-3.44 4.23,-3.44 2.74,0 4.74,2.94 5.63,4.84 1.59,3.14 2.75,9.16 2.8,9.52 z"
             id="path3994" /></g>      </g>
      <g
         transform="matrix(0.49374636,0,0,0.49374636,3.1643571,89.51218)"
         id="g4132">
        <g
           style="font-style:normal;font-variant:normal;font-weight:normal;font-stretch:normal;letter-spacing:normal;word-spacing:normal;text-anchor:start;fill:none;fill-opacity:1;fill-rule:evenodd;stroke:#000000;stroke-linecap:butt;stroke-linejoin:miter;stroke-miterlimit:10.43299961;stroke-dasharray:none;stroke-dashoffset:0;stroke-opacity:1"
           id="g4130"
           transform="matrix(0.3,0,0,-0.3,-52.5,222.75)"
           xml:space="preserve"
           stroke-miterlimit="10.433"
           font-style="normal"
           font-variant="normal"
           font-weight="normal"
           font-stretch="normal"
           font-size-adjust="none"
           letter-spacing="normal"
           word-spacing="normal"><path
             style="fill:#000000;stroke-width:0"
             inkscape:connector-curvature="0"
             d="m 482.47,436.59 0.04,0.15 0.04,0.14 0.03,0.14 0.04,0.13 0.03,0.12 0.04,0.12 0.04,0.11 0.04,0.11 0.04,0.1 0.04,0.09 0.05,0.09 0.05,0.08 0.06,0.08 0.06,0.07 0.07,0.07 0.08,0.06 0.08,0.06 0.09,0.05 0.09,0.05 0.11,0.04 0.11,0.04 0.13,0.04 0.13,0.03 0.07,0.01 0.08,0.02 0.07,0.01 0.08,0.01 0.08,0.01 0.09,0.01 0.09,0.01 0.09,0.01 0.09,0.01 h 0.1 l 0.1,0.01 h 0.11 l 0.1,0.01 h 0.11 0.12 0.12 0.12 0.13 c 0.79,0 1.34,0 1.34,0.96 0,0.43 -0.3,0.59 -0.69,0.59 -1.25,0 -4.28,-0.16 -5.53,-0.16 -1.64,0 -5.69,0.16 -7.33,0.16 -0.45,0 -1.04,0 -1.04,-1 0,-0.55 0.4,-0.55 1.7,-0.55 1.14,0 1.64,0 2.88,-0.09 1.2,-0.16 1.54,-0.31 1.54,-1 0,-0.3 -0.09,-0.66 -0.19,-1.05 l -5.73,-22.87 c -1.2,-4.83 -4.58,-7.47 -7.17,-7.47 -1.3,0 -3.94,0.5 -4.74,3.09 0.14,-0.04 0.5,-0.04 0.6,-0.04 1.94,0 3.23,1.68 3.23,3.18 0,1.6 -1.34,2.08 -2.19,2.08 -0.89,0 -3.34,-0.59 -3.34,-3.98 0,-3.08 2.64,-5.42 6.58,-5.42 4.59,0 9.76,3.28 11.01,8.21 z"
             id="path4124" /><path
             style="fill:#000000;stroke-width:0"
             inkscape:connector-curvature="0"
             d="m 492.32,421.9 0.01,0.01 v 0 0 0.01 0 0.01 l 0.01,0.01 v 0 0.01 0.01 l 0.01,0.01 v 0.02 l 0.01,0.02 v 0.02 l 0.01,0.02 0.01,0.02 v 0.02 l 0.01,0.03 v 0.02 l 0.02,0.05 0.01,0.04 v 0.03 l 0.01,0.02 v 0.02 l 0.01,0.02 v 0.02 l 0.01,0.02 v 0.02 0.01 l 0.01,0.01 v 0.01 0 0.01 0 0.01 0 0.01 0 0 0.01 0 c 0,0.19 -0.14,0.5 -0.56,0.5 -0.7,0 -3.59,-0.28 -4.45,-0.36 -0.28,-0.03 -0.78,-0.06 -0.78,-0.8 0,-0.48 0.5,-0.48 0.9,-0.48 1.68,0 1.68,-0.25 1.68,-0.53 0,-0.24 -0.35,-1.63 -0.55,-2.44 l -0.8,-3.2 c -0.33,-1.19 -2.23,-8.82 -2.31,-9.27 -0.17,-0.84 -0.17,-1.3 -0.17,-1.7 0,-3.53 2.23,-5.75 5.12,-5.75 l 0.03,0.97 c -1.7,0 -2.67,1.5 -2.67,3.56 0,1.28 0.31,2.47 1.28,6.41 0.21,0.65 0.21,0.73 0.88,1.5 1.33,1.53 2.89,2.29 4.14,2.29 1.36,0 2.55,-1.01 2.55,-3.37 0,-1.44 -0.77,-4.99 -1.82,-7.02 -0.84,-1.7 -2.57,-3.37 -4.36,-3.37 v 0 l -0.03,-0.97 c 4.36,0 8.99,4.73 8.99,9.89 0,4.08 -2.82,5.81 -5.22,5.81 -1.81,0 -3.35,-1 -4.39,-1.91 z"
             id="path4126" /><path
             style="fill:#000000;stroke-width:0"
             inkscape:connector-curvature="0"
             d="m 515.91,412.11 -0.12,-0.03 -0.11,-0.02 -0.11,-0.03 -0.1,-0.04 -0.1,-0.03 -0.1,-0.04 -0.09,-0.05 -0.09,-0.05 -0.08,-0.05 -0.08,-0.05 -0.07,-0.06 -0.07,-0.06 -0.07,-0.06 -0.06,-0.07 -0.06,-0.06 -0.06,-0.07 -0.05,-0.07 -0.05,-0.07 -0.04,-0.07 -0.05,-0.08 -0.03,-0.07 -0.04,-0.08 -0.03,-0.07 -0.02,-0.08 -0.03,-0.07 -0.02,-0.08 -0.02,-0.08 -0.01,-0.07 -0.01,-0.08 -0.01,-0.07 v -0.08 l -0.01,-0.07 c 0,-0.94 0.74,-1.28 1.36,-1.28 0.77,0 1.99,0.55 1.99,2.22 0,2.37 -2.72,3.03 -4.59,3.03 -5.24,0 -10.08,-4.8 -10.08,-9.64 0,-3 2.09,-6.06 6.45,-6.06 5.89,0 8.64,3.44 8.64,3.94 0,0.2 -0.31,0.59 -0.59,0.59 -0.21,0 -0.28,-0.08 -0.57,-0.36 -2.71,-3.2 -6.79,-3.2 -7.42,-3.2 -2.5,0 -3.62,1.7 -3.62,3.87 0,1 0.5,4.8 2.31,7.2 1.31,1.72 3.12,2.69 4.88,2.69 0.48,0 2.15,-0.06 3.03,-1.04 z"
             id="path4128" /></g>      </g>
      <g
         transform="matrix(0.49374636,0,0,0.49374636,18.380157,122.5996)"
         id="g4273">
        <g
           style="font-style:normal;font-variant:normal;font-weight:normal;font-stretch:normal;letter-spacing:normal;word-spacing:normal;text-anchor:start;fill:none;fill-opacity:1;fill-rule:evenodd;stroke:#000000;stroke-linecap:butt;stroke-linejoin:miter;stroke-miterlimit:10.43299961;stroke-dasharray:none;stroke-dashoffset:0;stroke-opacity:1"
           id="g4271"
           transform="matrix(0.3,0,0,-0.3,-52.5,222.75)"
           xml:space="preserve"
           stroke-miterlimit="10.433"
           font-style="normal"
           font-variant="normal"
           font-weight="normal"
           font-stretch="normal"
           font-size-adjust="none"
           letter-spacing="normal"
           word-spacing="normal"><path
             style="fill:#000000;stroke-width:0"
             inkscape:connector-curvature="0"
             d="m 482.47,436.59 0.04,0.15 0.04,0.14 0.03,0.14 0.04,0.13 0.03,0.12 0.04,0.12 0.04,0.11 0.04,0.11 0.04,0.1 0.04,0.09 0.05,0.09 0.05,0.08 0.06,0.08 0.06,0.07 0.07,0.07 0.08,0.06 0.08,0.06 0.09,0.05 0.09,0.05 0.11,0.04 0.11,0.04 0.13,0.04 0.13,0.03 0.07,0.01 0.08,0.02 0.07,0.01 0.08,0.01 0.08,0.01 0.09,0.01 0.09,0.01 0.09,0.01 0.09,0.01 h 0.1 l 0.1,0.01 h 0.11 l 0.1,0.01 h 0.11 0.12 0.12 0.12 0.13 c 0.79,0 1.34,0 1.34,0.96 0,0.43 -0.3,0.59 -0.69,0.59 -1.25,0 -4.28,-0.16 -5.53,-0.16 -1.64,0 -5.69,0.16 -7.33,0.16 -0.45,0 -1.04,0 -1.04,-1 0,-0.55 0.4,-0.55 1.7,-0.55 1.14,0 1.64,0 2.88,-0.09 1.2,-0.16 1.54,-0.31 1.54,-1 0,-0.3 -0.09,-0.66 -0.19,-1.05 l -5.73,-22.87 c -1.2,-4.83 -4.58,-7.47 -7.17,-7.47 -1.3,0 -3.94,0.5 -4.74,3.09 0.14,-0.04 0.5,-0.04 0.6,-0.04 1.94,0 3.23,1.68 3.23,3.18 0,1.6 -1.34,2.08 -2.19,2.08 -0.89,0 -3.34,-0.59 -3.34,-3.98 0,-3.08 2.64,-5.42 6.58,-5.42 4.59,0 9.76,3.28 11.01,8.21 z"
             id="path4265" /><path
             style="fill:#000000;stroke-width:0"
             inkscape:connector-curvature="0"
             d="m 492.32,421.9 0.01,0.01 v 0 0 0.01 0 0.01 l 0.01,0.01 v 0 0.01 0.01 l 0.01,0.01 v 0.02 l 0.01,0.02 v 0.02 l 0.01,0.02 0.01,0.02 v 0.02 l 0.01,0.03 v 0.02 l 0.02,0.05 0.01,0.04 v 0.03 l 0.01,0.02 v 0.02 l 0.01,0.02 v 0.02 l 0.01,0.02 v 0.02 0.01 l 0.01,0.01 v 0.01 0 0.01 0 0.01 0 0.01 0 0 0.01 0 c 0,0.19 -0.14,0.5 -0.56,0.5 -0.7,0 -3.59,-0.28 -4.45,-0.36 -0.28,-0.03 -0.78,-0.06 -0.78,-0.8 0,-0.48 0.5,-0.48 0.9,-0.48 1.68,0 1.68,-0.25 1.68,-0.53 0,-0.24 -0.35,-1.63 -0.55,-2.44 l -0.8,-3.2 c -0.33,-1.19 -2.23,-8.82 -2.31,-9.27 -0.17,-0.84 -0.17,-1.3 -0.17,-1.7 0,-3.53 2.23,-5.75 5.12,-5.75 l 0.03,0.97 c -1.7,0 -2.67,1.5 -2.67,3.56 0,1.28 0.31,2.47 1.28,6.41 0.21,0.65 0.21,0.73 0.88,1.5 1.33,1.53 2.89,2.29 4.14,2.29 1.36,0 2.55,-1.01 2.55,-3.37 0,-1.44 -0.77,-4.99 -1.82,-7.02 -0.84,-1.7 -2.57,-3.37 -4.36,-3.37 v 0 l -0.03,-0.97 c 4.36,0 8.99,4.73 8.99,9.89 0,4.08 -2.82,5.81 -5.22,5.81 -1.81,0 -3.35,-1 -4.39,-1.91 z"
             id="path4267" /><path
             style="fill:#000000;stroke-width:0"
             inkscape:connector-curvature="0"
             d="m 520.53,421.9 v 0.01 h 0.01 v 0 0.01 0 l 0.01,0.01 v 0.01 0 0.01 l 0.01,0.01 v 0.01 l 0.01,0.02 v 0.02 l 0.01,0.02 v 0.02 l 0.01,0.02 0.01,0.02 v 0.03 l 0.01,0.02 0.01,0.05 v 0.02 l 0.01,0.02 v 0.03 l 0.01,0.02 v 0.02 l 0.01,0.02 v 0.02 l 0.01,0.02 v 0.02 0.01 0.01 l 0.01,0.01 v 0 0.01 0 0.01 0 0.01 0 0 0.01 0 c 0,0.19 -0.14,0.5 -0.55,0.5 -0.7,0 -3.59,-0.28 -4.46,-0.36 -0.28,-0.03 -0.77,-0.06 -0.77,-0.8 0,-0.48 0.49,-0.48 0.91,-0.48 1.67,0 1.67,-0.25 1.67,-0.53 0,-0.24 -0.06,-0.46 -0.14,-0.77 l -1.99,-7.94 c -0.73,1.14 -1.92,2.05 -3.59,2.05 v -0.97 c 2.44,0 3.11,-2.64 3.11,-3.03 0,-0.14 -0.08,-0.39 -0.11,-0.48 l -1.64,-6.52 c -0.23,-0.98 -1,-1.67 -1.77,-2.34 -0.31,-0.27 -1.72,-1.39 -3.22,-1.39 -1.28,0 -2.53,0.9 -2.53,3.37 0,1.86 1,5.69 1.82,7.08 1.59,2.8 3.37,3.31 4.34,3.31 v 0.97 c -4.45,0 -8.98,-4.91 -8.98,-9.92 0,-3.38 2.26,-5.78 5.26,-5.78 1.88,0 3.55,1.08 4.94,2.44 0.67,-2.1 2.69,-2.44 3.59,-2.44 1.25,0 2.13,0.76 2.75,1.84 0.77,1.36 1.22,3.35 1.22,3.49 0,0.45 -0.45,0.45 -0.55,0.45 -0.5,0 -0.53,-0.14 -0.76,-1.08 -0.42,-1.67 -1.1,-3.73 -2.55,-3.73 -0.9,0 -1.15,0.76 -1.15,1.7 0,0.67 0.07,0.98 0.17,1.44 z"
             id="path4269" /></g>      </g>
      <g
         transform="matrix(0.49374636,0,0,0.49374636,-7.1790849,162.55854)"
         id="g4419">
        <g
           style="font-style:normal;font-variant:normal;font-weight:normal;font-stretch:normal;letter-spacing:normal;word-spacing:normal;text-anchor:start;fill:none;fill-opacity:1;fill-rule:evenodd;stroke:#000000;stroke-linecap:butt;stroke-linejoin:miter;stroke-miterlimit:10.43299961;stroke-dasharray:none;stroke-dashoffset:0;stroke-opacity:1"
           id="g4417"
           transform="matrix(0.3,0,0,-0.3,-52.5,222.75)"
           xml:space="preserve"
           stroke-miterlimit="10.433"
           font-style="normal"
           font-variant="normal"
           font-weight="normal"
           font-stretch="normal"
           font-size-adjust="none"
           letter-spacing="normal"
           word-spacing="normal"><path
             style="fill:#000000;stroke-width:0"
             inkscape:connector-curvature="0"
             d="m 482.47,436.59 0.04,0.15 0.04,0.14 0.03,0.14 0.04,0.13 0.03,0.12 0.04,0.12 0.04,0.11 0.04,0.11 0.04,0.1 0.04,0.09 0.05,0.09 0.05,0.08 0.06,0.08 0.06,0.07 0.07,0.07 0.08,0.06 0.08,0.06 0.09,0.05 0.09,0.05 0.11,0.04 0.11,0.04 0.13,0.04 0.13,0.03 0.07,0.01 0.08,0.02 0.07,0.01 0.08,0.01 0.08,0.01 0.09,0.01 0.09,0.01 0.09,0.01 0.09,0.01 h 0.1 l 0.1,0.01 h 0.11 l 0.1,0.01 h 0.11 0.12 0.12 0.12 0.13 c 0.79,0 1.34,0 1.34,0.96 0,0.43 -0.3,0.59 -0.69,0.59 -1.25,0 -4.28,-0.16 -5.53,-0.16 -1.64,0 -5.69,0.16 -7.33,0.16 -0.45,0 -1.04,0 -1.04,-1 0,-0.55 0.4,-0.55 1.7,-0.55 1.14,0 1.64,0 2.88,-0.09 1.2,-0.16 1.54,-0.31 1.54,-1 0,-0.3 -0.09,-0.66 -0.19,-1.05 l -5.73,-22.87 c -1.2,-4.83 -4.58,-7.47 -7.17,-7.47 -1.3,0 -3.94,0.5 -4.74,3.09 0.14,-0.04 0.5,-0.04 0.6,-0.04 1.94,0 3.23,1.68 3.23,3.18 0,1.6 -1.34,2.08 -2.19,2.08 -0.89,0 -3.34,-0.59 -3.34,-3.98 0,-3.08 2.64,-5.42 6.58,-5.42 4.59,0 9.76,3.28 11.01,8.21 z"
             id="path4411" /><path
             style="fill:#000000;stroke-width:0"
             inkscape:connector-curvature="0"
             d="m 492.32,421.9 0.01,0.01 v 0 0 0.01 0 0.01 l 0.01,0.01 v 0 0.01 0.01 l 0.01,0.01 v 0.02 l 0.01,0.02 v 0.02 l 0.01,0.02 0.01,0.02 v 0.02 l 0.01,0.03 v 0.02 l 0.02,0.05 0.01,0.04 v 0.03 l 0.01,0.02 v 0.02 l 0.01,0.02 v 0.02 l 0.01,0.02 v 0.02 0.01 l 0.01,0.01 v 0.01 0 0.01 0 0.01 0 0.01 0 0 0.01 0 c 0,0.19 -0.14,0.5 -0.56,0.5 -0.7,0 -3.59,-0.28 -4.45,-0.36 -0.28,-0.03 -0.78,-0.06 -0.78,-0.8 0,-0.48 0.5,-0.48 0.9,-0.48 1.68,0 1.68,-0.25 1.68,-0.53 0,-0.24 -0.35,-1.63 -0.55,-2.44 l -0.8,-3.2 c -0.33,-1.19 -2.23,-8.82 -2.31,-9.27 -0.17,-0.84 -0.17,-1.3 -0.17,-1.7 0,-3.53 2.23,-5.75 5.12,-5.75 l 0.03,0.97 c -1.7,0 -2.67,1.5 -2.67,3.56 0,1.28 0.31,2.47 1.28,6.41 0.21,0.65 0.21,0.73 0.88,1.5 1.33,1.53 2.89,2.29 4.14,2.29 1.36,0 2.55,-1.01 2.55,-3.37 0,-1.44 -0.77,-4.99 -1.82,-7.02 -0.84,-1.7 -2.57,-3.37 -4.36,-3.37 v 0 l -0.03,-0.97 c 4.36,0 8.99,4.73 8.99,9.89 0,4.08 -2.82,5.81 -5.22,5.81 -1.81,0 -3.35,-1 -4.39,-1.91 z"
             id="path4413" /><path
             style="fill:#000000;stroke-width:0"
             inkscape:connector-curvature="0"
             d="m 508.45,406.7 h 0.1 0.1 0.12 0.12 l 0.14,0.01 h 0.14 l 0.15,0.01 h 0.15 l 0.16,0.01 0.17,0.01 0.18,0.01 0.18,0.01 0.18,0.01 0.19,0.02 0.38,0.03 0.4,0.04 0.4,0.05 0.41,0.06 0.4,0.07 0.41,0.08 0.19,0.05 0.2,0.04 0.19,0.05 0.19,0.06 0.18,0.05 0.18,0.06 c 2.58,0.91 3.06,2.58 3.06,3.63 0,1.92 -1.92,3.06 -4.32,3.06 v -0.97 c 1.53,0 2.82,-0.76 2.82,-2.09 0,-3.38 -5.89,-3.38 -7.39,-3.38 h -1.7 c 1.42,5.05 5.3,5.47 6.27,5.47 v 0.97 c -4.18,0 -9.83,-3.2 -9.83,-9.16 0,-3.51 2.2,-6.54 6.28,-6.54 5.89,0 8.64,3.44 8.64,3.94 0,0.2 -0.31,0.59 -0.59,0.59 -0.21,0 -0.28,-0.08 -0.57,-0.36 -2.71,-3.2 -6.79,-3.2 -7.42,-3.2 -2.09,0 -3.48,1.39 -3.48,4.22 0,0.48 0,1.18 0.42,3.09 z"
             id="path4415" /></g>      </g>
      <g
         transform="matrix(0.49374636,0,0,0.49374636,100.09564,77.169239)"
         id="g4572">
        <g
           style="font-style:normal;font-variant:normal;font-weight:normal;font-stretch:normal;letter-spacing:normal;word-spacing:normal;text-anchor:start;fill:none;fill-opacity:1;fill-rule:evenodd;stroke:#000000;stroke-linecap:butt;stroke-linejoin:miter;stroke-miterlimit:10.43299961;stroke-dasharray:none;stroke-dashoffset:0;stroke-opacity:1"
           id="g4570"
           transform="matrix(0.3,0,0,-0.3,-52.5,222.75)"
           xml:space="preserve"
           stroke-miterlimit="10.433"
           font-style="normal"
           font-variant="normal"
           font-weight="normal"
           font-stretch="normal"
           font-size-adjust="none"
           letter-spacing="normal"
           word-spacing="normal"><path
             style="fill:#000000;stroke-width:0"
             inkscape:connector-curvature="0"
             d="m 482.47,436.59 0.04,0.15 0.04,0.14 0.03,0.14 0.04,0.13 0.03,0.12 0.04,0.12 0.04,0.11 0.04,0.11 0.04,0.1 0.04,0.09 0.05,0.09 0.05,0.08 0.06,0.08 0.06,0.07 0.07,0.07 0.08,0.06 0.08,0.06 0.09,0.05 0.09,0.05 0.11,0.04 0.11,0.04 0.13,0.04 0.13,0.03 0.07,0.01 0.08,0.02 0.07,0.01 0.08,0.01 0.08,0.01 0.09,0.01 0.09,0.01 0.09,0.01 0.09,0.01 h 0.1 l 0.1,0.01 h 0.11 l 0.1,0.01 h 0.11 0.12 0.12 0.12 0.13 c 0.79,0 1.34,0 1.34,0.96 0,0.43 -0.3,0.59 -0.69,0.59 -1.25,0 -4.28,-0.16 -5.53,-0.16 -1.64,0 -5.69,0.16 -7.33,0.16 -0.45,0 -1.04,0 -1.04,-1 0,-0.55 0.4,-0.55 1.7,-0.55 1.14,0 1.64,0 2.88,-0.09 1.2,-0.16 1.54,-0.31 1.54,-1 0,-0.3 -0.09,-0.66 -0.19,-1.05 l -5.73,-22.87 c -1.2,-4.83 -4.58,-7.47 -7.17,-7.47 -1.3,0 -3.94,0.5 -4.74,3.09 0.14,-0.04 0.5,-0.04 0.6,-0.04 1.94,0 3.23,1.68 3.23,3.18 0,1.6 -1.34,2.08 -2.19,2.08 -0.89,0 -3.34,-0.59 -3.34,-3.98 0,-3.08 2.64,-5.42 6.58,-5.42 4.59,0 9.76,3.28 11.01,8.21 z"
             id="path4562" /><path
             style="fill:#000000;stroke-width:0"
             inkscape:connector-curvature="0"
             d="m 499.17,432.87 0.27,0.12 0.25,0.11 0.25,0.11 0.23,0.1 0.23,0.1 0.22,0.1 0.22,0.09 0.2,0.09 0.2,0.08 0.19,0.08 0.18,0.08 0.18,0.07 0.17,0.08 0.16,0.06 0.16,0.07 0.15,0.06 0.14,0.06 0.14,0.06 0.14,0.06 0.13,0.05 0.12,0.06 0.12,0.05 0.11,0.05 0.11,0.04 0.11,0.05 0.1,0.04 0.19,0.09 0.18,0.08 0.17,0.08 c 0.67,0.27 0.98,0.41 0.98,1.08 0,0.59 -0.45,1.11 -1.08,1.11 -0.25,0 -0.31,0 -0.73,-0.31 l -4.74,-3.17 0.52,5.15 c 0.08,0.63 0,1.5 -1.05,1.5 -0.42,0 -1.07,-0.28 -1.07,-1.04 0,-0.32 0.14,-1.36 0.17,-1.71 0.08,-0.59 0.31,-3.11 0.39,-3.9 l -4.7,3.17 c -0.36,0.2 -0.46,0.31 -0.77,0.31 -0.64,0 -1.09,-0.52 -1.09,-1.11 0,-0.7 0.42,-0.87 0.73,-1.01 l 5.27,-2.19 c -2.86,-1.27 -4.14,-1.75 -5.02,-2.17 -0.66,-0.29 -0.98,-0.43 -0.98,-1.08 0,-0.6 0.45,-1.11 1.09,-1.11 0.23,0 0.31,0 0.72,0.31 l 4.75,3.17 -0.56,-5.61 c 0,-0.76 0.65,-1.04 1.07,-1.04 0.43,0 1.08,0.28 1.08,1.04 0,0.32 -0.14,1.36 -0.17,1.71 -0.06,0.59 -0.31,3.09 -0.38,3.9 l 4.18,-2.79 c 0.9,-0.69 0.98,-0.69 1.29,-0.69 0.63,0 1.08,0.51 1.08,1.11 0,0.7 -0.42,0.87 -0.73,1.01 z"
             id="path4564" /><path
             style="fill:#000000;stroke-width:0"
             inkscape:connector-curvature="0"
             d="m 498.39,405.38 -0.12,-0.02 -0.11,-0.02 -0.11,-0.03 -0.1,-0.04 -0.1,-0.04 -0.1,-0.04 -0.09,-0.04 -0.09,-0.05 -0.08,-0.05 -0.08,-0.06 -0.07,-0.05 -0.07,-0.06 -0.07,-0.06 -0.06,-0.07 -0.06,-0.06 -0.06,-0.07 -0.05,-0.07 -0.05,-0.07 -0.04,-0.08 -0.04,-0.07 -0.04,-0.07 -0.04,-0.08 -0.03,-0.07 -0.02,-0.08 -0.03,-0.08 -0.02,-0.07 -0.02,-0.08 -0.01,-0.07 -0.01,-0.08 -0.01,-0.07 v -0.08 -0.07 c 0,-0.94 0.73,-1.28 1.35,-1.28 0.77,0 1.99,0.55 1.99,2.22 0,2.37 -2.72,3.03 -4.59,3.03 -5.24,0 -10.08,-4.8 -10.08,-9.64 0,-3 2.09,-6.06 6.45,-6.06 5.89,0 8.64,3.43 8.64,3.93 0,0.21 -0.31,0.6 -0.59,0.6 -0.21,0 -0.28,-0.08 -0.57,-0.36 -2.71,-3.21 -6.79,-3.21 -7.42,-3.21 -2.5,0 -3.62,1.71 -3.62,3.88 0,1 0.5,4.8 2.31,7.2 1.31,1.72 3.13,2.69 4.88,2.69 0.48,0 2.15,-0.06 3.03,-1.05 z"
             id="path4566" /><path
             style="fill:#000000;stroke-width:0"
             inkscape:connector-curvature="0"
             d="m 515.07,405.8 h 3.4 c 0.71,0 1.16,0 1.16,0.77 0,0.48 -0.45,0.48 -1.08,0.48 h -3.25 c 0.81,4.43 1.08,6.04 1.36,7.05 0.17,0.77 0.94,1.5 1.78,1.5 0.03,0 0.97,0 1.64,-0.42 -1.43,-0.45 -1.53,-1.72 -1.53,-1.92 0,-0.77 0.6,-1.28 1.39,-1.28 0.94,0 1.99,0.79 1.99,2.12 0,1.6 -1.71,2.47 -3.49,2.47 -1.53,0 -3.23,-0.87 -4.19,-2.61 -0.68,-1.3 -0.97,-2.86 -1.7,-6.91 h -2.75 c -0.7,0 -1.16,0 -1.16,-0.76 0,-0.49 0.46,-0.49 1.08,-0.49 h 2.58 c -0.03,-0.21 -2.22,-12.75 -3.06,-16.48 -0.17,-0.77 -0.77,-3.41 -2.44,-3.41 -0.03,0 -0.87,0 -1.53,0.41 1.42,0.45 1.53,1.72 1.53,1.92 0,0.77 -0.59,1.28 -1.39,1.28 -0.94,0 -1.98,-0.79 -1.98,-2.12 0,-1.56 1.64,-2.47 3.37,-2.47 2.24,0 3.77,2.3 4.19,3.06 1.25,2.35 2.04,6.63 2.12,7.05 z"
             id="path4568" /></g>      </g>
      <g
         transform="matrix(0.49374636,0,0,0.49374636,88.95491,123.37055)"
         id="g4732">
        <g
           style="font-style:normal;font-variant:normal;font-weight:normal;font-stretch:normal;letter-spacing:normal;word-spacing:normal;text-anchor:start;fill:none;fill-opacity:1;fill-rule:evenodd;stroke:#000000;stroke-linecap:butt;stroke-linejoin:miter;stroke-miterlimit:10.43299961;stroke-dasharray:none;stroke-dashoffset:0;stroke-opacity:1"
           id="g4730"
           transform="matrix(0.3,0,0,-0.3,-52.5,222.75)"
           xml:space="preserve"
           stroke-miterlimit="10.433"
           font-style="normal"
           font-variant="normal"
           font-weight="normal"
           font-stretch="normal"
           font-size-adjust="none"
           letter-spacing="normal"
           word-spacing="normal"><path
             style="fill:#000000;stroke-width:0"
             inkscape:connector-curvature="0"
             d="m 482.47,436.59 0.04,0.15 0.04,0.14 0.03,0.14 0.04,0.13 0.03,0.12 0.04,0.12 0.04,0.11 0.04,0.11 0.04,0.1 0.04,0.09 0.05,0.09 0.05,0.08 0.06,0.08 0.06,0.07 0.07,0.07 0.08,0.06 0.08,0.06 0.09,0.05 0.09,0.05 0.11,0.04 0.11,0.04 0.13,0.04 0.13,0.03 0.07,0.01 0.08,0.02 0.07,0.01 0.08,0.01 0.08,0.01 0.09,0.01 0.09,0.01 0.09,0.01 0.09,0.01 h 0.1 l 0.1,0.01 h 0.11 l 0.1,0.01 h 0.11 0.12 0.12 0.12 0.13 c 0.79,0 1.34,0 1.34,0.96 0,0.43 -0.3,0.59 -0.69,0.59 -1.25,0 -4.28,-0.16 -5.53,-0.16 -1.64,0 -5.69,0.16 -7.33,0.16 -0.45,0 -1.04,0 -1.04,-1 0,-0.55 0.4,-0.55 1.7,-0.55 1.14,0 1.64,0 2.88,-0.09 1.2,-0.16 1.54,-0.31 1.54,-1 0,-0.3 -0.09,-0.66 -0.19,-1.05 l -5.73,-22.87 c -1.2,-4.83 -4.58,-7.47 -7.17,-7.47 -1.3,0 -3.94,0.5 -4.74,3.09 0.14,-0.04 0.5,-0.04 0.6,-0.04 1.94,0 3.23,1.68 3.23,3.18 0,1.6 -1.34,2.08 -2.19,2.08 -0.89,0 -3.34,-0.59 -3.34,-3.98 0,-3.08 2.64,-5.42 6.58,-5.42 4.59,0 9.76,3.28 11.01,8.21 z"
             id="path4722" /><path
             style="fill:#000000;stroke-width:0"
             inkscape:connector-curvature="0"
             d="m 499.17,432.87 0.27,0.12 0.25,0.11 0.25,0.11 0.23,0.1 0.23,0.1 0.22,0.1 0.22,0.09 0.2,0.09 0.2,0.08 0.19,0.08 0.18,0.08 0.18,0.07 0.17,0.08 0.16,0.06 0.16,0.07 0.15,0.06 0.14,0.06 0.14,0.06 0.14,0.06 0.13,0.05 0.12,0.06 0.12,0.05 0.11,0.05 0.11,0.04 0.11,0.05 0.1,0.04 0.19,0.09 0.18,0.08 0.17,0.08 c 0.67,0.27 0.98,0.41 0.98,1.08 0,0.59 -0.45,1.11 -1.08,1.11 -0.25,0 -0.31,0 -0.73,-0.31 l -4.74,-3.17 0.52,5.15 c 0.08,0.63 0,1.5 -1.05,1.5 -0.42,0 -1.07,-0.28 -1.07,-1.04 0,-0.32 0.14,-1.36 0.17,-1.71 0.08,-0.59 0.31,-3.11 0.39,-3.9 l -4.7,3.17 c -0.36,0.2 -0.46,0.31 -0.77,0.31 -0.64,0 -1.09,-0.52 -1.09,-1.11 0,-0.7 0.42,-0.87 0.73,-1.01 l 5.27,-2.19 c -2.86,-1.27 -4.14,-1.75 -5.02,-2.17 -0.66,-0.29 -0.98,-0.43 -0.98,-1.08 0,-0.6 0.45,-1.11 1.09,-1.11 0.23,0 0.31,0 0.72,0.31 l 4.75,3.17 -0.56,-5.61 c 0,-0.76 0.65,-1.04 1.07,-1.04 0.43,0 1.08,0.28 1.08,1.04 0,0.32 -0.14,1.36 -0.17,1.71 -0.06,0.59 -0.31,3.09 -0.38,3.9 l 4.18,-2.79 c 0.9,-0.69 0.98,-0.69 1.29,-0.69 0.63,0 1.08,0.51 1.08,1.11 0,0.7 -0.42,0.87 -0.73,1.01 z"
             id="path4724" /><path
             style="fill:#000000;stroke-width:0"
             inkscape:connector-curvature="0"
             d="m 503.01,415.18 v 0 l 0.01,0.01 v 0 0.01 0 l 0.01,0.01 v 0 0.01 0.01 h 0.01 v 0.02 l 0.01,0.02 v 0.02 l 0.01,0.02 0.01,0.02 v 0.02 l 0.01,0.02 v 0.02 l 0.01,0.03 0.01,0.04 0.01,0.03 v 0.02 l 0.01,0.02 v 0.03 0.02 l 0.01,0.02 v 0.02 l 0.01,0.02 v 0.01 0.02 0.01 h 0.01 v 0.01 0.01 0 0.01 0 0.01 0 0 0.01 0 c 0,0.18 -0.14,0.5 -0.54,0.5 -0.71,0 -3.6,-0.28 -4.47,-0.36 -0.28,-0.03 -0.77,-0.07 -0.77,-0.8 0,-0.48 0.49,-0.48 0.91,-0.48 1.67,0 1.67,-0.25 1.67,-0.54 0,-0.23 -0.06,-0.45 -0.14,-0.76 l -1.99,-7.94 c -0.73,1.14 -1.92,2.05 -3.59,2.05 v -0.97 c 2.44,0 3.11,-2.64 3.11,-3.03 0,-0.14 -0.08,-0.39 -0.11,-0.49 l -1.64,-6.51 c -0.23,-0.99 -1,-1.67 -1.77,-2.35 -0.31,-0.26 -1.71,-1.39 -3.21,-1.39 -1.29,0 -2.54,0.91 -2.54,3.38 0,1.86 1,5.69 1.82,7.08 1.59,2.79 3.37,3.31 4.34,3.31 v 0.97 c -4.45,0 -8.98,-4.91 -8.98,-9.92 0,-3.38 2.26,-5.78 5.26,-5.78 1.88,0 3.55,1.07 4.94,2.43 0.67,-2.09 2.69,-2.43 3.59,-2.43 1.25,0 2.13,0.76 2.75,1.84 0.77,1.36 1.22,3.34 1.22,3.48 0,0.46 -0.45,0.46 -0.55,0.46 -0.5,0 -0.53,-0.14 -0.76,-1.08 -0.42,-1.67 -1.09,-3.74 -2.55,-3.74 -0.9,0 -1.15,0.77 -1.15,1.71 0,0.67 0.07,0.98 0.17,1.43 z"
             id="path4726" /><path
             style="fill:#000000;stroke-width:0"
             inkscape:connector-curvature="0"
             d="m 511.59,405.8 h 3.4 c 0.71,0 1.16,0 1.16,0.77 0,0.48 -0.45,0.48 -1.08,0.48 h -3.25 c 0.81,4.43 1.08,6.04 1.36,7.05 0.17,0.77 0.94,1.5 1.78,1.5 0.03,0 0.97,0 1.64,-0.42 -1.44,-0.45 -1.53,-1.72 -1.53,-1.92 0,-0.77 0.59,-1.28 1.39,-1.28 0.94,0 1.99,0.79 1.99,2.12 0,1.6 -1.71,2.47 -3.49,2.47 -1.53,0 -3.23,-0.87 -4.19,-2.61 -0.68,-1.3 -0.97,-2.86 -1.7,-6.91 h -2.75 c -0.7,0 -1.16,0 -1.16,-0.76 0,-0.49 0.46,-0.49 1.08,-0.49 h 2.58 c -0.03,-0.21 -2.22,-12.75 -3.06,-16.48 -0.17,-0.77 -0.77,-3.41 -2.44,-3.41 -0.03,0 -0.87,0 -1.53,0.41 1.42,0.45 1.53,1.72 1.53,1.92 0,0.77 -0.59,1.28 -1.39,1.28 -0.94,0 -1.98,-0.79 -1.98,-2.12 0,-1.56 1.64,-2.47 3.37,-2.47 2.23,0 3.77,2.3 4.19,3.06 1.25,2.35 2.04,6.63 2.12,7.05 z"
             id="path4728" /></g>      </g>
      <g
         transform="matrix(0.49374636,0,0,0.49374636,105.74708,163.23373)"
         id="g4898">
        <g
           style="font-style:normal;font-variant:normal;font-weight:normal;font-stretch:normal;letter-spacing:normal;word-spacing:normal;text-anchor:start;fill:none;fill-opacity:1;fill-rule:evenodd;stroke:#000000;stroke-linecap:butt;stroke-linejoin:miter;stroke-miterlimit:10.43299961;stroke-dasharray:none;stroke-dashoffset:0;stroke-opacity:1"
           id="g4896"
           transform="matrix(0.3,0,0,-0.3,-52.5,222.75)"
           xml:space="preserve"
           stroke-miterlimit="10.433"
           font-style="normal"
           font-variant="normal"
           font-weight="normal"
           font-stretch="normal"
           font-size-adjust="none"
           letter-spacing="normal"
           word-spacing="normal"><path
             style="fill:#000000;stroke-width:0"
             inkscape:connector-curvature="0"
             d="m 482.47,436.59 0.04,0.15 0.04,0.14 0.03,0.14 0.04,0.13 0.03,0.12 0.04,0.12 0.04,0.11 0.04,0.11 0.04,0.1 0.04,0.09 0.05,0.09 0.05,0.08 0.06,0.08 0.06,0.07 0.07,0.07 0.08,0.06 0.08,0.06 0.09,0.05 0.09,0.05 0.11,0.04 0.11,0.04 0.13,0.04 0.13,0.03 0.07,0.01 0.08,0.02 0.07,0.01 0.08,0.01 0.08,0.01 0.09,0.01 0.09,0.01 0.09,0.01 0.09,0.01 h 0.1 l 0.1,0.01 h 0.11 l 0.1,0.01 h 0.11 0.12 0.12 0.12 0.13 c 0.79,0 1.34,0 1.34,0.96 0,0.43 -0.3,0.59 -0.69,0.59 -1.25,0 -4.28,-0.16 -5.53,-0.16 -1.64,0 -5.69,0.16 -7.33,0.16 -0.45,0 -1.04,0 -1.04,-1 0,-0.55 0.4,-0.55 1.7,-0.55 1.14,0 1.64,0 2.88,-0.09 1.2,-0.16 1.54,-0.31 1.54,-1 0,-0.3 -0.09,-0.66 -0.19,-1.05 l -5.73,-22.87 c -1.2,-4.83 -4.58,-7.47 -7.17,-7.47 -1.3,0 -3.94,0.5 -4.74,3.09 0.14,-0.04 0.5,-0.04 0.6,-0.04 1.94,0 3.23,1.68 3.23,3.18 0,1.6 -1.34,2.08 -2.19,2.08 -0.89,0 -3.34,-0.59 -3.34,-3.98 0,-3.08 2.64,-5.42 6.58,-5.42 4.59,0 9.76,3.28 11.01,8.21 z"
             id="path4888" /><path
             style="fill:#000000;stroke-width:0"
             inkscape:connector-curvature="0"
             d="m 499.17,432.87 0.27,0.12 0.25,0.11 0.25,0.11 0.23,0.1 0.23,0.1 0.22,0.1 0.22,0.09 0.2,0.09 0.2,0.08 0.19,0.08 0.18,0.08 0.18,0.07 0.17,0.08 0.16,0.06 0.16,0.07 0.15,0.06 0.14,0.06 0.14,0.06 0.14,0.06 0.13,0.05 0.12,0.06 0.12,0.05 0.11,0.05 0.11,0.04 0.11,0.05 0.1,0.04 0.19,0.09 0.18,0.08 0.17,0.08 c 0.67,0.27 0.98,0.41 0.98,1.08 0,0.59 -0.45,1.11 -1.08,1.11 -0.25,0 -0.31,0 -0.73,-0.31 l -4.74,-3.17 0.52,5.15 c 0.08,0.63 0,1.5 -1.05,1.5 -0.42,0 -1.07,-0.28 -1.07,-1.04 0,-0.32 0.14,-1.36 0.17,-1.71 0.08,-0.59 0.31,-3.11 0.39,-3.9 l -4.7,3.17 c -0.36,0.2 -0.46,0.31 -0.77,0.31 -0.64,0 -1.09,-0.52 -1.09,-1.11 0,-0.7 0.42,-0.87 0.73,-1.01 l 5.27,-2.19 c -2.86,-1.27 -4.14,-1.75 -5.02,-2.17 -0.66,-0.29 -0.98,-0.43 -0.98,-1.08 0,-0.6 0.45,-1.11 1.09,-1.11 0.23,0 0.31,0 0.72,0.31 l 4.75,3.17 -0.56,-5.61 c 0,-0.76 0.65,-1.04 1.07,-1.04 0.43,0 1.08,0.28 1.08,1.04 0,0.32 -0.14,1.36 -0.17,1.71 -0.06,0.59 -0.31,3.09 -0.38,3.9 l 4.18,-2.79 c 0.9,-0.69 0.98,-0.69 1.29,-0.69 0.63,0 1.08,0.51 1.08,1.11 0,0.7 -0.42,0.87 -0.73,1.01 z"
             id="path4890" /><path
             style="fill:#000000;stroke-width:0"
             inkscape:connector-curvature="0"
             d="m 490.93,399.98 h 0.1 0.11 0.11 0.13 0.13 l 0.14,0.01 h 0.15 l 0.15,0.01 0.16,0.01 0.17,0.01 h 0.18 l 0.18,0.02 0.18,0.01 0.19,0.01 0.38,0.04 0.4,0.04 0.4,0.05 0.41,0.06 0.4,0.07 0.41,0.08 0.19,0.04 0.2,0.05 0.19,0.05 0.19,0.05 0.18,0.06 0.18,0.06 c 2.58,0.91 3.07,2.58 3.07,3.63 0,1.92 -1.93,3.06 -4.33,3.06 v -0.97 c 1.53,0 2.83,-0.77 2.83,-2.09 0,-3.38 -5.9,-3.38 -7.4,-3.38 h -1.7 c 1.42,5.05 5.3,5.47 6.27,5.47 v 0.97 c -4.17,0 -9.83,-3.2 -9.83,-9.16 0,-3.51 2.2,-6.54 6.28,-6.54 5.89,0 8.64,3.43 8.64,3.93 0,0.21 -0.31,0.6 -0.59,0.6 -0.21,0 -0.28,-0.08 -0.57,-0.36 -2.71,-3.21 -6.79,-3.21 -7.42,-3.21 -2.09,0 -3.48,1.39 -3.48,4.22 0,0.49 0,1.19 0.42,3.1 z"
             id="path4892" /><path
             style="fill:#000000;stroke-width:0"
             inkscape:connector-curvature="0"
             d="m 516.15,405.8 h 3.4 c 0.71,0 1.16,0 1.16,0.77 0,0.48 -0.45,0.48 -1.08,0.48 h -3.25 c 0.82,4.43 1.08,6.04 1.36,7.05 0.17,0.77 0.94,1.5 1.78,1.5 0.03,0 0.97,0 1.64,-0.42 -1.43,-0.45 -1.53,-1.72 -1.53,-1.92 0,-0.77 0.6,-1.28 1.39,-1.28 0.94,0 1.99,0.79 1.99,2.12 0,1.6 -1.71,2.47 -3.49,2.47 -1.53,0 -3.23,-0.87 -4.18,-2.61 -0.69,-1.3 -0.97,-2.86 -1.71,-6.91 h -2.75 c -0.7,0 -1.15,0 -1.15,-0.76 0,-0.49 0.45,-0.49 1.07,-0.49 h 2.58 c -0.03,-0.21 -2.22,-12.75 -3.06,-16.48 -0.17,-0.77 -0.77,-3.41 -2.44,-3.41 -0.03,0 -0.87,0 -1.53,0.41 1.42,0.45 1.53,1.72 1.53,1.92 0,0.77 -0.59,1.28 -1.39,1.28 -0.94,0 -1.98,-0.79 -1.98,-2.12 0,-1.56 1.64,-2.47 3.37,-2.47 2.24,0 3.77,2.3 4.19,3.06 1.25,2.35 2.05,6.63 2.13,7.05 z"
             id="path4894" /></g>      </g>
      <g
         transform="matrix(0.50521644,0,0,0.50521644,65.529622,101.03158)"
         id="g5888">
        <g
           style="font-style:normal;font-variant:normal;font-weight:normal;font-stretch:normal;letter-spacing:normal;word-spacing:normal;text-anchor:start;fill:none;fill-opacity:1;fill-rule:evenodd;stroke:#000000;stroke-linecap:butt;stroke-linejoin:miter;stroke-miterlimit:10.43299961;stroke-dasharray:none;stroke-dashoffset:0;stroke-opacity:1"
           id="g5886"
           transform="matrix(0.3,0,0,-0.3,-52.5,222.75)"
           xml:space="preserve"
           stroke-miterlimit="10.433"
           font-style="normal"
           font-variant="normal"
           font-weight="normal"
           font-stretch="normal"
           font-size-adjust="none"
           letter-spacing="normal"
           word-spacing="normal"><path
             style="fill:#000000;stroke-width:0"
             inkscape:connector-curvature="0"
             d="m 482.47,436.59 0.04,0.15 0.04,0.14 0.03,0.14 0.04,0.13 0.03,0.12 0.04,0.12 0.04,0.11 0.04,0.11 0.04,0.1 0.04,0.09 0.05,0.09 0.05,0.08 0.06,0.08 0.06,0.07 0.07,0.07 0.08,0.06 0.08,0.06 0.09,0.05 0.09,0.05 0.11,0.04 0.11,0.04 0.13,0.04 0.13,0.03 0.07,0.01 0.08,0.02 0.07,0.01 0.08,0.01 0.08,0.01 0.09,0.01 0.09,0.01 0.09,0.01 0.09,0.01 h 0.1 l 0.1,0.01 h 0.11 l 0.1,0.01 h 0.11 0.12 0.12 0.12 0.13 c 0.79,0 1.34,0 1.34,0.96 0,0.43 -0.3,0.59 -0.69,0.59 -1.25,0 -4.28,-0.16 -5.53,-0.16 -1.64,0 -5.69,0.16 -7.33,0.16 -0.45,0 -1.04,0 -1.04,-1 0,-0.55 0.4,-0.55 1.7,-0.55 1.14,0 1.64,0 2.88,-0.09 1.2,-0.16 1.54,-0.31 1.54,-1 0,-0.3 -0.09,-0.66 -0.19,-1.05 l -5.73,-22.87 c -1.2,-4.83 -4.58,-7.47 -7.17,-7.47 -1.3,0 -3.94,0.5 -4.74,3.09 0.14,-0.04 0.5,-0.04 0.6,-0.04 1.94,0 3.23,1.68 3.23,3.18 0,1.6 -1.34,2.08 -2.19,2.08 -0.89,0 -3.34,-0.59 -3.34,-3.98 0,-3.08 2.64,-5.42 6.58,-5.42 4.59,0 9.76,3.28 11.01,8.21 z"
             id="path5880" /><path
             style="fill:#000000;stroke-width:0"
             inkscape:connector-curvature="0"
             d="m 503.01,421.9 v 0.01 h 0.01 v 0 0.01 0 l 0.01,0.01 v 0.01 0 0.01 l 0.01,0.01 v 0.01 l 0.01,0.02 v 0.02 l 0.01,0.02 0.01,0.02 v 0.02 l 0.01,0.02 v 0.03 l 0.01,0.02 0.01,0.05 0.01,0.02 v 0.02 l 0.01,0.03 v 0.02 0.02 l 0.01,0.02 v 0.02 l 0.01,0.02 v 0.02 0.01 0.01 l 0.01,0.01 v 0 0.01 0 0.01 0 0.01 0 0 0.01 0 c 0,0.19 -0.14,0.5 -0.54,0.5 -0.71,0 -3.6,-0.28 -4.47,-0.36 -0.28,-0.03 -0.77,-0.06 -0.77,-0.8 0,-0.48 0.49,-0.48 0.91,-0.48 1.67,0 1.67,-0.25 1.67,-0.53 0,-0.24 -0.06,-0.46 -0.14,-0.77 l -1.99,-7.94 c -0.73,1.14 -1.92,2.05 -3.59,2.05 v -0.97 c 2.44,0 3.11,-2.64 3.11,-3.03 0,-0.14 -0.08,-0.39 -0.11,-0.48 l -1.64,-6.52 c -0.23,-0.98 -1,-1.67 -1.77,-2.34 -0.31,-0.27 -1.71,-1.39 -3.21,-1.39 -1.29,0 -2.54,0.9 -2.54,3.37 0,1.86 1,5.69 1.82,7.08 1.59,2.8 3.37,3.31 4.34,3.31 v 0.97 c -4.45,0 -8.98,-4.91 -8.98,-9.92 0,-3.38 2.26,-5.78 5.26,-5.78 1.88,0 3.55,1.08 4.94,2.44 0.67,-2.1 2.69,-2.44 3.59,-2.44 1.25,0 2.13,0.76 2.75,1.84 0.77,1.36 1.22,3.35 1.22,3.49 0,0.45 -0.45,0.45 -0.55,0.45 -0.5,0 -0.53,-0.14 -0.76,-1.08 -0.42,-1.67 -1.09,-3.73 -2.55,-3.73 -0.9,0 -1.15,0.76 -1.15,1.7 0,0.67 0.07,0.98 0.17,1.44 z"
             id="path5882" /><path
             style="fill:#000000;stroke-width:0"
             inkscape:connector-curvature="0"
             d="m 519.15,412.11 -0.12,-0.03 -0.11,-0.02 -0.11,-0.03 -0.11,-0.04 -0.09,-0.03 -0.1,-0.04 -0.09,-0.05 -0.09,-0.05 -0.08,-0.05 -0.08,-0.05 -0.07,-0.06 -0.08,-0.06 -0.06,-0.06 -0.07,-0.07 -0.06,-0.06 -0.05,-0.07 -0.05,-0.07 -0.05,-0.07 -0.05,-0.07 -0.04,-0.08 -0.03,-0.07 -0.04,-0.08 -0.03,-0.07 -0.03,-0.08 -0.02,-0.07 -0.02,-0.08 -0.02,-0.08 -0.01,-0.07 -0.01,-0.08 -0.01,-0.07 -0.01,-0.08 v -0.07 c 0,-0.94 0.74,-1.28 1.36,-1.28 0.77,0 1.99,0.55 1.99,2.22 0,2.37 -2.72,3.03 -4.6,3.03 -5.23,0 -10.07,-4.8 -10.07,-9.64 0,-3 2.09,-6.06 6.45,-6.06 5.89,0 8.64,3.44 8.64,3.94 0,0.2 -0.31,0.59 -0.6,0.59 -0.2,0 -0.28,-0.08 -0.56,-0.36 -2.72,-3.2 -6.79,-3.2 -7.42,-3.2 -2.5,0 -3.62,1.7 -3.62,3.87 0,1 0.5,4.8 2.31,7.2 1.31,1.72 3.12,2.69 4.87,2.69 0.49,0 2.16,-0.06 3.04,-1.04 z"
             id="path5884" /></g>      </g>
      <g
         transform="matrix(0.50521644,0,0,0.50521644,47.410359,97.637052)"
         id="g6062">
        <g
           style="font-style:normal;font-variant:normal;font-weight:normal;font-stretch:normal;letter-spacing:normal;word-spacing:normal;text-anchor:start;fill:none;fill-opacity:1;fill-rule:evenodd;stroke:#000000;stroke-linecap:butt;stroke-linejoin:miter;stroke-miterlimit:10.43299961;stroke-dasharray:none;stroke-dashoffset:0;stroke-opacity:1"
           id="g6060"
           transform="matrix(0.3,0,0,-0.3,-52.5,222.75)"
           xml:space="preserve"
           stroke-miterlimit="10.433"
           font-style="normal"
           font-variant="normal"
           font-weight="normal"
           font-stretch="normal"
           font-size-adjust="none"
           letter-spacing="normal"
           word-spacing="normal"><path
             style="fill:#000000;stroke-width:0"
             inkscape:connector-curvature="0"
             d="m 482.47,436.59 0.04,0.15 0.04,0.14 0.03,0.14 0.04,0.13 0.03,0.12 0.04,0.12 0.04,0.11 0.04,0.11 0.04,0.1 0.04,0.09 0.05,0.09 0.05,0.08 0.06,0.08 0.06,0.07 0.07,0.07 0.08,0.06 0.08,0.06 0.09,0.05 0.09,0.05 0.11,0.04 0.11,0.04 0.13,0.04 0.13,0.03 0.07,0.01 0.08,0.02 0.07,0.01 0.08,0.01 0.08,0.01 0.09,0.01 0.09,0.01 0.09,0.01 0.09,0.01 h 0.1 l 0.1,0.01 h 0.11 l 0.1,0.01 h 0.11 0.12 0.12 0.12 0.13 c 0.79,0 1.34,0 1.34,0.96 0,0.43 -0.3,0.59 -0.69,0.59 -1.25,0 -4.28,-0.16 -5.53,-0.16 -1.64,0 -5.69,0.16 -7.33,0.16 -0.45,0 -1.04,0 -1.04,-1 0,-0.55 0.4,-0.55 1.7,-0.55 1.14,0 1.64,0 2.88,-0.09 1.2,-0.16 1.54,-0.31 1.54,-1 0,-0.3 -0.09,-0.66 -0.19,-1.05 l -5.73,-22.87 c -1.2,-4.83 -4.58,-7.47 -7.17,-7.47 -1.3,0 -3.94,0.5 -4.74,3.09 0.14,-0.04 0.5,-0.04 0.6,-0.04 1.94,0 3.23,1.68 3.23,3.18 0,1.6 -1.34,2.08 -2.19,2.08 -0.89,0 -3.34,-0.59 -3.34,-3.98 0,-3.08 2.64,-5.42 6.58,-5.42 4.59,0 9.76,3.28 11.01,8.21 z"
             id="path6054" /><path
             style="fill:#000000;stroke-width:0"
             inkscape:connector-curvature="0"
             d="m 498.39,412.11 -0.12,-0.03 -0.11,-0.02 -0.11,-0.03 -0.1,-0.04 -0.1,-0.03 -0.1,-0.04 -0.09,-0.05 -0.09,-0.05 -0.08,-0.05 -0.08,-0.05 -0.07,-0.06 -0.07,-0.06 -0.07,-0.06 -0.06,-0.07 -0.06,-0.06 -0.06,-0.07 -0.05,-0.07 -0.05,-0.07 -0.04,-0.07 -0.04,-0.08 -0.04,-0.07 -0.04,-0.08 -0.03,-0.07 -0.02,-0.08 -0.03,-0.07 -0.02,-0.08 -0.02,-0.08 -0.01,-0.07 -0.01,-0.08 -0.01,-0.07 v -0.08 -0.07 c 0,-0.94 0.73,-1.28 1.35,-1.28 0.77,0 1.99,0.55 1.99,2.22 0,2.37 -2.72,3.03 -4.59,3.03 -5.24,0 -10.08,-4.8 -10.08,-9.64 0,-3 2.09,-6.06 6.45,-6.06 5.89,0 8.64,3.44 8.64,3.94 0,0.2 -0.31,0.59 -0.59,0.59 -0.21,0 -0.28,-0.08 -0.57,-0.36 -2.71,-3.2 -6.79,-3.2 -7.42,-3.2 -2.5,0 -3.62,1.7 -3.62,3.87 0,1 0.5,4.8 2.31,7.2 1.31,1.72 3.13,2.69 4.88,2.69 0.48,0 2.15,-0.06 3.03,-1.04 z"
             id="path6056" /><path
             style="fill:#000000;stroke-width:0"
             inkscape:connector-curvature="0"
             d="m 520.77,421.9 v 0.01 0 h 0.01 v 0.01 0 0.01 l 0.01,0.01 v 0 0.01 0.01 l 0.01,0.01 0.01,0.02 v 0.02 l 0.01,0.02 v 0.02 l 0.01,0.02 v 0.02 l 0.01,0.03 0.01,0.02 0.01,0.05 v 0.02 l 0.01,0.02 v 0.03 l 0.01,0.02 v 0.02 l 0.01,0.02 v 0.02 0.02 l 0.01,0.02 v 0.01 0.01 0.01 0 l 0.01,0.01 v 0 0.01 0 0.01 0 0 0.01 0 c 0,0.19 -0.14,0.5 -0.55,0.5 -0.7,0 -3.59,-0.28 -4.46,-0.36 -0.29,-0.03 -0.77,-0.06 -0.77,-0.8 0,-0.48 0.48,-0.48 0.9,-0.48 1.68,0 1.68,-0.25 1.68,-0.53 0,-0.24 -0.06,-0.46 -0.14,-0.77 l -1.99,-7.94 c -0.73,1.14 -1.92,2.05 -3.59,2.05 v -0.97 c 2.44,0 3.11,-2.64 3.11,-3.03 0,-0.14 -0.08,-0.39 -0.11,-0.48 l -1.64,-6.52 c -0.24,-0.98 -1,-1.67 -1.77,-2.34 -0.31,-0.27 -1.72,-1.39 -3.22,-1.39 -1.28,0 -2.53,0.9 -2.53,3.37 0,1.86 1,5.69 1.81,7.08 1.6,2.8 3.38,3.31 4.35,3.31 v 0.97 c -4.45,0 -8.99,-4.91 -8.99,-9.92 0,-3.38 2.27,-5.78 5.27,-5.78 1.87,0 3.55,1.08 4.94,2.44 0.67,-2.1 2.69,-2.44 3.59,-2.44 1.25,0 2.13,0.76 2.75,1.84 0.77,1.36 1.22,3.35 1.22,3.49 0,0.45 -0.45,0.45 -0.55,0.45 -0.5,0 -0.53,-0.14 -0.76,-1.08 -0.43,-1.67 -1.1,-3.73 -2.55,-3.73 -0.91,0 -1.16,0.76 -1.16,1.7 0,0.67 0.08,0.98 0.18,1.44 z"
             id="path6058" /></g>      </g>
      <g
         transform="matrix(0.50521644,0,0,0.50521644,32.885797,147.51922)"
         id="g6241">
        <g
           style="font-style:normal;font-variant:normal;font-weight:normal;font-stretch:normal;letter-spacing:normal;word-spacing:normal;text-anchor:start;fill:none;fill-opacity:1;fill-rule:evenodd;stroke:#000000;stroke-linecap:butt;stroke-linejoin:miter;stroke-miterlimit:10.43299961;stroke-dasharray:none;stroke-dashoffset:0;stroke-opacity:1"
           id="g6239"
           transform="matrix(0.3,0,0,-0.3,-52.5,222.75)"
           xml:space="preserve"
           stroke-miterlimit="10.433"
           font-style="normal"
           font-variant="normal"
           font-weight="normal"
           font-stretch="normal"
           font-size-adjust="none"
           letter-spacing="normal"
           word-spacing="normal"><path
             style="fill:#000000;stroke-width:0"
             inkscape:connector-curvature="0"
             d="m 482.47,436.59 0.04,0.15 0.04,0.14 0.03,0.14 0.04,0.13 0.03,0.12 0.04,0.12 0.04,0.11 0.04,0.11 0.04,0.1 0.04,0.09 0.05,0.09 0.05,0.08 0.06,0.08 0.06,0.07 0.07,0.07 0.08,0.06 0.08,0.06 0.09,0.05 0.09,0.05 0.11,0.04 0.11,0.04 0.13,0.04 0.13,0.03 0.07,0.01 0.08,0.02 0.07,0.01 0.08,0.01 0.08,0.01 0.09,0.01 0.09,0.01 0.09,0.01 0.09,0.01 h 0.1 l 0.1,0.01 h 0.11 l 0.1,0.01 h 0.11 0.12 0.12 0.12 0.13 c 0.79,0 1.34,0 1.34,0.96 0,0.43 -0.3,0.59 -0.69,0.59 -1.25,0 -4.28,-0.16 -5.53,-0.16 -1.64,0 -5.69,0.16 -7.33,0.16 -0.45,0 -1.04,0 -1.04,-1 0,-0.55 0.4,-0.55 1.7,-0.55 1.14,0 1.64,0 2.88,-0.09 1.2,-0.16 1.54,-0.31 1.54,-1 0,-0.3 -0.09,-0.66 -0.19,-1.05 l -5.73,-22.87 c -1.2,-4.83 -4.58,-7.47 -7.17,-7.47 -1.3,0 -3.94,0.5 -4.74,3.09 0.14,-0.04 0.5,-0.04 0.6,-0.04 1.94,0 3.23,1.68 3.23,3.18 0,1.6 -1.34,2.08 -2.19,2.08 -0.89,0 -3.34,-0.59 -3.34,-3.98 0,-3.08 2.64,-5.42 6.58,-5.42 4.59,0 9.76,3.28 11.01,8.21 z"
             id="path6233" /><path
             style="fill:#000000;stroke-width:0"
             inkscape:connector-curvature="0"
             d="m 503.01,421.9 v 0.01 h 0.01 v 0 0.01 0 l 0.01,0.01 v 0.01 0 0.01 l 0.01,0.01 v 0.01 l 0.01,0.02 v 0.02 l 0.01,0.02 0.01,0.02 v 0.02 l 0.01,0.02 v 0.03 l 0.01,0.02 0.01,0.05 0.01,0.02 v 0.02 l 0.01,0.03 v 0.02 0.02 l 0.01,0.02 v 0.02 l 0.01,0.02 v 0.02 0.01 0.01 l 0.01,0.01 v 0 0.01 0 0.01 0 0.01 0 0 0.01 0 c 0,0.19 -0.14,0.5 -0.54,0.5 -0.71,0 -3.6,-0.28 -4.47,-0.36 -0.28,-0.03 -0.77,-0.06 -0.77,-0.8 0,-0.48 0.49,-0.48 0.91,-0.48 1.67,0 1.67,-0.25 1.67,-0.53 0,-0.24 -0.06,-0.46 -0.14,-0.77 l -1.99,-7.94 c -0.73,1.14 -1.92,2.05 -3.59,2.05 v -0.97 c 2.44,0 3.11,-2.64 3.11,-3.03 0,-0.14 -0.08,-0.39 -0.11,-0.48 l -1.64,-6.52 c -0.23,-0.98 -1,-1.67 -1.77,-2.34 -0.31,-0.27 -1.71,-1.39 -3.21,-1.39 -1.29,0 -2.54,0.9 -2.54,3.37 0,1.86 1,5.69 1.82,7.08 1.59,2.8 3.37,3.31 4.34,3.31 v 0.97 c -4.45,0 -8.98,-4.91 -8.98,-9.92 0,-3.38 2.26,-5.78 5.26,-5.78 1.88,0 3.55,1.08 4.94,2.44 0.67,-2.1 2.69,-2.44 3.59,-2.44 1.25,0 2.13,0.76 2.75,1.84 0.77,1.36 1.22,3.35 1.22,3.49 0,0.45 -0.45,0.45 -0.55,0.45 -0.5,0 -0.53,-0.14 -0.76,-1.08 -0.42,-1.67 -1.09,-3.73 -2.55,-3.73 -0.9,0 -1.15,0.76 -1.15,1.7 0,0.67 0.07,0.98 0.17,1.44 z"
             id="path6235" /><path
             style="fill:#000000;stroke-width:0"
             inkscape:connector-curvature="0"
             d="m 511.69,406.7 h 0.1 0.1 0.12 0.12 l 0.14,0.01 h 0.14 l 0.14,0.01 h 0.16 l 0.16,0.01 0.17,0.01 0.17,0.01 0.18,0.01 0.19,0.01 0.18,0.02 0.39,0.03 0.4,0.04 0.4,0.05 0.41,0.06 0.4,0.07 0.4,0.08 0.2,0.05 0.2,0.04 0.19,0.05 0.19,0.06 0.18,0.05 0.18,0.06 c 2.58,0.91 3.06,2.58 3.06,3.63 0,1.92 -1.92,3.06 -4.33,3.06 v -0.97 c 1.54,0 2.83,-0.76 2.83,-2.09 0,-3.38 -5.89,-3.38 -7.39,-3.38 h -1.7 c 1.42,5.05 5.3,5.47 6.26,5.47 v 0.97 c -4.17,0 -9.82,-3.2 -9.82,-9.16 0,-3.51 2.2,-6.54 6.28,-6.54 5.89,0 8.64,3.44 8.64,3.94 0,0.2 -0.31,0.59 -0.6,0.59 -0.2,0 -0.28,-0.08 -0.56,-0.36 -2.72,-3.2 -6.79,-3.2 -7.42,-3.2 -2.09,0 -3.48,1.39 -3.48,4.22 0,0.48 0,1.18 0.42,3.09 z"
             id="path6237" /></g>      </g>
      <g
         transform="matrix(0.50521644,0,0,0.50521644,51.607897,148.35788)"
         id="g6425">
        <g
           style="font-style:normal;font-variant:normal;font-weight:normal;font-stretch:normal;letter-spacing:normal;word-spacing:normal;text-anchor:start;fill:none;fill-opacity:1;fill-rule:evenodd;stroke:#000000;stroke-linecap:butt;stroke-linejoin:miter;stroke-miterlimit:10.43299961;stroke-dasharray:none;stroke-dashoffset:0;stroke-opacity:1"
           id="g6423"
           transform="matrix(0.3,0,0,-0.3,-52.5,222.75)"
           xml:space="preserve"
           stroke-miterlimit="10.433"
           font-style="normal"
           font-variant="normal"
           font-weight="normal"
           font-stretch="normal"
           font-size-adjust="none"
           letter-spacing="normal"
           word-spacing="normal"><path
             style="fill:#000000;stroke-width:0"
             inkscape:connector-curvature="0"
             d="m 482.47,436.59 0.04,0.15 0.04,0.14 0.03,0.14 0.04,0.13 0.03,0.12 0.04,0.12 0.04,0.11 0.04,0.11 0.04,0.1 0.04,0.09 0.05,0.09 0.05,0.08 0.06,0.08 0.06,0.07 0.07,0.07 0.08,0.06 0.08,0.06 0.09,0.05 0.09,0.05 0.11,0.04 0.11,0.04 0.13,0.04 0.13,0.03 0.07,0.01 0.08,0.02 0.07,0.01 0.08,0.01 0.08,0.01 0.09,0.01 0.09,0.01 0.09,0.01 0.09,0.01 h 0.1 l 0.1,0.01 h 0.11 l 0.1,0.01 h 0.11 0.12 0.12 0.12 0.13 c 0.79,0 1.34,0 1.34,0.96 0,0.43 -0.3,0.59 -0.69,0.59 -1.25,0 -4.28,-0.16 -5.53,-0.16 -1.64,0 -5.69,0.16 -7.33,0.16 -0.45,0 -1.04,0 -1.04,-1 0,-0.55 0.4,-0.55 1.7,-0.55 1.14,0 1.64,0 2.88,-0.09 1.2,-0.16 1.54,-0.31 1.54,-1 0,-0.3 -0.09,-0.66 -0.19,-1.05 l -5.73,-22.87 c -1.2,-4.83 -4.58,-7.47 -7.17,-7.47 -1.3,0 -3.94,0.5 -4.74,3.09 0.14,-0.04 0.5,-0.04 0.6,-0.04 1.94,0 3.23,1.68 3.23,3.18 0,1.6 -1.34,2.08 -2.19,2.08 -0.89,0 -3.34,-0.59 -3.34,-3.98 0,-3.08 2.64,-5.42 6.58,-5.42 4.59,0 9.76,3.28 11.01,8.21 z"
             id="path6417" /><path
             style="fill:#000000;stroke-width:0"
             inkscape:connector-curvature="0"
             d="m 490.93,406.7 h 0.1 0.11 0.11 0.13 l 0.13,0.01 h 0.14 l 0.15,0.01 h 0.15 l 0.16,0.01 0.17,0.01 0.18,0.01 0.18,0.01 0.18,0.01 0.19,0.02 0.38,0.03 0.4,0.04 0.4,0.05 0.41,0.06 0.4,0.07 0.41,0.08 0.19,0.05 0.2,0.04 0.19,0.05 0.19,0.06 0.18,0.05 0.18,0.06 c 2.58,0.91 3.07,2.58 3.07,3.63 0,1.92 -1.93,3.06 -4.33,3.06 v -0.97 c 1.53,0 2.83,-0.76 2.83,-2.09 0,-3.38 -5.9,-3.38 -7.4,-3.38 h -1.7 c 1.42,5.05 5.3,5.47 6.27,5.47 v 0.97 c -4.17,0 -9.83,-3.2 -9.83,-9.16 0,-3.51 2.2,-6.54 6.28,-6.54 5.89,0 8.64,3.44 8.64,3.94 0,0.2 -0.31,0.59 -0.59,0.59 -0.21,0 -0.28,-0.08 -0.57,-0.36 -2.71,-3.2 -6.79,-3.2 -7.42,-3.2 -2.09,0 -3.48,1.39 -3.48,4.22 0,0.48 0,1.18 0.42,3.09 z"
             id="path6419" /><path
             style="fill:#000000;stroke-width:0"
             inkscape:connector-curvature="0"
             d="m 521.85,421.9 v 0.01 h 0.01 v 0 0.01 0 l 0.01,0.01 v 0.01 0 0.01 l 0.01,0.01 v 0.01 l 0.01,0.02 v 0.02 l 0.01,0.02 v 0.02 l 0.01,0.02 0.01,0.02 v 0.03 l 0.01,0.02 0.01,0.05 v 0.02 l 0.01,0.02 v 0.03 l 0.01,0.02 v 0.02 l 0.01,0.02 v 0.02 l 0.01,0.02 v 0.02 0.01 0.01 l 0.01,0.01 v 0 0.01 0 0.01 0 0.01 0 0 0.01 0 c 0,0.19 -0.14,0.5 -0.54,0.5 -0.71,0 -3.6,-0.28 -4.47,-0.36 -0.28,-0.03 -0.77,-0.06 -0.77,-0.8 0,-0.48 0.49,-0.48 0.91,-0.48 1.67,0 1.67,-0.25 1.67,-0.53 0,-0.24 -0.06,-0.46 -0.14,-0.77 l -1.99,-7.94 c -0.73,1.14 -1.92,2.05 -3.59,2.05 v -0.97 c 2.44,0 3.11,-2.64 3.11,-3.03 0,-0.14 -0.08,-0.39 -0.11,-0.48 l -1.64,-6.52 c -0.23,-0.98 -1,-1.67 -1.77,-2.34 -0.31,-0.27 -1.71,-1.39 -3.21,-1.39 -1.29,0 -2.54,0.9 -2.54,3.37 0,1.86 1,5.69 1.82,7.08 1.59,2.8 3.37,3.31 4.34,3.31 v 0.97 c -4.45,0 -8.98,-4.91 -8.98,-9.92 0,-3.38 2.26,-5.78 5.26,-5.78 1.88,0 3.55,1.08 4.94,2.44 0.67,-2.1 2.69,-2.44 3.59,-2.44 1.25,0 2.13,0.76 2.75,1.84 0.77,1.36 1.22,3.35 1.22,3.49 0,0.45 -0.45,0.45 -0.55,0.45 -0.5,0 -0.53,-0.14 -0.76,-1.08 -0.42,-1.67 -1.09,-3.73 -2.55,-3.73 -0.9,0 -1.15,0.76 -1.15,1.7 0,0.67 0.07,0.98 0.17,1.44 z"
             id="path6421" /></g>      </g>
    </g>
    <g
       id="g1294"
       inkscape:export-xdpi="500"
       inkscape:export-ydpi="500">
      <path
         inkscape:connector-curvature="0"
         id="path846"
         d="m 39.416931,81.968051 c 0,0 27.004793,-9.560703 34.384985,-17.444091 7.380192,-7.883387 17.779553,-26.333865 17.779553,-26.333865 l 27.507991,4.193292 c 0,0 10.39936,1.509584 21.13418,7.883386 10.73483,6.373802 8.05112,6.876997 16.60543,15.263578 8.55432,8.386582 23.65016,11.405751 23.65016,11.405751"
         style="fill:none;stroke:#000000;stroke-width:0.765;stroke-linecap:butt;stroke-linejoin:miter;stroke-opacity:1;stroke-miterlimit:4;stroke-dasharray:2.295, 0.76500000000000001;stroke-dashoffset:0" />
      <path
         inkscape:connector-curvature="0"
         id="path846-8"
         d="m 39.416942,81.968051 c 0,0 27.004795,-9.560703 34.384987,-17.44409 7.380192,-7.883387 17.779553,-26.333866 17.779553,-26.333866 l 27.507988,4.193292 c 0,0 10.39936,1.509584 21.13417,7.883387 10.73483,6.373802 8.05112,6.876997 16.60543,15.263577 8.55432,8.386583 23.65016,11.405751 23.65016,11.405751"
         style="fill:none;stroke:#8c1515;stroke-width:1.565;stroke-linecap:butt;stroke-linejoin:miter;stroke-miterlimit:4;stroke-dasharray:none;stroke-opacity:0.98431373;opacity:0.723" />
      <g
         transform="matrix(0.67913263,0,0,0.67913263,91.409184,-47.918201)"
         id="g1218"
         style="">
        <g
           style="font-style:normal;font-variant:normal;font-weight:normal;font-stretch:normal;letter-spacing:normal;word-spacing:normal;text-anchor:start;fill:none;fill-opacity:1;fill-rule:evenodd;stroke:#000000;stroke-linecap:butt;stroke-linejoin:miter;stroke-miterlimit:10.43299961;stroke-dasharray:none;stroke-dashoffset:0;stroke-opacity:1"
           id="content"
           transform="matrix(0.3,0,0,-0.3,-52.5,222.75)"
           xml:space="preserve"
           stroke-miterlimit="10.433"
           font-style="normal"
           font-variant="normal"
           font-weight="normal"
           font-stretch="normal"
           font-size-adjust="none"
           letter-spacing="normal"
           word-spacing="normal"><path
             style="fill:#000000;stroke-width:0"
             inkscape:connector-curvature="0"
             d="m 475.25,425.14 h -0.14 -0.15 l -0.15,-0.01 h -0.14 l -0.14,-0.01 -0.14,-0.02 -0.07,-0.01 -0.07,-0.01 -0.06,-0.02 -0.07,-0.01 -0.07,-0.02 -0.07,-0.02 -0.07,-0.02 -0.06,-0.02 -0.07,-0.03 -0.07,-0.03 -0.06,-0.03 -0.07,-0.04 -0.07,-0.04 -0.06,-0.04 -0.07,-0.05 -0.07,-0.04 -0.06,-0.06 -0.07,-0.05 -0.06,-0.06 -0.07,-0.07 c -0.8,-0.75 -0.89,-1.59 -0.89,-1.93 0,-1.21 0.89,-1.75 1.84,-1.75 1.44,0 2.8,1.2 2.8,3.18 0,2.44 -2.34,4.28 -5.89,4.28 -6.72,0 -13.34,-7.12 -13.34,-14.14 0,-4.48 2.89,-8.42 8.06,-8.42 7.12,0 11.31,5.28 11.31,5.88 0,0.29 -0.3,0.65 -0.59,0.65 -0.25,0 -0.35,-0.11 -0.66,-0.5 -3.94,-4.93 -9.36,-4.93 -9.95,-4.93 -3.14,0 -4.49,2.43 -4.49,5.43 0,2.03 0.99,6.88 2.69,9.96 1.55,2.84 4.28,4.98 7.02,4.98 1.7,0 3.59,-0.64 4.29,-1.98 z"
             id="path1215" /></g>      </g>
      <g
         transform="matrix(0.67913263,0,0,0.67913263,110.86205,-31.662412)"
         id="g1272"
         style="">
        <g
           style="font-style:normal;font-variant:normal;font-weight:normal;font-stretch:normal;letter-spacing:normal;word-spacing:normal;text-anchor:start;fill:none;fill-opacity:1;fill-rule:evenodd;stroke:#000000;stroke-linecap:butt;stroke-linejoin:miter;stroke-miterlimit:10.43299961;stroke-dasharray:none;stroke-dashoffset:0;stroke-opacity:1"
           id="g1270"
           transform="matrix(0.3,0,0,-0.3,-52.5,222.75)"
           xml:space="preserve"
           stroke-miterlimit="10.433"
           font-style="normal"
           font-variant="normal"
           font-weight="normal"
           font-stretch="normal"
           font-size-adjust="none"
           letter-spacing="normal"
           word-spacing="normal"><path
             style="fill:#000000;stroke-width:0"
             inkscape:connector-curvature="0"
             d="m 482.47,436.59 0.04,0.15 0.04,0.14 0.03,0.14 0.04,0.13 0.03,0.12 0.04,0.12 0.04,0.11 0.04,0.11 0.04,0.1 0.04,0.09 0.05,0.09 0.05,0.08 0.06,0.08 0.06,0.07 0.07,0.07 0.08,0.06 0.08,0.06 0.09,0.05 0.09,0.05 0.11,0.04 0.11,0.04 0.13,0.04 0.13,0.03 0.07,0.01 0.08,0.02 0.07,0.01 0.08,0.01 0.08,0.01 0.09,0.01 0.09,0.01 0.09,0.01 0.09,0.01 h 0.1 l 0.1,0.01 h 0.11 l 0.1,0.01 h 0.11 0.12 0.12 0.12 0.13 c 0.79,0 1.34,0 1.34,0.96 0,0.43 -0.3,0.59 -0.69,0.59 -1.25,0 -4.28,-0.16 -5.53,-0.16 -1.64,0 -5.69,0.16 -7.33,0.16 -0.45,0 -1.04,0 -1.04,-1 0,-0.55 0.4,-0.55 1.7,-0.55 1.14,0 1.64,0 2.88,-0.09 1.2,-0.16 1.54,-0.31 1.54,-1 0,-0.3 -0.09,-0.66 -0.19,-1.05 l -5.73,-22.87 c -1.2,-4.83 -4.58,-7.47 -7.17,-7.47 -1.3,0 -3.94,0.5 -4.74,3.09 0.14,-0.04 0.5,-0.04 0.6,-0.04 1.94,0 3.23,1.68 3.23,3.18 0,1.6 -1.34,2.08 -2.19,2.08 -0.89,0 -3.34,-0.59 -3.34,-3.98 0,-3.08 2.64,-5.42 6.58,-5.42 4.59,0 9.76,3.28 11.01,8.21 z"
             id="path1262" /><path
             style="fill:#000000;stroke-width:0"
             inkscape:connector-curvature="0"
             d="m 492.32,421.9 0.01,0.01 v 0 0 0.01 0 0.01 l 0.01,0.01 v 0 0.01 0.01 l 0.01,0.01 v 0.02 l 0.01,0.02 v 0.02 l 0.01,0.02 0.01,0.02 v 0.02 l 0.01,0.03 v 0.02 l 0.02,0.05 0.01,0.04 v 0.03 l 0.01,0.02 v 0.02 l 0.01,0.02 v 0.02 l 0.01,0.02 v 0.02 0.01 l 0.01,0.01 v 0.01 0 0.01 0 0.01 0 0.01 0 0 0.01 0 c 0,0.19 -0.14,0.5 -0.56,0.5 -0.7,0 -3.59,-0.28 -4.45,-0.36 -0.28,-0.03 -0.78,-0.06 -0.78,-0.8 0,-0.48 0.5,-0.48 0.9,-0.48 1.68,0 1.68,-0.25 1.68,-0.53 0,-0.24 -0.35,-1.63 -0.55,-2.44 l -0.8,-3.2 c -0.33,-1.19 -2.23,-8.82 -2.31,-9.27 -0.17,-0.84 -0.17,-1.3 -0.17,-1.7 0,-3.53 2.23,-5.75 5.12,-5.75 l 0.03,0.97 c -1.7,0 -2.67,1.5 -2.67,3.56 0,1.28 0.31,2.47 1.28,6.41 0.21,0.65 0.21,0.73 0.88,1.5 1.33,1.53 2.89,2.29 4.14,2.29 1.36,0 2.55,-1.01 2.55,-3.37 0,-1.44 -0.77,-4.99 -1.82,-7.02 -0.84,-1.7 -2.57,-3.37 -4.36,-3.37 v 0 l -0.03,-0.97 c 4.36,0 8.99,4.73 8.99,9.89 0,4.08 -2.82,5.81 -5.22,5.81 -1.81,0 -3.35,-1 -4.39,-1.91 z"
             id="path1264" /><path
             style="fill:#000000;stroke-width:0"
             inkscape:connector-curvature="0"
             d="m 515.91,412.11 -0.12,-0.03 -0.11,-0.02 -0.11,-0.03 -0.1,-0.04 -0.1,-0.03 -0.1,-0.04 -0.09,-0.05 -0.09,-0.05 -0.08,-0.05 -0.08,-0.05 -0.07,-0.06 -0.07,-0.06 -0.07,-0.06 -0.06,-0.07 -0.06,-0.06 -0.06,-0.07 -0.05,-0.07 -0.05,-0.07 -0.04,-0.07 -0.05,-0.08 -0.03,-0.07 -0.04,-0.08 -0.03,-0.07 -0.02,-0.08 -0.03,-0.07 -0.02,-0.08 -0.02,-0.08 -0.01,-0.07 -0.01,-0.08 -0.01,-0.07 v -0.08 l -0.01,-0.07 c 0,-0.94 0.74,-1.28 1.36,-1.28 0.77,0 1.99,0.55 1.99,2.22 0,2.37 -2.72,3.03 -4.59,3.03 -5.24,0 -10.08,-4.8 -10.08,-9.64 0,-3 2.09,-6.06 6.45,-6.06 5.89,0 8.64,3.44 8.64,3.94 0,0.2 -0.31,0.59 -0.59,0.59 -0.21,0 -0.28,-0.08 -0.57,-0.36 -2.71,-3.2 -6.79,-3.2 -7.42,-3.2 -2.5,0 -3.62,1.7 -3.62,3.87 0,1 0.5,4.8 2.31,7.2 1.31,1.72 3.12,2.69 4.88,2.69 0.48,0 2.15,-0.06 3.03,-1.04 z"
             id="path1266" /><path
             style="fill:#000000;stroke-width:0"
             inkscape:connector-curvature="0"
             d="m 526.21,406.7 h 0.1 0.1 0.12 0.12 l 0.14,0.01 h 0.14 l 0.14,0.01 h 0.16 l 0.16,0.01 0.17,0.01 0.17,0.01 0.18,0.01 0.19,0.01 0.18,0.02 0.39,0.03 0.4,0.04 0.4,0.05 0.41,0.06 0.4,0.07 0.4,0.08 0.2,0.05 0.2,0.04 0.19,0.05 0.19,0.06 0.18,0.05 0.18,0.06 c 2.58,0.91 3.06,2.58 3.06,3.63 0,1.92 -1.92,3.06 -4.33,3.06 v -0.97 c 1.54,0 2.83,-0.76 2.83,-2.09 0,-3.38 -5.89,-3.38 -7.39,-3.38 h -1.7 c 1.42,5.05 5.3,5.47 6.26,5.47 v 0.97 c -4.17,0 -9.82,-3.2 -9.82,-9.16 0,-3.51 2.2,-6.54 6.28,-6.54 5.89,0 8.64,3.44 8.64,3.94 0,0.2 -0.31,0.59 -0.6,0.59 -0.2,0 -0.28,-0.08 -0.56,-0.36 -2.72,-3.2 -6.79,-3.2 -7.42,-3.2 -2.09,0 -3.48,1.39 -3.48,4.22 0,0.48 0,1.18 0.42,3.09 z"
             id="path1268" /></g>      </g>
      <path
         inkscape:connector-curvature="0"
         id="path1761"
         d="m 70.782748,69.220439 c 0,0 1.17412,0 4.193289,-3.354634 3.019171,-3.354633 3.354633,-4.193291 3.354633,-4.193291"
         style="fill:none;stroke:#000000;stroke-width:0.465;stroke-linecap:butt;stroke-linejoin:miter;stroke-opacity:1;stroke-miterlimit:4;stroke-dasharray:none;marker-end:url(#marker2075)" />
      <path
         inkscape:connector-curvature="0"
         id="path1763"
         d="m 114.22524,28.461652 c 0,0 1.00639,-0.335462 5.53514,-0.838658 4.52876,-0.503195 6.20607,-0.503195 6.20607,-0.503195"
         style="fill:none;stroke:#000000;stroke-width:0.465;stroke-linecap:butt;stroke-linejoin:miter;stroke-opacity:1;stroke-miterlimit:4;stroke-dasharray:none;marker-end:url(#Arrow1Send)" />
      <path
         inkscape:connector-curvature="0"
         id="path1765"
         d="m 132.17252,44.396157 c 0,0 2.01278,0.167732 6.03834,2.683705 4.02556,2.515976 4.02556,2.515976 4.02556,2.515976"
         style="fill:none;stroke:#000000;stroke-width:0.465;stroke-linecap:butt;stroke-linejoin:miter;stroke-opacity:1;stroke-miterlimit:4;stroke-dasharray:none;marker-end:url(#marker2065)" />
      <circle
         r="4.7803516"
         cy="81.800323"
         cx="39.752396"
         id="path815-8"
         style="opacity:1;fill:#eaaeae;fill-opacity:1;stroke:none;stroke-width:1.2954545;stroke-linejoin:round;stroke-miterlimit:4;stroke-dasharray:none;stroke-dashoffset:0;stroke-opacity:1;paint-order:stroke markers fill" />
      <g
         transform="matrix(0.67913262,0,0,0.67913262,1.5120416,-7.2950443)"
         id="g987">
        <g
           style="font-style:normal;font-variant:normal;font-weight:normal;font-stretch:normal;letter-spacing:normal;word-spacing:normal;text-anchor:start;fill:none;fill-opacity:1;fill-rule:evenodd;stroke:#000000;stroke-linecap:butt;stroke-linejoin:miter;stroke-miterlimit:10.43299961;stroke-dasharray:none;stroke-dashoffset:0;stroke-opacity:1"
           id="g985"
           transform="matrix(0.3,0,0,-0.3,-52.5,222.75)"
           xml:space="preserve"
           stroke-miterlimit="10.433"
           font-style="normal"
           font-variant="normal"
           font-weight="normal"
           font-stretch="normal"
           font-size-adjust="none"
           letter-spacing="normal"
           word-spacing="normal"><path
             style="fill:#000000;stroke-width:0"
             inkscape:connector-curvature="0"
             d="m 482.47,436.59 0.04,0.15 0.04,0.14 0.03,0.14 0.04,0.13 0.03,0.12 0.04,0.12 0.04,0.11 0.04,0.11 0.04,0.1 0.04,0.09 0.05,0.09 0.05,0.08 0.06,0.08 0.06,0.07 0.07,0.07 0.08,0.06 0.08,0.06 0.09,0.05 0.09,0.05 0.11,0.04 0.11,0.04 0.13,0.04 0.13,0.03 0.07,0.01 0.08,0.02 0.07,0.01 0.08,0.01 0.08,0.01 0.09,0.01 0.09,0.01 0.09,0.01 0.09,0.01 h 0.1 l 0.1,0.01 h 0.11 l 0.1,0.01 h 0.11 0.12 0.12 0.12 0.13 c 0.79,0 1.34,0 1.34,0.96 0,0.43 -0.3,0.59 -0.69,0.59 -1.25,0 -4.28,-0.16 -5.53,-0.16 -1.64,0 -5.69,0.16 -7.33,0.16 -0.45,0 -1.04,0 -1.04,-1 0,-0.55 0.4,-0.55 1.7,-0.55 1.14,0 1.64,0 2.88,-0.09 1.2,-0.16 1.54,-0.31 1.54,-1 0,-0.3 -0.09,-0.66 -0.19,-1.05 l -5.73,-22.87 c -1.2,-4.83 -4.58,-7.47 -7.17,-7.47 -1.3,0 -3.94,0.5 -4.74,3.09 0.14,-0.04 0.5,-0.04 0.6,-0.04 1.94,0 3.23,1.68 3.23,3.18 0,1.6 -1.34,2.08 -2.19,2.08 -0.89,0 -3.34,-0.59 -3.34,-3.98 0,-3.08 2.64,-5.42 6.58,-5.42 4.59,0 9.76,3.28 11.01,8.21 z"
             id="path979" /><path
             style="fill:#000000;stroke-width:0"
             inkscape:connector-curvature="0"
             d="m 497.82,412.07 -0.07,0.11 -0.07,0.11 -0.07,0.1 -0.08,0.1 -0.08,0.1 -0.09,0.1 -0.08,0.09 -0.09,0.1 -0.09,0.09 -0.1,0.08 -0.1,0.09 -0.09,0.08 -0.11,0.08 -0.1,0.08 -0.11,0.07 -0.11,0.08 -0.11,0.06 -0.12,0.07 -0.12,0.06 -0.12,0.05 -0.13,0.06 -0.12,0.05 -0.13,0.04 -0.14,0.04 -0.13,0.04 -0.14,0.03 -0.14,0.03 -0.15,0.02 -0.14,0.02 -0.15,0.01 -0.15,0.01 h -0.16 v -0.97 c 2.44,0 3.11,-2.64 3.11,-3.03 0,-0.14 -0.08,-0.39 -0.11,-0.48 l -1.64,-6.52 c -0.23,-0.98 -1,-1.67 -1.77,-2.34 -0.31,-0.27 -1.71,-1.39 -3.21,-1.39 -1.29,0 -2.54,0.9 -2.54,3.37 0,1.86 1,5.69 1.82,7.08 1.59,2.8 3.37,3.31 4.34,3.31 v 0.97 c -4.45,0 -8.98,-4.91 -8.98,-9.92 0,-3.38 2.26,-5.78 5.26,-5.78 1.88,0 3.55,1.08 4.94,2.44 0.67,-2.1 2.69,-2.44 3.59,-2.44 1.25,0 2.13,0.76 2.75,1.84 0.77,1.36 1.22,3.35 1.22,3.49 0,0.45 -0.45,0.45 -0.55,0.45 -0.5,0 -0.53,-0.14 -0.76,-1.08 -0.42,-1.67 -1.09,-3.73 -2.55,-3.73 -0.9,0 -1.15,0.76 -1.15,1.7 0,0.59 0.28,1.86 0.53,2.77 0.23,0.93 0.59,2.35 0.76,3.12 l 0.69,2.66 c 0.22,0.9 0.63,2.54 0.63,2.72 0,0.76 -0.63,1.1 -1.18,1.1 -0.59,0 -1.4,-0.42 -1.61,-1.39 z"
             id="path981" /><path
             style="fill:#000000;stroke-width:0"
             inkscape:connector-curvature="0"
             d="m 513.92,421.9 v 0.01 h 0.01 v 0 0.01 0 0.01 0.01 h 0.01 v 0.01 0.01 l 0.01,0.01 v 0.02 l 0.01,0.02 v 0.02 l 0.01,0.02 v 0.02 l 0.01,0.02 0.01,0.03 v 0.02 l 0.01,0.05 0.02,0.04 v 0.03 l 0.01,0.02 v 0.02 l 0.01,0.02 v 0.02 l 0.01,0.02 v 0.02 0.01 0.01 l 0.01,0.01 v 0 0.01 0 0.01 0 0.01 0 0 0.01 0 c 0,0.19 -0.14,0.5 -0.56,0.5 -0.7,0 -3.59,-0.28 -4.45,-0.36 -0.28,-0.03 -0.78,-0.06 -0.78,-0.8 0,-0.48 0.5,-0.48 0.9,-0.48 1.67,0 1.67,-0.25 1.67,-0.53 0,-0.24 -0.34,-1.63 -0.54,-2.44 l -0.8,-3.2 c -0.33,-1.19 -2.23,-8.82 -2.31,-9.27 -0.17,-0.84 -0.17,-1.3 -0.17,-1.7 0,-3.53 2.23,-5.75 5.12,-5.75 l 0.03,0.97 c -1.7,0 -2.67,1.5 -2.67,3.56 0,1.28 0.31,2.47 1.28,6.41 0.2,0.65 0.2,0.73 0.88,1.5 1.32,1.53 2.89,2.29 4.14,2.29 1.36,0 2.54,-1.01 2.54,-3.37 0,-1.44 -0.76,-4.99 -1.81,-7.02 -0.84,-1.7 -2.58,-3.37 -4.36,-3.37 v 0 l -0.03,-0.97 c 4.36,0 8.98,4.73 8.98,9.89 0,4.08 -2.81,5.81 -5.21,5.81 -1.82,0 -3.35,-1 -4.39,-1.91 z"
             id="path983" /></g>      </g>
      <g
         transform="matrix(0.67913262,0,0,0.67913262,68.641224,-11.228515)"
         id="g1032">
        <g
           style="font-style:normal;font-variant:normal;font-weight:normal;font-stretch:normal;letter-spacing:normal;word-spacing:normal;text-anchor:start;fill:none;fill-opacity:1;fill-rule:evenodd;stroke:#000000;stroke-linecap:butt;stroke-linejoin:miter;stroke-miterlimit:10.43299961;stroke-dasharray:none;stroke-dashoffset:0;stroke-opacity:1"
           id="g1030"
           transform="matrix(0.3,0,0,-0.3,-52.5,222.75)"
           xml:space="preserve"
           stroke-miterlimit="10.433"
           font-style="normal"
           font-variant="normal"
           font-weight="normal"
           font-stretch="normal"
           font-size-adjust="none"
           letter-spacing="normal"
           word-spacing="normal"><path
             style="fill:#000000;stroke-width:0"
             inkscape:connector-curvature="0"
             d="m 482.47,436.59 0.04,0.15 0.04,0.14 0.03,0.14 0.04,0.13 0.03,0.12 0.04,0.12 0.04,0.11 0.04,0.11 0.04,0.1 0.04,0.09 0.05,0.09 0.05,0.08 0.06,0.08 0.06,0.07 0.07,0.07 0.08,0.06 0.08,0.06 0.09,0.05 0.09,0.05 0.11,0.04 0.11,0.04 0.13,0.04 0.13,0.03 0.07,0.01 0.08,0.02 0.07,0.01 0.08,0.01 0.08,0.01 0.09,0.01 0.09,0.01 0.09,0.01 0.09,0.01 h 0.1 l 0.1,0.01 h 0.11 l 0.1,0.01 h 0.11 0.12 0.12 0.12 0.13 c 0.79,0 1.34,0 1.34,0.96 0,0.43 -0.3,0.59 -0.69,0.59 -1.25,0 -4.28,-0.16 -5.53,-0.16 -1.64,0 -5.69,0.16 -7.33,0.16 -0.45,0 -1.04,0 -1.04,-1 0,-0.55 0.4,-0.55 1.7,-0.55 1.14,0 1.64,0 2.88,-0.09 1.2,-0.16 1.54,-0.31 1.54,-1 0,-0.3 -0.09,-0.66 -0.19,-1.05 l -5.73,-22.87 c -1.2,-4.83 -4.58,-7.47 -7.17,-7.47 -1.3,0 -3.94,0.5 -4.74,3.09 0.14,-0.04 0.5,-0.04 0.6,-0.04 1.94,0 3.23,1.68 3.23,3.18 0,1.6 -1.34,2.08 -2.19,2.08 -0.89,0 -3.34,-0.59 -3.34,-3.98 0,-3.08 2.64,-5.42 6.58,-5.42 4.59,0 9.76,3.28 11.01,8.21 z"
             id="path1024" /><path
             style="fill:#000000;stroke-width:0"
             inkscape:connector-curvature="0"
             d="m 492.32,421.9 0.01,0.01 v 0 0 0.01 0 0.01 l 0.01,0.01 v 0 0.01 0.01 l 0.01,0.01 v 0.02 l 0.01,0.02 v 0.02 l 0.01,0.02 0.01,0.02 v 0.02 l 0.01,0.03 v 0.02 l 0.02,0.05 0.01,0.04 v 0.03 l 0.01,0.02 v 0.02 l 0.01,0.02 v 0.02 l 0.01,0.02 v 0.02 0.01 l 0.01,0.01 v 0.01 0 0.01 0 0.01 0 0.01 0 0 0.01 0 c 0,0.19 -0.14,0.5 -0.56,0.5 -0.7,0 -3.59,-0.28 -4.45,-0.36 -0.28,-0.03 -0.78,-0.06 -0.78,-0.8 0,-0.48 0.5,-0.48 0.9,-0.48 1.68,0 1.68,-0.25 1.68,-0.53 0,-0.24 -0.35,-1.63 -0.55,-2.44 l -0.8,-3.2 c -0.33,-1.19 -2.23,-8.82 -2.31,-9.27 -0.17,-0.84 -0.17,-1.3 -0.17,-1.7 0,-3.53 2.23,-5.75 5.12,-5.75 l 0.03,0.97 c -1.7,0 -2.67,1.5 -2.67,3.56 0,1.28 0.31,2.47 1.28,6.41 0.21,0.65 0.21,0.73 0.88,1.5 1.33,1.53 2.89,2.29 4.14,2.29 1.36,0 2.55,-1.01 2.55,-3.37 0,-1.44 -0.77,-4.99 -1.82,-7.02 -0.84,-1.7 -2.57,-3.37 -4.36,-3.37 v 0 l -0.03,-0.97 c 4.36,0 8.99,4.73 8.99,9.89 0,4.08 -2.82,5.81 -5.22,5.81 -1.81,0 -3.35,-1 -4.39,-1.91 z"
             id="path1026" /><path
             style="fill:#000000;stroke-width:0"
             inkscape:connector-curvature="0"
             d="m 508.45,406.7 h 0.1 0.1 0.12 0.12 l 0.14,0.01 h 0.14 l 0.15,0.01 h 0.15 l 0.16,0.01 0.17,0.01 0.18,0.01 0.18,0.01 0.18,0.01 0.19,0.02 0.38,0.03 0.4,0.04 0.4,0.05 0.41,0.06 0.4,0.07 0.41,0.08 0.19,0.05 0.2,0.04 0.19,0.05 0.19,0.06 0.18,0.05 0.18,0.06 c 2.58,0.91 3.06,2.58 3.06,3.63 0,1.92 -1.92,3.06 -4.32,3.06 v -0.97 c 1.53,0 2.82,-0.76 2.82,-2.09 0,-3.38 -5.89,-3.38 -7.39,-3.38 h -1.7 c 1.42,5.05 5.3,5.47 6.27,5.47 v 0.97 c -4.18,0 -9.83,-3.2 -9.83,-9.16 0,-3.51 2.2,-6.54 6.28,-6.54 5.89,0 8.64,3.44 8.64,3.94 0,0.2 -0.31,0.59 -0.59,0.59 -0.21,0 -0.28,-0.08 -0.57,-0.36 -2.71,-3.2 -6.79,-3.2 -7.42,-3.2 -2.09,0 -3.48,1.39 -3.48,4.22 0,0.48 0,1.18 0.42,3.09 z"
             id="path1028" /></g>      </g>
      <g
         transform="matrix(0.62508954,0,0,0.62508954,-15.429316,29.02289)"
         id="g1063">
        <g
           word-spacing="normal"
           letter-spacing="normal"
           font-size-adjust="none"
           font-stretch="normal"
           font-weight="normal"
           font-variant="normal"
           font-style="normal"
           stroke-miterlimit="10.433"
           xml:space="preserve"
           transform="matrix(0.3,0,0,-0.3,-52.5,222.75)"
           id="g1235"
           style="font-style:normal;font-variant:normal;font-weight:normal;font-stretch:normal;letter-spacing:normal;word-spacing:normal;text-anchor:start;fill:none;fill-opacity:1;fill-rule:evenodd;stroke:#000000;stroke-linecap:butt;stroke-linejoin:miter;stroke-miterlimit:10.43299961;stroke-dasharray:none;stroke-dashoffset:0;stroke-opacity:1"><path
             id="path1060"
             d="m 474.1,425.03 -0.09,0.17 -0.09,0.17 -0.09,0.16 -0.09,0.16 -0.1,0.16 -0.1,0.16 -0.11,0.15 -0.11,0.14 -0.11,0.15 -0.12,0.13 -0.12,0.14 -0.12,0.13 -0.13,0.12 -0.13,0.12 -0.14,0.11 -0.14,0.11 -0.14,0.11 -0.15,0.09 -0.15,0.1 -0.15,0.08 -0.16,0.08 -0.17,0.08 -0.17,0.06 -0.17,0.07 -0.17,0.05 -0.18,0.05 -0.19,0.04 -0.19,0.03 -0.19,0.03 -0.2,0.02 -0.2,0.01 h -0.21 l 0.05,-1.09 c 3.23,0 3.93,-4.08 3.93,-4.37 0,-0.32 -0.09,-0.61 -0.14,-0.86 l -2.5,-9.77 c -0.25,-0.89 -0.25,-0.98 -1,-1.84 -2.18,-2.74 -4.23,-3.53 -5.62,-3.53 -2.49,0 -3.19,2.73 -3.19,4.68 0,2.49 1.59,8.61 2.74,10.91 1.54,2.94 3.79,4.78 5.78,4.78 l -0.05,1.09 c -5.83,0 -12,-7.31 -12,-14.59 0,-4.69 2.73,-7.97 6.62,-7.97 0.99,0 3.49,0.21 6.47,3.74 0.41,-2.1 2.14,-3.74 4.53,-3.74 1.75,0 2.9,1.14 3.69,2.74 0.85,1.79 1.5,4.84 1.5,4.93 0,0.5 -0.45,0.5 -0.59,0.5 -0.5,0 -0.55,-0.2 -0.7,-0.9 -0.85,-3.24 -1.75,-6.17 -3.79,-6.17 -1.34,0 -1.5,1.29 -1.5,2.29 0,1.1 0.1,1.49 0.64,3.69 0.57,2.09 0.66,2.59 1.11,4.48 l 1.79,6.97 c 0.35,1.39 0.35,1.5 0.35,1.69 0,0.86 -0.6,1.36 -1.45,1.36 -1.19,0 -1.94,-1.11 -2.09,-2.2 z"
             inkscape:connector-curvature="0"
             style="fill:#000000;stroke-width:0" /></g>      </g>
      <g
         transform="matrix(0.62508954,0,0,0.62508954,36.94449,-31.479944)"
         id="g1096">
        <g
           style="font-style:normal;font-variant:normal;font-weight:normal;font-stretch:normal;letter-spacing:normal;word-spacing:normal;text-anchor:start;fill:none;fill-opacity:1;fill-rule:evenodd;stroke:#000000;stroke-linecap:butt;stroke-linejoin:miter;stroke-miterlimit:10.43299961;stroke-dasharray:none;stroke-dashoffset:0;stroke-opacity:1"
           id="g1094"
           transform="matrix(0.3,0,0,-0.3,-52.5,222.75)"
           xml:space="preserve"
           stroke-miterlimit="10.433"
           font-style="normal"
           font-variant="normal"
           font-weight="normal"
           font-stretch="normal"
           font-size-adjust="none"
           letter-spacing="normal"
           word-spacing="normal"><path
             style="fill:#000000;stroke-width:0"
             inkscape:connector-curvature="0"
             d="m 467.43,440.23 v 0 0.01 0 0.01 l -0.01,0.02 v 0.01 0.02 0.02 0.02 l -0.01,0.02 v 0.02 l -0.01,0.02 -0.01,0.02 -0.01,0.03 -0.01,0.02 -0.01,0.03 -0.01,0.02 -0.02,0.03 -0.02,0.02 -0.02,0.02 -0.02,0.03 -0.01,0.01 -0.02,0.01 -0.01,0.01 -0.01,0.01 -0.02,0.01 -0.01,0.01 -0.02,0.01 -0.01,0.01 -0.02,0.01 -0.02,0.01 h -0.02 l -0.02,0.01 -0.02,0.01 h -0.02 l -0.02,0.01 -0.02,0.01 h -0.03 -0.02 l -0.03,0.01 h -0.02 -0.03 l -0.03,0.01 h -0.03 -0.02 c -1.16,0 -4.79,-0.41 -6.08,-0.5 -0.41,-0.05 -0.96,-0.1 -0.96,-1 0,-0.6 0.46,-0.6 1.21,-0.6 2.39,0 2.48,-0.34 2.48,-0.84 0,-0.36 -0.45,-2.05 -0.7,-3.09 l -4.08,-16.24 c -0.59,-2.5 -0.8,-3.3 -0.8,-5.03 0,-4.73 2.64,-7.83 6.33,-7.83 v 1.1 c -1.7,0 -3.34,1.34 -3.34,5.03 0,0.95 0,1.89 0.79,5.03 l 1.1,4.59 c 0.3,1.1 0.3,1.19 0.75,1.74 2.44,3.23 4.69,3.98 5.98,3.98 1.8,0 3.14,-1.48 3.14,-4.69 0,-2.93 -1.65,-8.65 -2.54,-10.56 -1.64,-3.33 -3.94,-5.12 -5.88,-5.12 v -1.1 c 5.88,0 12,7.42 12,14.6 0,4.53 -2.64,7.96 -6.62,7.96 -2.28,0 -4.33,-1.43 -5.83,-2.98 z"
             id="path1092" /></g>      </g>
      <g
         transform="matrix(0.62508954,0,0,0.62508954,125.77215,23.712935)"
         id="g1132">
        <g
           style="font-style:normal;font-variant:normal;font-weight:normal;font-stretch:normal;letter-spacing:normal;word-spacing:normal;text-anchor:start;fill:none;fill-opacity:1;fill-rule:evenodd;stroke:#000000;stroke-linecap:butt;stroke-linejoin:miter;stroke-miterlimit:10.43299961;stroke-dasharray:none;stroke-dashoffset:0;stroke-opacity:1"
           id="g1130"
           transform="matrix(0.3,0,0,-0.3,-52.5,222.75)"
           xml:space="preserve"
           stroke-miterlimit="10.433"
           font-style="normal"
           font-variant="normal"
           font-weight="normal"
           font-stretch="normal"
           font-size-adjust="none"
           letter-spacing="normal"
           word-spacing="normal"><path
             style="fill:#000000;stroke-width:0"
             inkscape:connector-curvature="0"
             d="m 464.83,417.71 0.14,0.01 h 0.16 0.17 0.17 l 0.19,0.01 h 0.2 l 0.21,0.01 0.22,0.01 0.22,0.01 0.23,0.01 0.24,0.01 0.25,0.02 0.25,0.02 0.25,0.02 0.53,0.05 0.53,0.07 0.55,0.07 0.54,0.1 0.54,0.11 0.54,0.12 0.26,0.07 0.26,0.08 0.25,0.08 0.25,0.08 0.24,0.09 0.24,0.1 c 3.48,1.5 3.73,4.43 3.73,5.12 0,2.2 -1.89,4.23 -5.33,4.23 v -1.09 c 2.35,0 3.69,-1.44 3.69,-3.14 0,-5.17 -7.97,-5.17 -10.01,-5.17 h -2.05 c 1.95,7.56 7.08,8.31 8.37,8.31 v 1.09 c -5.53,0 -13.04,-4.82 -13.04,-13.54 0,-5.08 2.93,-9.02 7.81,-9.02 7.12,0 11.31,5.28 11.31,5.88 0,0.29 -0.3,0.65 -0.59,0.65 -0.25,0 -0.35,-0.11 -0.66,-0.5 -3.94,-4.93 -9.36,-4.93 -9.95,-4.93 -3.89,0 -4.35,4.18 -4.35,5.78 0,0.59 0.05,2.14 0.8,5.18 z"
             id="path1128" /></g>      </g>
      <path
         inkscape:connector-curvature="0"
         id="path1192"
         d="m 91.581469,38.190095 c 0,0 8.889771,-5.702884 27.507981,-8.55432 18.61822,-2.851438 31.70128,-2.851438 31.70128,-2.851438 0,0 14.76039,6.038338 21.63739,21.134185 6.87699,15.095847 8.05111,29.01758 8.05111,29.01758"
         style="fill:none;stroke:#000000;stroke-width:0.765;stroke-linecap:butt;stroke-linejoin:miter;stroke-opacity:1;stroke-miterlimit:4;stroke-dasharray:2.295,0.765;stroke-dashoffset:0" />
      <circle
         r="4.7803516"
         cy="37.938492"
         cx="91.413742"
         id="path815"
         style="opacity:1;fill:#eaaeae;fill-opacity:1;stroke:none;stroke-width:1.2954545;stroke-linejoin:round;stroke-miterlimit:4;stroke-dasharray:none;stroke-dashoffset:0;stroke-opacity:1;paint-order:stroke markers fill" />
      <circle
         r="4.7803516"
         cy="26.784338"
         cx="150.8746"
         id="path815-3"
         style="opacity:1;fill:#eaaeae;fill-opacity:1;stroke:none;stroke-width:1.2954545;stroke-linejoin:round;stroke-miterlimit:4;stroke-dasharray:none;stroke-dashoffset:0;stroke-opacity:1;paint-order:stroke markers fill" />
      <circle
         r="4.7803516"
         cy="76.852234"
         cx="180.64697"
         id="path815-0"
         style="opacity:1;fill:#eaaeae;fill-opacity:1;stroke:none;stroke-width:1.2954545;stroke-linejoin:round;stroke-miterlimit:4;stroke-dasharray:none;stroke-dashoffset:0;stroke-opacity:1;paint-order:stroke markers fill" />
    </g>
  </g>
</svg>
